<?xml version="1.0" encoding="UTF-8" standalone="no"?>
<!-- Created with Inkscape (http://www.inkscape.org/) -->

<svg
   width="120.04314mm"
   height="110.31688mm"
   viewBox="0 0 120.04314 110.31688"
   version="1.1"
   id="svg5"
   xml:space="preserve"
   xmlns:inkscape="http://www.inkscape.org/namespaces/inkscape"
   xmlns:sodipodi="http://sodipodi.sourceforge.net/DTD/sodipodi-0.dtd"
   xmlns="http://www.w3.org/2000/svg"
   xmlns:svg="http://www.w3.org/2000/svg"><sodipodi:namedview
     id="namedview7"
     pagecolor="#ffffff"
     bordercolor="#000000"
     borderopacity="0.25"
     inkscape:showpageshadow="2"
     inkscape:pageopacity="0.0"
     inkscape:pagecheckerboard="0"
     inkscape:deskcolor="#d1d1d1"
     inkscape:document-units="mm"
     showgrid="false" /><defs
     id="defs2" /><g
     inkscape:label="Ebene 1"
     inkscape:groupmode="layer"
     id="layer1"
     transform="translate(-72.138704,-50.106825)"><g
       id="g496"
       transform="matrix(2.2672412,0,0,2.0277622,51.012311,51.210614)"><path
         style="fill:#eddab0;stroke-width:0.264583"
         d="m 30.022363,53.242029 c 0,-0.933603 -1.012356,-1.805204 -1.894297,-1.630923 -0.76336,0.15085 -1.01612,-0.178475 -1.01612,-1.323914 0,-0.456293 -0.264714,-0.804929 -0.892336,-1.175234 -0.758313,-0.447416 -0.912853,-0.708512 -1.028937,-1.738408 -0.07513,-0.666554 -0.370403,-1.528152 -0.656163,-1.914663 -0.401128,-0.542554 -0.454339,-0.806146 -0.233433,-1.156353 0.210774,-0.334148 0.189914,-0.68185 -0.07921,-1.320237 -0.200934,-0.476644 -0.405147,-1.556022 -0.453805,-2.398617 -0.04866,-0.842595 -0.209159,-1.757503 -0.356669,-2.033127 -0.14751,-0.275625 -0.2682,-0.857031 -0.2682,-1.292014 0,-0.49639 -0.344817,-1.242613 -0.926041,-2.00406 -0.669353,-0.876898 -0.928375,-1.487569 -0.934457,-2.203077 -0.01334,-1.569206 -1.138864,-2.636747 -1.39236,-1.320628 -0.09831,0.510421 -0.1198,0.491554 -0.150694,-0.132291 -0.02443,-0.49343 0.0947,-0.727605 0.370153,-0.727605 0.329755,0 0.350614,-0.103833 0.110855,-0.551828 -0.526306,-0.983411 -0.05471,-0.841369 0.650065,0.195795 0.376739,0.554421 0.692526,0.891103 0.70175,0.74818 0.0092,-0.14292 0.124499,0.0082 0.256166,0.335751 0.131668,0.327586 0.170561,0.774989 0.08643,0.99423 -0.187675,0.489075 0.5773,1.717456 1.069544,1.717456 0.197109,0 0.514622,0.188262 0.705586,0.418359 0.279745,0.337071 0.282905,0.521327 0.01626,0.948291 -0.429123,0.687133 -0.136975,2.169027 0.387906,1.967613 0.442785,-0.169913 0.466801,-0.02569 0.381966,2.293843 -0.03932,1.075084 0.05838,1.940948 0.244283,2.164947 0.170396,0.205317 0.411692,1.094076 0.536213,1.975022 0.124521,0.880947 0.473802,1.949162 0.77618,2.373813 0.302377,0.424651 0.549973,0.932304 0.550213,1.128123 2.4e-4,0.195818 0.448898,1.002392 0.997018,1.792388 0.994463,1.433303 2.157939,2.344166 3.041032,2.380763 0.256636,0.01064 0.673355,0.122441 0.926042,0.248457 2.04928,1.021971 5.398291,1.410618 6.456219,0.749231 0.522711,-0.326787 2.051172,-0.817438 2.274213,-0.730049 0.296042,0.115996 1.966447,-1.066562 2.921164,-2.068026 1.362276,-1.42898 2.330662,-3.346971 2.702206,-5.352023 0.282752,-1.525865 0.294894,-1.583661 0.883499,-4.205335 0.857716,-3.820317 1.213485,-5.118635 1.443442,-5.267619 0.486085,-0.314926 1.13157,-1.917044 0.973289,-2.415744 -0.09102,-0.286784 0.01968,-0.773803 0.250949,-1.103982 0.227602,-0.324948 0.413824,-0.480978 0.413824,-0.346736 0,0.134244 0.142875,0.101205 0.3175,-0.07342 0.174625,-0.174625 0.485471,-0.3175 0.690769,-0.3175 0.240231,0 0.161361,0.171596 -0.221287,0.481444 -0.453088,0.36689 -0.594558,0.758045 -0.594558,1.643933 0,0.926606 -0.153758,1.316247 -0.757759,1.920248 -0.416769,0.416769 -0.819187,1.075984 -0.894263,1.464921 -0.07507,0.388941 -0.271735,1.183413 -0.437025,1.765496 -0.165291,0.582084 -0.315995,1.653646 -0.334902,2.38125 -0.01892,0.727605 -0.179393,1.582981 -0.356634,1.900836 -0.411028,0.737116 -0.413248,1.738799 -0.0048,2.147289 0.209934,0.209934 0.220147,0.3175 0.03015,0.3175 -0.464501,0 -1.141392,1.710471 -1.141392,2.884258 0,0.877736 -0.09307,1.084492 -0.488159,1.084492 -0.694132,0 -1.361234,0.836737 -1.538626,1.929879 -0.142894,0.880555 -0.20234,0.929019 -0.983951,0.802183 -0.942382,-0.15293 -1.792759,0.547923 -1.906508,1.571278 -0.03616,0.3253 -0.07566,0.624276 -0.08779,0.664393 -0.01212,0.04012 -0.373321,-0.108712 -0.802658,-0.33073 -1.013312,-0.524004 -1.836563,-0.511619 -2.442496,0.03674 -0.402246,0.36403 -0.647216,0.391131 -1.412499,0.156258 -0.666827,-0.204655 -1.143482,-0.202007 -1.703742,0.0095 -0.641186,0.24202 -0.865253,0.214559 -1.275001,-0.156257 -0.613708,-0.555398 -1.297056,-0.568704 -2.539798,-0.04945 -0.951099,0.397391 -0.958353,0.395468 -0.958353,-0.254278 z m 6.746875,-1.204483 c 0.08994,-0.145521 0.335089,-0.264584 0.544782,-0.264584 0.209693,0 0.381259,0.119063 0.381259,0.264584 0,0.14552 -0.245152,0.264583 -0.544782,0.264583 -0.29963,0 -0.471196,-0.119063 -0.381259,-0.264583 z m -4.559027,-0.977104 c 0.257431,-0.06708 0.614618,-0.06267 0.79375,0.0098 0.179131,0.07248 -0.03149,0.127362 -0.468057,0.12197 -0.436562,-0.0054 -0.583124,-0.06469 -0.325693,-0.131773 z m 6.41111,-0.08123 c 0.722678,-0.310544 0.926042,-0.310544 0.926042,0 0,0.145521 -0.327422,0.256215 -0.727604,0.245986 -0.644748,-0.01648 -0.667346,-0.04449 -0.198438,-0.245986 z m -5.836395,-0.97014 c -0.265349,-0.194027 -0.697685,-0.352777 -0.960747,-0.352777 -0.586544,0 -2.361935,-1.720622 -2.792921,-2.706764 -0.211019,-0.482833 -0.449994,-0.670861 -0.720638,-0.567005 -0.222708,0.08546 -0.404924,0.01656 -0.404924,-0.153122 0,-0.169677 0.119063,-0.234921 0.264583,-0.144984 0.145521,0.08994 0.264584,0.04736 0.264584,-0.09463 0,-0.141983 -0.148828,-0.318204 -0.330729,-0.391602 -0.259213,-0.104595 -0.259931,-0.137969 -0.0033,-0.154339 0.180076,-0.01148 0.616203,0.425595 0.969172,0.971299 1.334206,2.062731 3.300083,3.484488 4.839366,3.499919 0.318832,0.0032 0.641018,0.105029 0.715964,0.226295 0.222986,0.360799 -1.317486,0.250066 -1.840391,-0.132292 z m 3.984312,0.211426 c 0.943782,-0.39403 2.135481,-0.619511 1.852083,-0.350432 -0.145521,0.138168 -0.740833,0.323246 -1.322917,0.411286 -0.67243,0.101706 -0.865383,0.07952 -0.529166,-0.06085 z m 3.439583,-0.03504 c 0.08994,-0.145521 0.275558,-0.264583 0.412491,-0.264583 0.136932,0 0.248967,0.119062 0.248967,0.264583 0,0.145521 -0.185621,0.264583 -0.41249,0.264583 -0.22687,0 -0.338905,-0.119062 -0.248968,-0.264583 z m -1.168577,-0.604036 c 0.06063,-0.04118 0.348369,-0.249536 0.63941,-0.463021 0.489482,-0.359042 0.501933,-0.353427 0.166042,0.07487 -0.19972,0.254661 -0.487455,0.46302 -0.63941,0.46302 -0.151956,0 -0.226674,-0.03369 -0.166042,-0.07487 z m 1.300869,-0.627983 c 0,-0.150408 0.238125,-0.488966 0.529166,-0.752356 0.291042,-0.26339 0.529167,-0.395925 0.529167,-0.294526 0,0.101399 -0.238125,0.439957 -0.529167,0.752353 -0.291041,0.312399 -0.529166,0.444934 -0.529166,0.294529 z m 2.116666,-0.984544 c 0,-0.05494 0.16469,-0.236574 0.365977,-0.403627 0.282218,-0.23422 0.401423,-0.211357 0.520862,0.0999 0.106505,0.277546 -0.0078,0.403627 -0.365975,0.403627 -0.286475,0 -0.520864,-0.04495 -0.520864,-0.0999 z m -0.175903,-1.589066 c 0.267055,-0.408347 0.645618,-1.17765 0.841254,-1.709558 0.195633,-0.531907 0.364085,-0.754001 0.37434,-0.493543 0.02305,0.585057 -0.911926,2.459165 -1.366639,2.739401 -0.183981,0.113384 -0.116009,-0.12795 0.151045,-0.5363 z M 27.772012,44.662224 c 0.14349,-0.473673 0.10716,-0.577016 -0.147516,-0.419616 -0.24342,0.15044 -0.288333,0.07968 -0.160638,-0.25309 0.09749,-0.254055 0.192866,-0.898665 0.211946,-1.432467 0.02572,-0.719593 0.08818,-0.560067 0.241546,0.616953 0.131741,1.011052 0.108346,1.683575 -0.06443,1.852083 -0.184525,0.17997 -0.2104,0.0636 -0.08091,-0.363863 z M 43.56306,42.043286 c 0.008,-0.579822 0.120214,-1.217454 0.249362,-1.416961 0.144164,-0.222705 0.176744,0.146072 0.0844,0.955273 -0.186468,1.633948 -0.353121,1.864477 -0.333762,0.461688 z M 26.053613,41.586504 c 0,-0.218282 0.119062,-0.396875 0.264583,-0.396875 0.145521,0 0.264583,0.178593 0.264583,0.396875 0,0.218281 -0.119062,0.396875 -0.264583,0.396875 -0.145521,0 -0.264583,-0.178594 -0.264583,-0.396875 z M 15.607675,39.234535 c 0.200034,-2.401385 -0.03695,-5.017381 -0.432386,-4.772988 -0.134896,0.08337 -0.433795,-0.303472 -0.66422,-0.859647 -0.563786,-1.360811 -0.922634,-1.788054 -1.16815,-1.390801 -0.1075,0.17394 -0.616709,-0.795121 -1.175172,-2.236433 -0.542011,-1.398855 -1.025219,-2.543371 -1.073795,-2.543371 -0.04858,0 -0.0207,0.416719 0.06196,0.926042 0.09753,0.600996 0.04525,0.926041 -0.148926,0.926041 -0.164561,0 -0.299202,-0.178593 -0.299202,-0.396875 0,-0.218281 -0.166719,-0.396875 -0.370486,-0.396875 -0.4769885,0 -1.0579266,-2.342253 -1.0171615,-4.101041 0.016864,-0.727604 0.2169215,-1.843902 0.4445715,-2.480661 0.50806,-1.421093 0.508432,-1.448685 0.017034,-1.260117 -0.5710339,0.219126 -0.4966264,-0.331772 0.285432,-2.113279 0.890034,-2.027475 2.062064,-3.916071 3.509591,-5.655319 0.423895,-0.509322 1.137885,-1.980127 1.586644,-3.2684541 2.344301,-6.730172 6.220175,-9.02464558 16.905187,-10.00767802 6.911189,-0.63583678 15.964223,0.8511206 19.430672,3.19148072 2.155804,1.4554838 3.715596,3.8180553 4.733732,7.1700476 0.290888,0.9576828 0.837435,2.0945448 1.214553,2.5263598 1.371362,1.57027 3.512908,5.113546 4.044683,6.692094 0.650499,1.93098 0.662226,2.060554 0.147839,1.633651 -0.505116,-0.419209 -0.496586,-0.282745 0.132291,2.116666 0.615286,2.347551 0.594009,2.187971 0.264584,1.984375 -0.159438,-0.09854 -0.275064,0.289556 -0.290957,0.976572 -0.03217,1.390613 -0.292923,2.390228 -0.594799,2.28019 -0.123365,-0.04497 -0.381585,0.275426 -0.573823,0.711988 l -0.349526,0.79375 -0.02148,-0.727604 c -0.03088,-1.045575 -0.416483,-0.895868 -0.775044,0.300908 -0.169484,0.565679 -0.563713,1.606251 -0.876067,2.312379 -0.456544,1.032092 -0.602295,1.185871 -0.743209,0.784151 -0.148696,-0.423902 -0.243917,-0.355108 -0.627579,0.453401 -0.248758,0.524219 -0.638479,1.139314 -0.866044,1.36688 -0.574228,0.574228 -0.839669,2.896147 -0.593966,5.195665 0.113562,1.062821 0.145873,1.993006 0.0718,2.067076 -0.223618,0.223618 -0.940665,-0.344096 -1.89588,-1.501034 -0.846397,-1.025139 -0.861269,-1.074889 -0.232772,-0.778672 0.369265,0.174038 0.800547,0.59971 0.958405,0.945939 0.474721,1.041199 0.661958,0.393104 0.704318,-2.437887 0.04935,-3.298153 0.08679,-3.468018 0.970735,-4.404564 0.390486,-0.413718 0.644658,-0.92242 0.56483,-1.130446 -0.09872,-0.257257 0.133811,-0.458642 0.727028,-0.629644 0.71143,-0.205082 0.87423,-0.386506 0.883382,-0.98442 0.0062,-0.403153 0.158145,-0.823809 0.337723,-0.934794 0.179578,-0.110985 0.399473,-0.817898 0.488656,-1.570916 0.08918,-0.75302 0.27737,-1.369126 0.41819,-1.369126 0.140819,0 0.191285,0.168741 0.112143,0.374978 -0.186031,0.484788 0.638588,0.808196 0.92197,0.361588 0.118547,-0.186831 0.217363,-0.436015 0.219591,-0.553744 0.0021,-0.117729 0.100719,-0.154308 0.218866,-0.08129 0.695148,0.429625 -0.272574,-4.974557 -1.034455,-5.776847 -0.131286,-0.138244 -0.238699,-0.472693 -0.238699,-0.743219 0,-0.270525 -0.119062,-0.41828 -0.264583,-0.328343 -0.163071,0.100783 -0.264584,-0.35003 -0.264584,-1.17501 0,-0.736192 -0.111506,-1.338532 -0.24779,-1.338532 -0.136284,0 -0.582768,-0.623931 -0.992187,-1.386513 -1.271654,-2.368582 -1.931567,-1.947303 -2.023507,1.291782 -0.03515,1.238441 -0.135276,1.560876 -0.506828,1.632177 -0.282427,0.0542 -0.463021,-0.07351 -0.463021,-0.32742 0,-0.228952 -0.131799,-0.416276 -0.292891,-0.416276 -0.161089,0 -0.224906,-0.177165 -0.141814,-0.393701 0.08309,-0.216535 0.02093,-0.365363 -0.138118,-0.330729 -0.159057,0.03464 -0.322694,-0.175153 -0.363635,-0.466195 -0.04095,-0.291039 -0.15222,-0.826821 -0.247274,-1.190623 C 53.879,15.425826 53.709762,13.639889 53.59797,11.820878 53.400054,8.6005306 52.794923,6.323092 52.229945,6.6722668 52.106789,6.7483814 51.792486,6.4794411 51.53149,6.0746215 50.96729,5.1995079 50.116959,4.4336005 49.695983,4.4213471 49.52965,4.4165052 49.322232,4.2266693 49.235055,3.9994883 48.922471,3.1849021 44.831698,1.5576298 41.254581,0.82492757 38.295958,0.21891168 37.41171,0.14294309 34.784863,0.26909436 29.158436,0.53929705 23.744744,2.2540561 21.517346,4.4715116 21.029116,4.9575628 20.19412,5.6439491 19.6618,5.9968147 c -1.096032,0.7265408 -1.437338,1.5923585 -1.670055,4.2365633 -0.314959,3.57866 -0.61493,5.211601 -1.261761,6.868614 -0.36697,0.940081 -0.770762,1.742738 -0.897315,1.783682 -0.282238,0.09131 -0.891556,-1.167223 -0.891556,-1.841493 0,-0.270618 0.119062,-0.418448 0.264583,-0.328511 0.149822,0.09259 0.264584,-0.127511 0.264584,-0.507452 0,-0.425558 -0.244416,-0.831122 -0.668238,-1.108821 -0.627688,-0.411276 -0.701216,-0.408002 -1.211685,0.05397 -0.386704,0.349962 -0.502609,0.696003 -0.401856,1.199766 0.115823,0.579117 0.02969,0.736037 -0.473281,0.862275 -0.494614,0.124141 -0.639849,0.375929 -0.742584,1.287394 -0.07024,0.62319 -0.562164,2.036332 -1.09316,3.140318 -1.216475,2.529156 -1.3479964,4.506812 -0.335985,5.052123 1.141172,0.61491 2.103583,2.019874 2.066126,3.016213 -0.02752,0.732047 0.09536,0.972307 0.619416,1.21108 0.359561,0.163827 0.653747,0.464378 0.653747,0.667888 0,0.203512 0.117698,0.297278 0.261552,0.208372 0.15536,-0.09602 0.190817,0.0227 0.08733,0.292373 -0.130911,0.341148 -0.08083,0.399796 0.201468,0.235905 0.206631,-0.119962 0.291144,-0.124399 0.187807,-0.0099 -0.255246,0.282919 0.465707,1.626365 0.978349,1.823085 0.286285,0.109858 0.363956,0.354587 0.25293,0.796949 -0.08813,0.351121 -0.03152,0.71795 0.125793,0.815173 0.366296,0.226386 0.366688,2.357949 6.88e-4,3.676082 -0.155317,0.55935 -0.231226,1.068167 -0.168686,1.130707 0.277516,0.277537 0.983186,-0.271455 0.983186,-0.764892 0,-0.299725 0.07519,-0.46977 0.16708,-0.377875 0.09189,0.09189 0.409861,0.03715 0.706594,-0.121661 0.360328,-0.192841 0.206377,0.117814 -0.463535,0.935352 -1.529335,1.866353 -1.819003,1.685619 -1.59566,-0.995587 z m 11.636563,1.425927 c 0.08994,-0.145521 0.05034,-0.264583 -0.08799,-0.264583 -0.138333,0 -0.326222,-0.297657 -0.417531,-0.661459 -0.09131,-0.363802 -0.282809,-0.661458 -0.425558,-0.661458 -0.142748,0 -0.259542,-0.178594 -0.259542,-0.396875 0,-0.920885 0.613942,-0.107521 1.543402,2.044734 0.04851,0.112324 -0.04782,0.204224 -0.214052,0.204224 -0.166236,0 -0.228662,-0.119062 -0.138725,-0.264583 z m 17.121727,-1.208095 c 0.16138,-0.354193 0.401394,-0.643988 0.533363,-0.643988 0.131969,0 0.159634,-0.253035 0.06148,-0.562301 -0.120984,-0.381188 -0.08319,-0.503415 0.11734,-0.379481 0.162695,0.100549 0.269814,0.523941 0.238045,0.940869 -0.03177,0.416928 -0.17236,0.687226 -0.312422,0.600662 -0.140065,-0.08656 -0.187981,0.01638 -0.106479,0.228775 0.09466,0.246671 -0.02754,0.399399 -0.33828,0.422807 -0.421601,0.03176 -0.447339,-0.04922 -0.193043,-0.607343 z M 16.573583,37.617754 c -0.0043,-0.291042 0.09455,-0.767292 0.219613,-1.058334 0.289722,-0.674216 0.289722,0.02138 0,0.926042 -0.170293,0.531741 -0.213361,0.557686 -0.219613,0.132292 z m 9.467104,-0.588418 c -0.07262,-0.614672 -0.03121,-1.016765 0.09201,-0.89354 0.123225,0.123224 0.182641,0.626139 0.132035,1.117584 -0.08974,0.871543 -0.09526,0.866029 -0.224045,-0.224044 z M 45.133204,36.64279 c -0.01627,-0.536231 0.105092,-1.310137 0.269708,-1.719791 0.164613,-0.409657 0.317677,-1.019681 0.340143,-1.355609 0.02246,-0.335931 0.198146,-0.708001 0.390406,-0.826823 0.244525,-0.151124 0.261712,-0.270338 0.0572,-0.396735 -0.160804,-0.09938 -0.557194,0.0048 -0.88087,0.231511 -0.763082,0.534482 -2.087925,0.524304 -3.323529,-0.02553 -0.541028,-0.240758 -1.062802,-0.422746 -1.159494,-0.404421 -0.09669,0.01834 -0.319638,-0.819431 -0.495438,-1.861683 -0.358666,-2.126408 -0.186724,-4.676455 0.375441,-5.568098 0.205148,-0.325382 0.459005,-0.889259 0.564132,-1.253061 0.105124,-0.363802 0.379087,-0.875329 0.608806,-1.136726 0.930971,-1.059355 0.257088,-3.191491 -1.633511,-5.16835 -1.593617,-1.666326 -2.306143,-1.960351 -4.717865,-1.946841 -1.648192,0.0092 -2.263815,0.128693 -2.996365,0.581434 -1.181828,0.73041 -2.615683,2.482392 -3.302658,4.035412 -0.515831,1.166122 -0.519564,1.257463 -0.08835,2.161736 0.247633,0.51929 0.547253,0.944165 0.665821,0.944165 0.118569,0 0.216025,0.20836 0.216569,0.463021 5.55e-4,0.254662 0.238669,0.852852 0.529166,1.329312 0.435008,0.713477 0.522656,1.296882 0.496874,3.307292 -0.04658,3.63211 -0.150756,3.931089 -1.557578,4.470109 -1.461727,0.560056 -2.875124,0.593362 -3.548785,0.08363 -0.406054,-0.307247 -0.588035,-0.318783 -0.910685,-0.05773 -0.221774,0.179435 -0.333336,0.207182 -0.247916,0.06166 0.08542,-0.145521 -0.01079,-0.418105 -0.213794,-0.605745 -0.203008,-0.187637 -0.36955,-0.247168 -0.370093,-0.132292 -5.56e-4,0.11488 -0.238669,-0.180961 -0.529167,-0.65742 -0.290498,-0.476459 -0.528178,-1.164807 -0.528178,-1.529657 0,-0.364853 -0.172607,-0.729605 -0.38357,-0.810559 -0.295616,-0.113438 -0.371454,-0.612066 -0.33073,-2.174507 l 0.05284,-2.02732 -1.521354,0.08965 c -0.836745,0.04931 -1.521354,0.198134 -1.521354,0.33073 0,0.132595 -0.12609,0.241082 -0.280199,0.241082 -0.154109,0 -0.195244,-0.137458 -0.09141,-0.305463 0.11926,-0.192967 0.07233,-0.233487 -0.127439,-0.110026 -0.185031,0.114356 -0.244539,0.433183 -0.143435,0.768486 0.131932,0.437536 0.09826,0.502412 -0.142408,0.274352 -0.173361,-0.16428 -0.363373,-0.819124 -0.42225,-1.455208 -0.08392,-0.906593 -0.05652,-1.013575 0.126797,-0.495057 0.198099,0.560341 0.238498,0.580565 0.264272,0.132291 0.02307,-0.401211 0.08543,-0.442364 0.257885,-0.170189 0.158562,0.250244 0.282276,0.270279 0.408438,0.06614 0.09954,-0.161057 0.63532,-0.292831 1.190625,-0.292831 1.668768,0 2.663291,-0.286767 2.663291,-0.767951 0,-0.240472 0.168142,-0.677278 0.373648,-0.97068 0.205507,-0.293401 0.576399,-1.153331 0.824205,-1.910955 0.247806,-0.757623 0.551325,-1.377497 0.674487,-1.377497 0.123162,0 0.34744,-0.446484 0.498396,-0.992188 0.471992,-1.706241 2.939873,-4.279852 5.144134,-5.364518 3.622882,-1.782737 7.937289,-1.519129 11.187441,0.683549 1.276861,0.865349 2.866009,2.609884 3.273449,3.59353 0.172392,0.41619 0.418057,0.75671 0.545923,0.75671 0.127865,0 0.232484,0.120581 0.232484,0.267958 0,0.147376 0.535781,1.362359 1.190625,2.699961 0.654843,1.337602 1.190625,2.576763 1.190625,2.753692 0,0.356335 2.934186,0.762626 4.183446,0.579273 0.671102,-0.0985 0.73728,-0.04297 0.628287,0.52719 -0.116059,0.607133 -0.200639,0.632265 -1.787784,0.531203 -1.539925,-0.09806 -1.687304,-0.05924 -1.94808,0.513104 -0.549439,1.205889 -0.392604,1.388036 1.195137,1.388036 1.067382,0 1.445021,0.09176 1.361074,0.330729 -0.07708,0.219414 -0.609893,0.314082 -1.583055,0.281271 -1.274603,-0.04298 -1.485309,0.02106 -1.607558,0.48854 -0.227642,0.870505 0.05557,1.207939 1.162365,1.384924 0.573101,0.09164 1.042001,0.291304 1.042001,0.443693 0,0.15239 0.119062,0.203489 0.264583,0.113551 0.418566,-0.258688 0.307541,0.296429 -0.132291,0.661459 -0.332111,0.275627 -0.396875,0.23537 -0.396875,-0.246684 0,-0.522158 -0.117595,-0.568513 -1.256771,-0.495417 -1.095134,0.07027 -1.307883,0.182729 -1.654194,0.874392 -0.218583,0.436563 -0.666443,1.249376 -0.995248,1.80625 -0.328806,0.556874 -0.518523,1.140817 -0.421593,1.297652 0.108151,0.174995 0.05139,0.207997 -0.146926,0.08543 -0.199059,-0.123026 -0.300339,-0.06252 -0.263734,0.157557 0.03268,0.196503 -0.01543,0.535874 -0.106897,0.754155 -0.09148,0.218281 -0.275534,0.992188 -0.409014,1.719792 -0.227306,1.239049 -0.244567,1.261107 -0.272282,0.347953 z m -25.93787,-1.163751 c 0.0127,-0.308226 0.07539,-0.370919 0.159853,-0.159853 0.07643,0.190995 0.06703,0.419198 -0.02089,0.507119 -0.08792,0.08792 -0.150453,-0.06835 -0.138964,-0.347266 z m 6.614584,-0.264583 c 0.01269,-0.308227 0.07539,-0.37092 0.159852,-0.159853 0.07643,0.190994 0.06703,0.419197 -0.02089,0.507118 -0.08792,0.08792 -0.150453,-0.06835 -0.138964,-0.347265 z m 25.929167,-0.264584 c 0.0127,-0.308226 0.07539,-0.370919 0.15985,-0.159853 0.07643,0.190995 0.06703,0.419198 -0.02088,0.507119 -0.08792,0.08792 -0.150453,-0.06835 -0.138965,-0.347266 z M 25.440711,34.209298 c -0.09947,-0.259204 -0.173301,-0.669903 -0.164077,-0.912664 0.01111,-0.292333 0.103006,-0.225671 0.27214,0.197408 0.140453,0.351333 0.214287,0.762032 0.164077,0.912665 -0.05021,0.15063 -0.172674,0.0618 -0.27214,-0.197409 z m -5.980793,-0.317759 c 0.01269,-0.308226 0.07539,-0.370919 0.159852,-0.159853 0.07643,0.190995 0.06703,0.419198 -0.02089,0.507119 -0.08792,0.08792 -0.150453,-0.06835 -0.138964,-0.347266 z m 32.055078,-1.43316 c 0,-0.509323 0.05445,-0.717683 0.121002,-0.463021 0.06655,0.254661 0.06655,0.67138 0,0.926041 -0.06655,0.254662 -0.121002,0.0463 -0.121002,-0.46302 z m -27.445758,0 c -0.08994,-0.145521 -0.03743,-0.264584 0.116677,-0.264584 0.154109,0 0.280198,0.119063 0.280198,0.264584 0,0.14552 -0.05251,0.264583 -0.116677,0.264583 -0.06417,0 -0.190261,-0.119063 -0.280198,-0.264583 z m -1.942032,-2.202755 c -0.03835,-0.677111 -0.122984,-0.739433 -0.898219,-0.661458 -0.638099,0.06418 -0.877983,-0.02819 -0.942761,-0.363011 -0.07347,-0.379783 0.06884,-0.42505 0.922022,-0.29328 0.554898,0.0857 1.04707,0.187052 1.093713,0.225224 0.04664,0.03817 0.03593,0.467807 -0.0238,0.954738 -0.0982,0.800505 -0.112666,0.813708 -0.150952,0.137787 z m -7.31954,-0.180363 c -0.164107,-0.265531 0.02619,-0.37052 1.092093,-0.602526 0.445051,-0.09687 0.534842,-0.01929 0.432162,0.373351 -0.139023,0.531625 -1.235448,0.696474 -1.524255,0.229175 z m 40.089581,-0.974704 c 0.0022,-0.117729 0.119467,-0.392647 0.260532,-0.610929 0.221033,-0.342024 0.25704,-0.335039 0.260533,0.05053 0.0021,0.246073 -0.115012,0.520991 -0.260533,0.610928 -0.145521,0.08994 -0.26276,0.0672 -0.260532,-0.05053 z m -3.170637,-1.02338 c -0.0046,-0.154088 0.166393,-0.511275 0.380047,-0.79375 0.213651,-0.282474 0.392245,-0.387519 0.396875,-0.233431 0.0046,0.154088 -0.166394,0.511276 -0.380047,0.79375 -0.213651,0.282475 -0.392245,0.387519 -0.396875,0.233431 z M 19.43903,26.902128 c 0,-0.14552 0.654843,-0.264583 1.455208,-0.264583 0.800364,0 1.455208,0.119063 1.455208,0.264583 0,0.145521 -0.654844,0.264584 -1.455208,0.264584 -0.800365,0 -1.455208,-0.119063 -1.455208,-0.264584 z m -6.085417,-0.537469 c 0,-0.140954 0.178594,-0.256281 0.396875,-0.256281 0.218281,0 0.396875,0.0468 0.396875,0.103984 0,0.05719 -0.178594,0.172517 -0.396875,0.256281 -0.218281,0.08376 -0.396875,0.03697 -0.396875,-0.103984 z m 1.181806,-0.75017 c -0.257081,-0.25708 -0.102822,-0.488914 0.511588,-0.768858 0.6988,-0.318394 0.952439,-0.195847 0.952439,0.460178 0,0.286089 -0.226546,0.432153 -0.670277,0.432153 -0.368653,0 -0.725841,-0.05556 -0.79375,-0.123473 z m 40.982699,-0.244854 c -0.21326,-0.34148 -0.200562,-0.541984 0.04909,-0.775193 0.262271,-0.244998 0.371364,-0.224373 0.493249,0.09325 0.08607,0.224305 0.06398,0.573142 -0.04909,0.775193 -0.167973,0.300153 -0.25822,0.28309 -0.493249,-0.09325 z m 3.872994,-2.187288 c 0,-0.154109 0.119063,-0.206614 0.264584,-0.116677 0.145521,0.08994 0.264583,0.216026 0.264583,0.280198 0,0.06417 -0.119062,0.116677 -0.264583,0.116677 -0.145521,0 -0.264584,-0.126089 -0.264584,-0.280198 z"
         id="path510" /><path
         style="fill:#ecd295;stroke-width:0.264583"
         d="m 33.461946,52.699004 c -0.363802,-0.207968 -0.922322,-0.382344 -1.241156,-0.387498 -0.318834,-0.0052 -0.653282,-0.12844 -0.743219,-0.27396 -0.08994,-0.145521 -0.424385,-0.273286 -0.743219,-0.283922 -0.318834,-0.01064 -0.934711,-0.227478 -1.368618,-0.481873 -0.826588,-0.484621 -2.781768,-3.078353 -2.782518,-3.691278 -2.4e-4,-0.195819 -0.247836,-0.703472 -0.550214,-1.128123 -0.302377,-0.424651 -0.651658,-1.492866 -0.776179,-2.373813 -0.124521,-0.880946 -0.365817,-1.769705 -0.536214,-1.975022 -0.185903,-0.223999 -0.283604,-1.089863 -0.244283,-2.164947 0.08483,-2.319529 0.06082,-2.463756 -0.381966,-2.293843 -0.52488,0.201414 -0.817029,-1.28048 -0.387906,-1.967613 0.266644,-0.426964 0.263484,-0.61122 -0.01626,-0.948291 -0.190964,-0.230097 -0.508477,-0.418359 -0.705586,-0.418359 -0.492244,0 -1.257219,-1.228381 -1.069544,-1.717456 0.08413,-0.219241 0.04524,-0.666644 -0.08643,-0.99423 -0.131667,-0.327583 -0.246942,-0.478671 -0.256166,-0.335751 -0.0092,0.142923 -0.320812,-0.187579 -0.692419,-0.734449 -0.371606,-0.546867 -0.776727,-0.931833 -0.900268,-0.855482 -0.222353,0.137422 -0.564154,-0.589121 -1.24136,-2.638674 -0.426415,-1.29054 -0.424717,-1.263258 -0.0648,-1.040815 0.195322,0.120716 0.235817,0.0011 0.12153,-0.358992 -0.09825,-0.309544 -0.03643,-0.62345 0.144826,-0.735474 0.199765,-0.123461 0.246699,-0.08294 0.127439,0.110026 -0.103833,0.168005 -0.0627,0.305463 0.09141,0.305463 0.154109,0 0.280199,-0.108487 0.280199,-0.241082 0,-0.132596 0.684609,-0.281424 1.521354,-0.33073 l 1.521354,-0.08965 -0.05284,2.02732 c -0.04072,1.562441 0.03511,2.061069 0.33073,2.174507 0.210963,0.08095 0.38357,0.445706 0.38357,0.810559 0,0.36485 0.23768,1.053198 0.528178,1.529657 0.290498,0.476459 0.528623,0.777782 0.529167,0.669602 5.55e-4,-0.108178 0.280968,0.04675 0.623165,0.344289 0.416992,0.362569 0.583964,0.74087 0.506305,1.147114 -0.06373,0.333378 0.04325,0.773761 0.23772,0.978631 0.340749,0.35896 0.396443,0.742799 0.505135,3.481342 0.02744,0.691224 0.15112,1.256771 0.274856,1.256771 0.123737,0 0.299683,0.297656 0.390991,0.661458 0.09131,0.363802 0.279198,0.661459 0.417531,0.661459 0.138333,0 0.184216,0.108894 0.10196,0.241985 -0.08225,0.133091 -0.0052,0.290102 0.171235,0.348914 0.327793,0.109265 0.347581,1.947847 0.03206,2.978901 -0.147228,0.481108 -0.119567,0.492649 0.317058,0.132292 0.445202,-0.367437 0.457016,-0.354743 0.170457,0.183118 -0.386801,0.726012 -0.391224,0.960017 -0.01374,0.726715 0.16179,-0.09999 0.388899,-0.02852 0.504687,0.15883 0.25734,0.416385 0.0305,1.103315 -0.29741,0.900652 -0.130271,-0.08051 -0.236858,-0.0076 -0.236858,0.162118 0,0.169677 0.182216,0.238583 0.404924,0.153122 0.270644,-0.103856 0.509619,0.08417 0.720638,0.567005 0.408802,0.935382 2.19447,2.706764 2.728593,2.706764 0.227682,0 0.67403,0.144249 0.991885,0.320548 0.635891,0.352706 2.094886,0.522598 1.90931,0.222333 -0.0641,-0.103722 0.503078,-0.197189 1.260403,-0.207704 1.020699,-0.01418 1.240047,0.0425 0.847789,0.219054 -0.386472,0.173948 -0.279451,0.198528 0.396875,0.09115 1.054759,-0.167465 2.03744,-0.579813 2.711979,-1.137994 0.254661,-0.21073 0.463021,-0.282712 0.463021,-0.159959 0,0.122756 0.238125,-0.03241 0.529166,-0.344805 0.291042,-0.312396 0.529167,-0.747376 0.529167,-0.966621 0,-0.219247 0.237736,-0.525862 0.528301,-0.681368 0.814729,-0.436031 1.652466,-2.281298 1.451364,-3.196899 -0.106862,-0.486545 -0.06239,-0.772314 0.120182,-0.772314 0.159396,0 0.291349,-0.327422 0.29323,-0.727604 0.01013,-2.15677 0.09143,-2.294541 1.31109,-2.22186 0.266337,0.01588 0.288094,-0.02458 0.06614,-0.122991 -0.181901,-0.08065 -0.330729,-0.262808 -0.330729,-0.404792 0,-0.141983 0.09436,-0.199829 0.209698,-0.128548 0.115335,0.07128 0.235694,-0.211523 0.267462,-0.628451 0.03177,-0.416928 -0.07531,-0.840293 -0.237947,-0.940808 -0.21631,-0.133689 -0.21685,-0.231495 -0.0021,-0.364276 0.161536,-0.09983 0.34212,-0.829093 0.401296,-1.620573 0.12794,-1.711158 0.373359,-2.425046 0.753018,-2.190406 0.165809,0.102476 0.19877,0.04388 0.08179,-0.145402 -0.107772,-0.174379 -0.05639,-0.485216 0.114189,-0.690747 0.170577,-0.205531 0.221962,-0.516369 0.114189,-0.690748 -0.113628,-0.183857 -0.08414,-0.247952 0.07019,-0.15257 0.146378,0.09047 0.551728,-0.397152 0.900777,-1.083601 0.608618,-1.196916 0.686154,-1.251386 1.891406,-1.328724 1.128371,-0.0724 1.25677,-0.0235 1.25677,0.478637 0,0.307602 0.105572,0.49403 0.234604,0.414284 0.327125,-0.202176 0.903266,0.551672 0.737341,0.964764 -0.08575,0.213492 -0.144177,0.167664 -0.157306,-0.123397 -0.02397,-0.53145 -0.815707,-0.620702 -1.290889,-0.145521 -0.174625,0.174625 -0.3175,0.207664 -0.3175,0.07342 0,-0.134242 -0.186221,0.02178 -0.413824,0.346736 -0.231264,0.330179 -0.341971,0.817198 -0.250949,1.103982 0.158282,0.4987 -0.487204,2.100818 -0.973288,2.415744 -0.229958,0.148984 -0.585727,1.447302 -1.443443,5.267619 -0.588605,2.621674 -0.600747,2.67947 -0.883499,4.205335 -0.371544,2.005052 -1.339929,3.923043 -2.702205,5.352023 -0.962412,1.009537 -2.643598,2.196061 -2.921164,2.06166 -0.209707,-0.101539 -2.320576,0.606714 -2.454611,0.823587 -0.246534,0.399079 -3.606972,0.291603 -4.361072,-0.13948 z m 4.233333,-0.661458 c 0,-0.145521 -0.171566,-0.264584 -0.381259,-0.264584 -0.209693,0 -0.454845,0.119063 -0.544782,0.264584 -0.08994,0.14552 0.08163,0.264583 0.381259,0.264583 0.29963,0 0.544782,-0.119063 0.544782,-0.264583 z m -4.691318,-0.967301 c -0.179132,-0.07247 -0.536319,-0.07689 -0.79375,-0.0098 -0.257431,0.06708 -0.110869,0.126381 0.325693,0.131773 0.436563,0.0054 0.647188,-0.04949 0.468057,-0.121971 z m 6.543402,-0.09103 c 0,-0.310544 -0.203364,-0.310544 -0.926042,0 -0.468908,0.201496 -0.44631,0.229508 0.198438,0.245986 0.400182,0.01023 0.727604,-0.100465 0.727604,-0.245986 z m 1.322916,-0.79375 c 0,-0.145521 -0.112035,-0.264583 -0.248967,-0.264583 -0.136933,0 -0.322554,0.119062 -0.412491,0.264583 -0.08994,0.145521 0.02209,0.264583 0.248968,0.264583 0.226869,0 0.41249,-0.119062 0.41249,-0.264583 z m 2.474339,-2.520294 c -0.119439,-0.311253 -0.238644,-0.334116 -0.520862,-0.0999 -0.49135,0.407784 -0.461899,0.503523 0.154887,0.503523 0.358159,0 0.47248,-0.126081 0.365975,-0.403627 z M 26.582779,41.586504 c 0,-0.218282 -0.119062,-0.396875 -0.264583,-0.396875 -0.145521,0 -0.264583,0.178593 -0.264583,0.396875 0,0.218281 0.119062,0.396875 0.264583,0.396875 0.145521,0 0.264583,-0.178594 0.264583,-0.396875 z m -2.116666,-9.128125 c 0,-0.145521 -0.126089,-0.264584 -0.280198,-0.264584 -0.154109,0 -0.206614,0.119063 -0.116677,0.264584 0.08994,0.14552 0.216026,0.264583 0.280198,0.264583 0.06417,0 0.116677,-0.119063 0.116677,-0.264583 z m -2.164152,-3.29528 c -0.04664,-0.03817 -0.538815,-0.139523 -1.093713,-0.225224 -0.853185,-0.13177 -0.995497,-0.0865 -0.922022,0.29328 0.06478,0.334825 0.304662,0.427194 0.942761,0.363011 0.775235,-0.07798 0.859866,-0.01566 0.898219,0.661458 0.03829,0.675921 0.05275,0.662718 0.150952,-0.137787 0.05973,-0.486931 0.07045,-0.916564 0.0238,-0.954738 z m 0.04749,-2.260971 c 0,-0.14552 -0.654844,-0.264583 -1.455208,-0.264583 -0.800365,0 -1.455208,0.119063 -1.455208,0.264583 0,0.145521 0.654843,0.264584 1.455208,0.264584 0.800364,0 1.455208,-0.119063 1.455208,-0.264584 z m -6.498352,13.163021 c 0.387492,-1.296328 0.485938,-3.892714 0.162379,-4.282577 -0.177281,-0.213612 -0.244752,-0.632809 -0.149934,-0.93155 0.11488,-0.361956 0.03797,-0.594749 -0.230531,-0.697783 -0.544917,-0.209106 -1.535339,-1.92957 -1.315534,-2.28522 0.104708,-0.169423 0.05226,-0.208531 -0.129231,-0.09636 -0.175276,0.108326 -0.305463,0.03109 -0.305463,-0.181234 0,-0.20351 -0.294186,-0.504061 -0.653747,-0.667888 -0.524053,-0.238773 -0.646936,-0.479033 -0.619416,-1.21108 0.03746,-0.996339 -0.924954,-2.401303 -2.066126,-3.016213 -1.0120114,-0.545311 -0.88049,-2.522967 0.335985,-5.052123 0.530996,-1.103986 1.022918,-2.517128 1.09316,-3.140318 0.102735,-0.911465 0.24797,-1.163253 0.742584,-1.287394 0.502975,-0.126238 0.589104,-0.283158 0.473281,-0.862275 -0.100753,-0.503763 0.01515,-0.849804 0.401856,-1.199766 0.510469,-0.461969 0.583997,-0.465243 1.211685,-0.05397 0.423822,0.277699 0.668238,0.683263 0.668238,1.108821 0,0.379941 -0.114762,0.600047 -0.264584,0.507452 -0.145521,-0.08994 -0.264583,0.05789 -0.264583,0.328511 0,0.67427 0.609318,1.932806 0.891556,1.841493 0.126553,-0.04094 0.530345,-0.843601 0.897315,-1.783682 0.646831,-1.657013 0.946802,-3.289954 1.261761,-6.868614 0.232717,-2.6442048 0.574023,-3.5100225 1.670055,-4.2365633 0.53232,-0.3528656 1.36151,-1.0332734 1.842643,-1.5120173 0.815242,-0.8111922 2.674687,-1.9400111 3.149567,-1.9120168 0.114938,0.00678 -0.335752,0.2961346 -1.001533,0.6430195 l -1.210511,0.6307003 -0.60211,2.4658347 c -0.331161,1.3562092 -0.704702,2.5917192 -0.830092,2.7455778 -0.211051,0.2589678 -1.041568,3.1393181 -1.041568,3.6123041 0,0.982225 3.927424,-2.379106 4.355435,-3.7276492 0.09798,-0.3087002 0.295246,-0.561273 0.438375,-0.561273 0.143128,0 0.972214,-1.4795831 1.842412,-3.2879626 0.870198,-1.8083795 1.727335,-3.3573605 1.904749,-3.4421801 0.177414,-0.08482 -0.09415,-0.095558 -0.603471,-0.023863 -1.581021,0.2225525 -0.283947,-0.3222323 1.870733,-0.78572795 3.583629,-0.77087819 7.363318,-0.81032171 10.961559,-0.11439104 1.74625,0.33773979 2.964193,0.65947309 2.706542,0.71496269 -0.443839,0.095588 -0.442042,0.1519577 0.0342,1.0726303 0.276463,0.534457 0.870569,1.8051775 1.320239,2.8238234 0.944835,2.140358 2.530388,4.4149823 4.358627,6.2528575 2.341509,2.353854 2.547456,1.680147 0.981316,-3.2101491 C 49.556362,6.5622843 49.022211,4.7702251 48.951903,4.3989411 48.854256,3.8832719 48.448041,3.5441528 47.231506,2.9627018 46.355594,2.5440542 45.685034,2.1554271 45.741377,2.0990857 c 0.19579,-0.1957888 3.356116,1.5419157 3.503695,1.9265066 0.08167,0.2128237 0.284578,0.3909135 0.450911,0.3957548 0.420976,0.012253 1.271307,0.7781608 1.835507,1.6532744 0.260996,0.4048196 0.575299,0.6737599 0.698455,0.5976453 0.564978,-0.3491748 1.170109,1.9282638 1.368025,5.1486112 0.111792,1.819011 0.28103,3.604948 0.376085,3.96875 0.09505,0.363802 0.206324,0.899584 0.247266,1.190625 0.04094,0.291042 0.204578,0.50083 0.363635,0.466195 0.159057,-0.03463 0.22121,0.114194 0.138118,0.330729 -0.08309,0.216536 -0.01928,0.393701 0.141814,0.393701 0.161092,0 0.292891,0.187324 0.292891,0.416276 0,0.253913 0.180594,0.381618 0.463021,0.32742 0.371552,-0.0713 0.471675,-0.393736 0.506828,-1.632177 0.09194,-3.239085 0.751853,-3.660364 2.023507,-1.291782 0.409419,0.762582 0.855903,1.386513 0.992187,1.386513 0.136284,0 0.24779,0.60234 0.24779,1.338532 0,0.82498 0.101513,1.275793 0.264584,1.17501 0.145521,-0.08994 0.264583,0.05782 0.264583,0.328343 0,0.270526 0.107413,0.604975 0.238694,0.743219 0.761881,0.80229 1.729602,6.206472 1.034455,5.776847 -0.118147,-0.07302 -0.216639,-0.03644 -0.218866,0.08129 -0.0021,0.117729 -0.101045,0.366913 -0.219591,0.553744 -0.283382,0.446608 -1.108001,0.1232 -0.92197,-0.361588 0.07914,-0.206237 0.02868,-0.374978 -0.112144,-0.374978 -0.140819,0 -0.329006,0.616106 -0.418189,1.369126 -0.08918,0.753018 -0.309079,1.459931 -0.488657,1.570916 -0.179578,0.110985 -0.331552,0.531641 -0.337722,0.934794 -0.0092,0.597914 -0.171953,0.779338 -0.883383,0.98442 -0.593217,0.171002 -0.825746,0.372387 -0.727027,0.629644 0.07983,0.208026 -0.174345,0.716728 -0.56483,1.130446 -0.883949,0.936546 -0.921385,1.106411 -0.970735,4.404564 -0.02215,1.479243 -0.119893,2.769362 -0.217244,2.86693 -0.324953,0.325683 -0.782918,-0.939954 -0.891225,-2.463004 -0.344797,-4.848651 -0.363932,-5.623986 -0.135303,-5.482685 0.14501,0.08962 0.181261,-0.24769 0.08823,-0.820984 -0.11276,-0.694865 -0.07132,-0.919588 0.144934,-0.785937 0.186951,0.115544 0.250015,0.04949 0.164793,-0.17259 -0.07593,-0.197871 0.04274,-1.126789 0.263705,-2.064263 0.220966,-0.937477 0.407302,-2.180752 0.41408,-2.762835 0.01101,-0.945625 0.05036,-1.008195 0.369496,-0.587537 0.321485,0.423762 0.373552,0.428099 0.521174,0.04341 0.0902,-0.235064 0.04837,-0.625517 -0.09296,-0.867672 -0.150842,-0.258457 -0.260281,-0.303699 -0.265004,-0.109552 -0.0044,0.181901 -0.113715,0.330729 -0.242864,0.330729 -0.197191,0 -0.943575,-4.559413 -0.952881,-5.820834 -0.0037,-0.502442 -1.115761,-1.753485 -1.350243,-1.519002 -0.09642,0.09642 -0.04108,1.077815 0.122984,2.180879 0.352713,2.371482 0.383077,3.83604 0.07953,3.83604 -0.120317,0 -0.166336,0.357188 -0.102261,0.79375 0.06407,0.436563 0.0038,0.79375 -0.134017,0.79375 -0.137785,0 -0.250518,0.337344 -0.250518,0.749652 0,0.416097 -0.255072,1.004726 -0.573262,1.322917 -0.315296,0.315296 -0.569479,0.722093 -0.564851,0.903994 0.0047,0.186298 0.178059,0.106439 0.396875,-0.182862 0.512183,-0.677164 0.492043,-0.383035 -0.05187,0.757566 -0.419912,0.880565 -1.147167,1.47742 -1.147167,0.941472 0,-0.139234 -0.4689,-0.328131 -1.042001,-0.419775 -1.106799,-0.176985 -1.390007,-0.514419 -1.162365,-1.384924 0.122249,-0.467485 0.332955,-0.531516 1.607558,-0.48854 0.973162,0.03281 1.505977,-0.06186 1.583055,-0.281271 0.08395,-0.238966 -0.293692,-0.330729 -1.361074,-0.330729 -1.587741,0 -1.744576,-0.182147 -1.195137,-1.388036 0.261676,-0.574318 0.405466,-0.611331 1.984375,-0.510793 1.591239,0.101322 1.702256,0.07187 1.702256,-0.451598 0,-0.484647 -0.155221,-0.55999 -1.153698,-0.55999 -1.857726,0 -3.608802,-0.312141 -3.608802,-0.643293 0,-0.168731 -0.535782,-1.401186 -1.190625,-2.738788 -0.654844,-1.337602 -1.190625,-2.552585 -1.190625,-2.699961 0,-0.147377 -0.104619,-0.267958 -0.232484,-0.267958 -0.127866,0 -0.373531,-0.34052 -0.545923,-0.75671 -0.40744,-0.983646 -1.996588,-2.728181 -3.273449,-3.59353 -3.250152,-2.202678 -7.564559,-2.466286 -11.187441,-0.683549 -2.204261,1.084666 -4.672142,3.658277 -5.144134,5.364518 -0.150956,0.545704 -0.375234,0.992188 -0.498396,0.992188 -0.123162,0 -0.426681,0.619874 -0.674487,1.377497 -0.247806,0.757624 -0.618698,1.617554 -0.824205,1.910955 -0.205506,0.293402 -0.373648,0.730208 -0.373648,0.97068 0,0.477574 -0.992936,0.767951 -2.625989,0.767951 -0.534789,0 -1.115219,0.142875 -1.289844,0.3175 -0.246944,0.246945 -0.321633,0.232246 -0.336096,-0.06614 -0.01157,-0.238617 -0.104557,-0.183606 -0.245987,0.14552 -0.210277,0.489341 -0.231147,0.479384 -0.277292,-0.132291 -0.04701,-0.623166 -0.06159,-0.615507 -0.251875,0.132291 -0.139531,0.54835 -0.211653,0.03227 -0.233279,-1.66926 -0.01722,-1.354656 0.05799,-2.408752 0.167133,-2.342434 0.109141,0.06632 0.205892,-0.581499 0.215002,-1.439593 0.0091,-0.858094 -0.05871,-1.560171 -0.150723,-1.560171 -0.210812,0 -1.305588,1.24636 -1.200226,1.366411 0.04286,0.04884 -0.08112,0.981766 -0.275527,2.073172 -0.194403,1.091407 -0.365732,2.69875 -0.380732,3.571875 -0.02103,1.22402 -0.08193,1.451546 -0.265994,0.993718 -0.212008,-0.527341 -0.314519,-0.559247 -0.916122,-0.285138 -0.818552,0.372957 -0.730993,0.87892 0.1521,0.87892 0.532833,0 0.676168,0.176403 0.859945,1.058334 0.121294,0.582083 0.336646,1.475052 0.47856,1.984375 0.141913,0.509323 0.288253,1.228735 0.325199,1.598692 0.03695,0.369959 0.133378,0.786677 0.214294,0.926041 0.577843,0.995246 0.475935,5.339678 -0.116663,4.973434 -0.178028,-0.110029 -0.210792,0.0982 -0.09414,0.598308 0.132136,0.56651 0.107937,0.6633 -0.09256,0.370192 -0.204338,-0.298728 -0.255399,-0.151638 -0.206475,0.594783 0.03575,0.545409 0.141556,0.991894 0.235128,0.992187 0.09357,2.65e-4 0.241036,0.185307 0.327698,0.411147 0.09035,0.235458 0.046,0.341662 -0.103984,0.248968 -0.143854,-0.08891 -0.261553,0.07076 -0.261553,0.354824 0,0.284062 -0.188331,0.588746 -0.418514,0.677075 -0.654169,0.251028 -0.713774,0.201541 -0.523588,-0.434714 z m 0.480827,-10.219063 c 0.10268,-0.392647 0.01289,-0.47022 -0.432162,-0.373351 -1.065908,0.232006 -1.2562,0.336995 -1.092093,0.602526 0.288807,0.467299 1.385232,0.30245 1.524255,-0.229175 z m 39.086391,-1.305927 c -0.0035,-0.38557 -0.0395,-0.392555 -0.260533,-0.05053 -0.334856,0.518153 -0.334856,0.868411 0,0.661459 0.145521,-0.08994 0.262761,-0.364855 0.260533,-0.610928 z M 14.147363,26.212362 c 0,-0.05719 -0.178594,-0.103984 -0.396875,-0.103984 -0.218281,0 -0.396875,0.115327 -0.396875,0.256281 0,0.140952 0.178594,0.187746 0.396875,0.103984 0.218281,-0.08376 0.396875,-0.199088 0.396875,-0.256281 z m 45.772916,-2.866494 c 0,-0.06417 -0.119062,-0.190261 -0.264583,-0.280198 -0.145521,-0.08994 -0.264584,-0.03743 -0.264584,0.116677 0,0.154109 0.119063,0.280198 0.264584,0.280198 0.145521,0 0.264583,-0.0525 0.264583,-0.116677 z M 22.268217,14.537893 c -0.06708,-0.257431 -0.126382,-0.110869 -0.131774,0.325694 -0.0054,0.436562 0.04949,0.647187 0.12197,0.468056 0.07248,-0.179132 0.07689,-0.536319 0.0098,-0.79375 z m 3.184571,0.562716 c -0.08792,-0.08792 -0.316122,-0.09732 -0.507118,-0.02089 -0.211067,0.08446 -0.148372,0.147157 0.159853,0.159853 0.278914,0.01149 0.435184,-0.05105 0.347265,-0.138965 z m 2.095431,-1.227216 c 0.47624,-0.326326 0.989623,-0.862107 1.140851,-1.190625 0.151228,-0.328519 0.407408,-0.882381 0.569289,-1.230806 0.370477,-0.797395 -0.05502,-2.2165004 -1.002045,-3.3419721 -0.700504,-0.8325014 -1.304689,-1.0572824 -1.048688,-0.3901535 0.104373,0.2719893 -0.01574,0.396875 -0.381706,0.396875 -0.840844,0 -2.007197,0.713648 -2.743005,1.6783418 -0.371324,0.4868318 -0.675135,0.9999818 -0.675135,1.1403338 0,0.140352 -0.187424,0.486301 -0.416496,0.768775 -0.229073,0.282475 -0.329739,0.346367 -0.223703,0.141982 0.131148,-0.25279 0.08936,-0.307682 -0.130709,-0.171675 -0.177925,0.109964 -0.260912,0.36304 -0.184414,0.56239 0.0765,0.199351 -0.03445,0.535991 -0.246546,0.748089 -0.53766,0.53766 -0.483993,0.688014 0.245582,0.688014 0.347168,0 0.972246,0.17786 1.389063,0.395244 1.118722,0.583454 2.692538,0.50076 3.707662,-0.194813 z m 20.07278,0.09917 c 0.675044,-0.306659 1.25364,-0.407752 1.5875,-0.277369 0.924131,0.360907 0.944364,0.26073 0.121295,-0.600533 -0.443029,-0.463585 -0.746665,-0.996218 -0.674748,-1.183627 0.07192,-0.18741 -0.01966,-0.43319 -0.203496,-0.546179 -0.183838,-0.11299 -0.601613,-0.645918 -0.928389,-1.184286 C 46.856035,9.0814693 45.4921,8.1272728 44.543217,8.0958234 c -0.346628,-0.011488 -0.481401,-0.080942 -0.2995,-0.1543405 0.181901,-0.073399 0.330729,-0.2425928 0.330729,-0.3759867 0,-0.3750537 -0.711933,-0.2865538 -1.140227,0.141741 -0.211352,0.2113516 -0.457983,0.3304141 -0.548066,0.2645833 -0.09009,-0.065831 -0.107778,-0.043835 -0.03932,0.048879 0.06846,0.092714 -0.11824,0.5094333 -0.414891,0.9260417 -0.29665,0.4166084 -0.467537,0.7574698 -0.379748,0.7574698 0.08779,0 0.03275,0.2370498 -0.122306,0.526778 -0.212474,0.397013 -0.179515,0.724808 0.133797,1.330686 0.228645,0.442151 0.342471,0.922426 0.252947,1.067279 -0.08952,0.144853 -0.06462,0.233924 0.05533,0.197936 0.119957,-0.03599 0.595897,0.318249 1.057648,0.787195 0.692007,0.702792 1.040728,0.851605 1.984375,0.846816 0.629655,-0.0032 1.622811,-0.222948 2.207009,-0.488338 z M 28.082085,6.951312 c 0,-0.2119997 -0.161073,-0.30984 -0.374962,-0.2277631 -0.308576,0.1184116 -0.312479,0.1834941 -0.02205,0.3675981 0.194103,0.1230413 0.362836,0.2255345 0.374962,0.2277628 0.01213,0.00222 0.02205,-0.1631907 0.02205,-0.3675978 z m -8.163498,23.738827 c 0.190996,-0.07643 0.419199,-0.06703 0.507118,0.02088 0.08792,0.08792 -0.06835,0.150452 -0.347266,0.138964 -0.308224,-0.0127 -0.370919,-0.07539 -0.159852,-0.159851 z M 31.132276,27.82817 c 0.0054,-0.436562 0.06469,-0.583126 0.131774,-0.325694 0.06708,0.257432 0.06267,0.614619 -0.0098,0.79375 -0.07248,0.179131 -0.127363,-0.03149 -0.121971,-0.468056 z M 25.189307,2.2630464 c 0.179476,-0.1808211 0.39297,-0.2621151 0.474432,-0.1806533 0.08146,0.081462 -0.06538,0.2294064 -0.326319,0.3287657 -0.377084,0.1435854 -0.407475,0.1131943 -0.148113,-0.1481124 z M 44.309863,1.7667113 c -0.352777,-0.2279825 -0.352777,-0.2564803 0,-0.2564803 0.218281,0 0.575468,0.1154161 0.79375,0.2564803 0.352777,0.2279825 0.352777,0.2564802 0,0.2564802 -0.218282,0 -0.575469,-0.115416 -0.79375,-0.2564802 z"
         id="path508" /><path
         style="fill:#dfc47a;stroke-width:0.264583"
         d="m 16.844777,38.14692 c 0.0054,-0.436562 0.06469,-0.583126 0.131773,-0.325694 0.06708,0.257432 0.06267,0.614619 -0.0098,0.79375 -0.07248,0.179131 -0.127363,-0.03149 -0.12197,-0.468056 z m 0.519362,-2.778125 c 0,-0.363802 0.06005,-0.51263 0.133452,-0.330729 0.0734,0.181901 0.0734,0.479557 0,0.661458 -0.0734,0.181901 -0.133452,0.03307 -0.133452,-0.330729 z m 36.512499,-3.439583 c 0,-0.363802 0.06005,-0.51263 0.133453,-0.330729 0.0734,0.181901 0.0734,0.479557 0,0.661458 -0.0734,0.181901 -0.133453,0.03307 -0.133453,-0.330729 z M 19.100951,30.59296 c 0.323379,-0.340299 0.63914,-0.565809 0.701691,-0.501131 0.06255,0.06467 -0.202034,0.343101 -0.587963,0.618725 l -0.701691,0.501134 z m 32.504932,-0.019 c 0.06359,-0.102883 -0.03396,-0.247362 -0.216768,-0.321061 -0.182808,-0.0737 -0.206306,-0.143402 -0.05222,-0.15489 0.154088,-0.01148 0.511275,0.150789 0.79375,0.360619 0.501007,0.37216 0.499454,0.380537 -0.06339,0.34195 -0.317341,-0.02175 -0.524959,-0.123732 -0.461372,-0.226618 z M 31.122472,29.018795 c 0,-0.363802 0.06005,-0.51263 0.133453,-0.330729 0.0734,0.181901 0.0734,0.479557 0,0.661458 -0.0734,0.181901 -0.133453,0.03307 -0.133453,-0.330729 z m 22.193307,-0.462632 c -0.649298,-0.327636 -1.030338,-0.595701 -0.846756,-0.595701 0.183581,0 0.70086,0.189822 1.149506,0.421825 0.674047,0.348565 0.854871,0.360053 1.041143,0.06615 0.123981,-0.195623 0.22542,-0.236617 0.22542,-0.0911 0,0.708051 -0.447726,0.764778 -1.569313,0.198826 z M 17.05778,28.78203 c 0,-0.12551 0.350723,-0.373478 0.779385,-0.551034 0.428662,-0.17756 0.83157,-0.519425 0.89535,-0.759704 0.08638,-0.325406 0.123795,-0.297484 0.146656,0.109437 0.0213,0.379055 -0.252817,0.681503 -0.89535,0.987907 -0.509323,0.242879 -0.926041,0.338907 -0.926041,0.213394 z m -0.751974,-0.821568 c 0,-0.363802 0.06005,-0.51263 0.133452,-0.330729 0.0734,0.181901 0.0734,0.479557 0,0.661458 -0.0734,0.181901 -0.133452,0.03307 -0.133452,-0.330729 z m 14.816666,-1.322917 c 0,-0.363802 0.06005,-0.51263 0.133453,-0.330729 0.0734,0.181901 0.0734,0.479557 0,0.661458 -0.0734,0.181901 -0.133453,0.03307 -0.133453,-0.330729 z M 16.041223,26.108378 c 0,-0.363802 0.06005,-0.51263 0.133452,-0.330729 0.0734,0.181901 0.0734,0.479558 0,0.661459 -0.0734,0.181901 -0.133452,0.03307 -0.133452,-0.33073 z m 37.020778,-0.683506 c 0.0127,-0.308225 0.07539,-0.37092 0.159851,-0.159853 0.07643,0.190996 0.06703,0.419198 -0.02088,0.507119 -0.08792,0.08792 -0.150452,-0.06835 -0.138964,-0.347266 z M 16.442406,24.782344 c 0.363589,-0.336118 1.493848,-0.612605 1.313875,-0.321403 -0.08883,0.143735 -0.469958,0.3203 -0.846945,0.392365 -0.376986,0.07207 -0.587105,0.04013 -0.46693,-0.07096 z m 37.789332,0.0031 c -0.348917,-0.149935 -0.393981,-0.232345 -0.132292,-0.241936 0.218281,-0.008 0.575469,0.100872 0.79375,0.241936 0.48365,0.312558 0.0659,0.312558 -0.661458,0 z m -0.874462,-0.661459 c 0.0054,-0.436562 0.06469,-0.583124 0.131773,-0.325693 0.06708,0.257431 0.06267,0.614618 -0.0098,0.79375 -0.07246,0.179131 -0.127349,-0.03149 -0.121957,-0.468057 z m 1.556809,-0.551215 c 0.0127,-0.308224 0.07539,-0.370919 0.15985,-0.159852 0.07643,0.190996 0.06703,0.419199 -0.02087,0.507118 -0.08792,0.08792 -0.150453,-0.06835 -0.138965,-0.347266 z M 16.305806,22.668795 c 0,-0.363802 0.06005,-0.51263 0.133452,-0.330729 0.0734,0.181901 0.0734,0.479557 0,0.661458 -0.0734,0.181901 -0.133452,0.03307 -0.133452,-0.330729 z m 1.342524,-0.529167 c 0,-0.509323 0.05445,-0.717682 0.121,-0.463021 0.06655,0.254662 0.06655,0.671381 0,0.926042 -0.06655,0.254662 -0.121,0.0463 -0.121,-0.463021 z m 37.001171,-0.683507 c 0.0127,-0.308224 0.07539,-0.370919 0.159851,-0.159852 0.07643,0.190996 0.06703,0.419199 -0.02088,0.507118 -0.08792,0.08792 -0.150452,-0.06835 -0.138964,-0.347266 z m -38.1,-0.79375 c 0.0127,-0.308224 0.07539,-0.370919 0.159853,-0.159852 0.07643,0.190996 0.06703,0.419199 -0.02089,0.507118 -0.08792,0.08792 -0.150453,-0.06835 -0.138965,-0.347266 z m 36.777084,-0.264583 c 0.0127,-0.308224 0.07539,-0.370919 0.15985,-0.159852 0.07643,0.190996 0.06703,0.419199 -0.02087,0.507118 -0.08792,0.08792 -0.150453,-0.06835 -0.138965,-0.347266 z M 17.893306,19.493795 c 0,-0.363802 0.06005,-0.51263 0.133452,-0.330729 0.0734,0.181901 0.0734,0.479557 0,0.661458 -0.0734,0.181901 -0.133452,0.03307 -0.133452,-0.330729 z m 35.189582,-1.058333 c 0,-0.363802 0.06006,-0.512631 0.133453,-0.33073 0.0734,0.181901 0.0734,0.479558 0,0.661459 -0.0734,0.181901 -0.133453,0.03307 -0.133453,-0.330729 z M 17.553197,17.575566 c 0.199719,-0.254662 0.46761,-0.463021 0.595313,-0.463021 0.127702,0 0.222787,0.208359 0.211298,0.463021 -0.01328,0.294453 -0.07081,0.338595 -0.158021,0.121248 -0.11207,-0.279307 -0.217056,-0.279307 -0.574425,0 -0.390721,0.305375 -0.398619,0.292462 -0.07417,-0.121248 z m 4.583246,-2.711979 c 0.0054,-0.436563 0.06469,-0.583125 0.131774,-0.325694 0.06708,0.257431 0.06267,0.614618 -0.0098,0.79375 -0.07248,0.179131 -0.127363,-0.03149 -0.121971,-0.468056 z m 2.809227,0.216134 c 0.190996,-0.07643 0.419199,-0.06703 0.507118,0.02089 0.08792,0.08792 -0.06835,0.150453 -0.347265,0.138964 -0.308225,-0.01269 -0.37092,-0.07539 -0.159853,-0.159852 z m 0.119393,-0.802869 c 0.402183,-0.06082 0.997496,-0.05919 1.322917,0.0036 0.325421,0.0628 -0.0036,0.11256 -0.731242,0.110574 -0.727604,-0.002 -0.993858,-0.05337 -0.591675,-0.114185 z m 19.84375,0 c 0.402183,-0.06082 0.997495,-0.05919 1.322917,0.0036 0.325421,0.0628 -0.0036,0.11256 -0.731242,0.110574 -0.727605,-0.002 -0.993857,-0.05337 -0.591675,-0.114185 z M 23.540071,13.937545 c -0.08994,-0.145521 -0.513682,-0.264583 -0.941656,-0.264583 -0.427975,0 -0.778135,-0.102552 -0.778135,-0.227894 0,-0.311238 1.335412,-0.04195 1.9771,0.398686 0.287041,0.197106 0.383364,0.358374 0.214052,0.358374 -0.169311,0 -0.381424,-0.119062 -0.471361,-0.264583 z m 19.818612,-0.330729 -0.504029,-0.595313 0.595313,0.504028 c 0.559445,0.473662 0.715761,0.686597 0.504028,0.686597 -0.05021,0 -0.318098,-0.26789 -0.595312,-0.595312 z m 5.845971,0.06615 c -0.291041,-0.125065 -0.435681,-0.23576 -0.321421,-0.245988 0.11426,-0.01023 0.07793,-0.286486 -0.08074,-0.613908 -0.242036,-0.499452 -0.232884,-0.531406 0.05683,-0.198438 0.189931,0.218281 0.562189,0.605235 0.827246,0.859896 0.517925,0.497614 0.362876,0.561458 -0.48192,0.198438 z M 28.170279,13.244934 c 0,-0.145521 0.174807,-0.495699 0.388461,-0.778174 0.213653,-0.282475 0.38846,-0.394528 0.38846,-0.249007 0,0.145521 -0.174807,0.495699 -0.38846,0.778174 -0.213654,0.282475 -0.388461,0.394528 -0.388461,0.249007 z m -8.202083,-0.574717 c 0,-0.472986 0.830517,-3.3533363 1.041568,-3.6123041 0.12539,-0.1538586 0.500926,-1.397504 0.834526,-2.763656 L 22.450833,3.810344 24.582952,2.8012075 c 1.172666,-0.5550249 2.608369,-1.074553 3.190452,-1.1545068 0.582084,-0.079954 0.911908,-0.076539 0.732943,0.00759 -0.178965,0.084128 -0.990241,1.5410578 -1.802836,3.237622 -0.812595,1.696564 -1.707966,3.2994249 -1.989713,3.5619127 -0.862223,0.8032827 -0.56955,1.0087283 0.450695,0.3163713 0.52963,-0.3594166 1.214239,-0.6482585 1.521354,-0.6418712 0.361657,0.00752 0.199983,0.1394031 -0.458882,0.3743209 -0.5595,0.1994892 -1.32284,0.6407478 -1.69631,0.9805741 -0.37347,0.3398266 -0.581911,0.4506423 -0.463201,0.2462573 0.149781,-0.2578804 0.11683,-0.3104206 -0.107665,-0.1716749 -0.177926,0.1099642 -0.266869,0.3475167 -0.197651,0.5278951 0.06922,0.180378 0.0066,0.495756 -0.139213,0.700841 -0.201996,0.284161 -0.224939,0.250505 -0.09643,-0.14145 0.167015,-0.509388 0.163112,-0.509388 -0.405961,0 -0.316029,0.282882 -0.96409,0.901285 -1.440136,1.374228 -0.800618,0.795398 -1.712206,1.141941 -1.712206,0.650901 z m 28.951944,-1.31236 c -0.955815,-0.963546 -1.393246,-1.278829 -1.193036,-0.859896 0.2896,0.605973 0.283126,0.620462 -0.07718,0.172721 -0.216315,-0.268806 -0.336526,-0.636684 -0.267139,-0.8175062 0.06939,-0.1808223 -0.08762,-0.4966716 -0.348901,-0.7018869 -0.441894,-0.3470685 -0.448244,-0.3361735 -0.09095,0.1560475 0.298535,0.4112705 0.30208,0.4560782 0.0159,0.2011159 C 46.756324,9.3280242 46.564872,9.0048968 46.533389,8.7903914 46.501906,8.5758857 46.252635,8.0686649 45.97945,7.6632338 45.70627,7.2578027 45.143152,6.1521801 44.728082,5.2062947 44.313009,4.2604093 43.743834,3.0400186 43.463246,2.4943155 42.861256,1.3235295 43.027681,1.2683488 44.975057,1.993056 c 2.667061,0.9925362 3.844972,1.7063239 3.978029,2.4105976 0.06966,0.3686921 0.603276,2.1586307 1.185823,3.9776412 1.606399,5.0160092 1.372057,5.5883372 -1.218769,2.9765622 z m -26.570694,0.743219 c 0,-0.136932 0.09922,-0.310289 0.220486,-0.385236 0.121268,-0.07495 0.220487,0.03709 0.220487,0.248969 0,0.211879 -0.09922,0.385236 -0.220487,0.385236 -0.121267,0 -0.220486,-0.112036 -0.220486,-0.248969 z m 25.832903,-0.414009 c -0.08344,-0.217446 -0.04341,-0.395356 0.08895,-0.395356 0.358656,0 0.581372,0.470191 0.303935,0.641657 -0.132646,0.08198 -0.309446,-0.02886 -0.392888,-0.246301 z M 28.560314,8.9608852 c -0.287845,-0.537056 -0.691795,-0.9764655 -0.897666,-0.9764655 -0.205872,0 -0.423922,-0.1488281 -0.484556,-0.3307291 -0.175952,-0.5278562 0.322906,-0.3832897 0.913004,0.2645833 0.600697,0.6595102 1.232546,1.7791026 1.086481,1.9251676 -0.05165,0.05165 -0.329418,-0.3455003 -0.617263,-0.8825563 z m 13.789505,0.081868 c 0.238371,-0.3638021 0.476689,-0.6614583 0.529592,-0.6614583 0.0529,0 -0.03943,0.2976562 -0.205189,0.6614583 -0.165762,0.3638021 -0.404077,0.6614583 -0.529596,0.6614583 -0.125515,0 -0.03318,-0.2976562 0.205193,-0.6614583 z M 45.235904,8.504031 C 44.799342,8.3041325 44.627757,8.1352087 44.854605,8.1286452 c 0.226849,-0.00656 0.643568,0.1628732 0.926042,0.3765267 0.627171,0.4743672 0.493114,0.4740865 -0.544743,-0.00114 z M 43.780696,7.7115325 c 0,-0.2137141 0.178594,-0.3885711 0.396875,-0.3885711 0.218281,0 0.396875,0.1063241 0.396875,0.2362758 0,0.1299517 -0.178594,0.3048088 -0.396875,0.3885711 -0.241752,0.092769 -0.396875,4.233e-4 -0.396875,-0.2362758 z M 27.685074,7.091147 c -0.29043,-0.184104 -0.286527,-0.2491865 0.02205,-0.3675981 0.213889,-0.082077 0.374962,0.015764 0.374962,0.2277631 0,0.2044071 -0.0099,0.3698262 -0.02205,0.3675978 -0.01213,-0.00222 -0.180859,-0.1047215 -0.374962,-0.2277628 z"
         id="path506" /><path
         style="fill:#b5a16f;stroke-width:0.264583"
         d="m 40.605696,48.201087 c 0.341776,-0.363802 0.68094,-0.661458 0.7537,-0.661458 0.07276,0 -0.147341,0.297656 -0.489117,0.661458 -0.341775,0.363802 -0.680939,0.661458 -0.7537,0.661458 -0.07276,0 0.147341,-0.297656 0.489117,-0.661458 z M 27.947473,43.306295 c 0,-0.363802 0.06005,-0.51263 0.133452,-0.330729 0.0734,0.181901 0.0734,0.479557 0,0.661459 -0.0734,0.181901 -0.133452,0.03307 -0.133452,-0.33073 z M 43.30311,42.11567 c 0.0054,-0.436562 0.06469,-0.583125 0.131773,-0.325694 0.06708,0.257432 0.06267,0.614619 -0.0098,0.79375 -0.07248,0.179131 -0.127363,-0.03149 -0.12197,-0.468056 z m -12.989153,-0.674687 0.02701,-1.177396 0.27911,0.871276 c 0.20377,0.63609 0.196479,0.953905 -0.02701,1.177395 -0.231772,0.231773 -0.299561,0.02016 -0.27911,-0.871275 z m 10.291739,0.309041 c 0,-0.436562 0.119062,-0.867333 0.264583,-0.95727 0.153932,-0.09513 0.264584,0.168436 0.264584,0.630229 0,0.436563 -0.119063,0.867334 -0.264584,0.957271 -0.153932,0.09513 -0.264583,-0.168437 -0.264583,-0.63023 z M 17.159405,38.956162 c -0.08757,-0.228206 -0.08785,-0.860833 -6.35e-4,-1.405832 0.531316,-3.319661 0.497467,-4.505344 -0.219109,-7.675044 -0.869208,-3.844856 -0.835357,-4.845208 0.173006,-5.11264 0.682371,-0.180974 0.735718,-0.123385 1.124479,1.213906 0.53787,1.850205 0.534959,1.867173 -0.385627,2.248493 -0.436562,0.18083 -0.79375,0.436457 -0.79375,0.568061 0,0.131603 0.351275,0.05763 0.780611,-0.164391 1.074536,-0.555665 1.187693,-0.523778 1.619036,0.456226 0.349101,0.793152 0.336398,0.90097 -0.163656,1.389062 -0.298173,0.291042 -0.334828,0.368121 -0.08145,0.171286 0.253373,-0.196834 0.616395,-0.295531 0.806717,-0.219326 0.260329,0.104238 0.264121,0.14373 0.01531,0.159443 -0.204662,0.01294 -0.330729,0.415431 -0.330729,1.055947 0,3.315706 -1.939267,8.89126 -2.544208,7.314809 z m 35.659013,-1.287185 c -0.649825,-1.736815 -1.100222,-4.106386 -1.100222,-5.788359 0,-0.840909 -0.112485,-1.275701 -0.330729,-1.278374 -0.247338,-0.003 -0.241639,-0.06052 0.0226,-0.22802 0.194331,-0.123182 0.33083,-0.305059 0.303332,-0.404172 -0.101412,-0.365525 0.607917,-1.744975 0.896794,-1.744017 0.164246,5.29e-4 0.674952,0.230454 1.134901,0.51091 l 0.836272,0.509921 -0.398204,1.358403 c -0.394147,1.344562 -0.365995,4.508949 0.06533,7.343214 0.153752,1.010319 0.116512,1.124479 -0.366824,1.124479 -0.407291,0 -0.665527,-0.340992 -1.063244,-1.403985 z m -0.438764,-7.062682 c -0.08994,-0.145521 -0.282583,-0.264583 -0.428104,-0.264583 -0.14552,0 -0.191,0.119062 -0.101062,0.264583 0.08994,0.145521 0.282582,0.264583 0.428103,0.264583 0.145521,0 0.191,-0.119062 0.101063,-0.264583 z m -7.49885,6.085417 c 0,-0.363802 0.06006,-0.51263 0.133454,-0.330729 0.0734,0.181901 0.0734,0.479557 0,0.661458 -0.0734,0.181901 -0.133454,0.03307 -0.133454,-0.330729 z m -15.334691,-0.05292 c -0.460754,-0.460753 -0.389869,-0.948068 0.182461,-1.254368 0.410141,-0.219504 0.528325,-0.161759 0.657845,0.321418 0.329887,1.230649 -0.08357,1.689688 -0.840306,0.93295 z M 40.786282,36.36098 c 0.280839,-1.275784 0.297212,-1.293337 0.871744,-0.934535 0.644178,0.402296 0.662281,0.57119 0.119396,1.114073 -0.621731,0.621731 -1.146593,0.526656 -0.99114,-0.179538 z M 29.073113,34.901724 c -0.389335,-0.262975 -0.644551,-1.349889 -0.358478,-1.526691 0.36349,-0.22465 1.312859,0.878779 1.141128,1.326303 -0.170873,0.445286 -0.351574,0.491554 -0.78265,0.200388 z m 12.422001,-0.194419 c -0.185576,-0.4836 0.816091,-1.689944 1.136867,-1.369168 0.259358,0.259355 -0.229891,1.565108 -0.637082,1.70031 -0.181825,0.06037 -0.406728,-0.08864 -0.499785,-0.331142 z M 30.920247,31.510308 c 0.338166,-0.881248 0.492588,-4.827466 0.219556,-5.610689 l -0.278792,-0.799743 1.366613,0.612035 c 1.155396,0.51744 1.735113,0.601472 3.750867,0.543697 1.58148,-0.04533 2.668344,-0.215246 3.228006,-0.504658 0.464066,-0.239977 0.879433,-0.435952 0.923039,-0.435501 0.04361,4.5e-4 0.08054,1.467262 0.08208,3.259579 l 0.0028,3.258757 -1.814076,-0.613744 c -2.288829,-0.774366 -3.288149,-0.765061 -5.599846,0.05214 -2.196893,0.776618 -2.08126,0.761974 -1.880241,0.238128 z m 22.517741,-3.198474 c -0.436563,-0.231656 -0.818706,-0.44036 -0.849204,-0.463786 -0.0305,-0.02341 0.189423,-0.811387 0.488714,-1.751026 0.464963,-1.45977 0.523542,-2.151615 0.40245,-4.753261 -0.07795,-1.674653 -0.221308,-3.252232 -0.318585,-3.505729 -0.09728,-0.253497 -0.05863,-0.460904 0.08588,-0.460904 0.460495,0 1.088621,1.696588 1.378707,3.723932 0.154609,1.080535 0.34363,2.355365 0.420045,2.832953 0.133067,0.831666 0.107627,0.862332 -0.602245,0.726022 l -0.741177,-0.142322 0.727604,0.288214 c 0.817647,0.323882 0.945819,1.16753 0.449109,2.956097 -0.310647,1.118585 -0.344842,1.131628 -1.441296,0.54981 z M 16.269271,24.308677 c 0.02534,-2.171834 0.937191,-6.241399 1.503869,-6.7117 0.333928,-0.277136 0.35581,-0.0591 0.16546,1.648618 -0.120649,1.082395 -0.195746,2.643097 -0.166882,3.468227 0.05044,1.441885 0.02214,1.510812 -0.727604,1.772174 -0.664745,0.231731 -0.779309,0.205514 -0.774843,-0.177319 z m 13.190176,-1.838319 c -0.329107,-0.419644 -0.319749,-0.429003 0.0999,-0.0999 0.254661,0.199719 0.463021,0.408078 0.463021,0.463021 0,0.217761 -0.217272,0.0776 -0.562916,-0.363126 z m 5.907499,-1.706563 c -0.550153,-0.550154 -0.348866,-1.46115 0.47625,-2.15544 0.789966,-0.664714 1.033447,-1.231227 0.529167,-1.231227 -0.145521,0 -0.264584,0.119063 -0.264584,0.264584 0,0.14552 -0.238125,0.264583 -0.529166,0.264583 -0.63305,0 -0.690584,-0.594535 -0.113393,-1.171726 0.561602,-0.561603 1.064543,-0.522958 1.719636,0.132135 0.466217,0.466217 0.531156,0.791673 0.435557,2.182813 -0.09921,1.443658 -0.177128,1.635833 -0.666099,1.64285 -0.304562,0.0044 -0.639469,0.09367 -0.744239,0.198437 -0.269272,0.269273 -0.47834,0.237779 -0.843129,-0.127009 z m 1.27,-1.285615 c 0,-0.29963 -0.119062,-0.471197 -0.264583,-0.38126 -0.145521,0.08994 -0.264584,0.335088 -0.264584,0.544782 0,0.209693 0.119063,0.38126 0.264584,0.38126 0.145521,0 0.264583,-0.245152 0.264583,-0.544782 z m 3.935,-1.770323 c -0.329108,-0.419644 -0.319749,-0.429002 0.0999,-0.09989 0.254661,0.199719 0.463021,0.408078 0.463021,0.46302 0,0.217762 -0.217274,0.0776 -0.562917,-0.363126 z m -9.094375,-1.124479 c 0.263389,-0.291041 0.538421,-0.529166 0.611181,-0.529166 0.07276,0 -0.08321,0.238125 -0.346598,0.529166 -0.263389,0.291042 -0.53842,0.529167 -0.61118,0.529167 -0.07276,0 0.08321,-0.238125 0.346597,-0.529167 z m -6.35,-2.628994 c 1.899872,-0.32584 3.836458,-1.76498 3.836458,-2.850998 0,-0.648944 -1.490154,-1.9283412 -2.245999,-1.9283412 -1.036811,0 -1.573971,0.3798347 -2.487427,1.7589022 -0.845439,1.27638 -1.022606,2.128859 -0.55824,2.686098 0.192424,0.230909 0.177992,0.245341 -0.05292,0.05292 -0.174625,-0.145521 -0.58222,-0.264584 -0.905768,-0.264584 -0.561447,0 -0.539006,-0.08509 0.492208,-1.866244 1.221657,-2.1100997 1.936048,-2.7728598 3.419418,-3.1722899 0.690367,-0.1858965 0.968554,-0.3831791 0.840712,-0.5962097 -0.105253,-0.1753878 0.01926,-0.1475986 0.277239,0.061874 0.257567,0.2091405 0.76184,0.9595213 1.120607,1.667513 l 0.652302,1.2872576 -0.825545,1.442902 c -0.995142,1.739327 -1.39274,1.978736 -3.214925,1.93583 -1.394421,-0.03283 -1.3974,-0.03467 -0.348123,-0.214627 z m 18.204916,-0.626516 c -0.422188,-0.480844 -0.927989,-1.261444 -1.124003,-1.734666 -0.32194,-0.777231 -0.296786,-0.987666 0.260199,-2.1768541 0.613516,-1.3098833 1.312013,-2.1710907 1.312013,-1.6176392 0,0.1517766 0.332229,0.3489275 0.738288,0.438113 1.461339,0.3209636 2.389436,1.1497186 3.461316,3.0908143 l 1.058109,1.916162 -1.070251,0.479165 c -0.596656,0.267131 -1.689274,0.479165 -2.469155,0.479165 -1.251706,0 -1.479677,-0.09199 -2.166516,-0.87426 z m 4.169769,0.335784 c 0.623472,-0.333672 0.644671,-0.811449 0.08528,-1.922059 -1.325975,-2.6325615 -3.130349,-3.2745947 -4.575902,-1.628199 -0.917213,1.044648 -0.87057,1.331102 0.415565,2.552208 1.243139,1.180283 2.952361,1.5989 4.075059,0.99805 z m -3.933227,-1.631107 c -0.433625,-0.433627 -0.401129,-1.27 0.04935,-1.27 0.205327,0 0.418137,0.349477 0.483344,0.79375 0.124766,0.850096 -0.02498,0.983969 -0.532689,0.47625 z m -18.25625,0 c -0.453509,-0.45351 -0.39244,-1.27 0.09499,-1.27 0.22687,0 0.340426,0.116602 0.252348,0.259115 -0.08808,0.142514 -0.03138,0.499701 0.125986,0.79375 0.314296,0.587268 0.0281,0.718559 -0.473324,0.217135 z"
         id="path504" /><path
         style="fill:#6c4745;stroke-width:0.264583"
         d="m 30.394099,48.00265 -0.504028,-0.595313 0.595313,0.504029 c 0.327421,0.277214 0.595312,0.545105 0.595312,0.595312 0,0.211733 -0.212935,0.05542 -0.686597,-0.504028 z m 2.935555,0.343849 c -0.919029,-0.378473 -1.810003,-1.926851 -2.732257,-4.748246 -0.161565,-0.494269 -0.211874,-1.03005 -0.111797,-1.190626 0.100077,-0.160575 0.197125,-1.363519 0.215661,-2.673207 0.01854,-1.309687 0.179606,-2.902093 0.357931,-3.538677 0.178326,-0.636588 0.345413,-1.908326 0.371304,-2.826087 l 0.04707,-1.668655 1.688218,-0.556877 c 0.928519,-0.306284 1.714072,-0.522827 1.745674,-0.481208 0.0316,0.04162 -0.05236,1.206765 -0.186587,2.589213 -0.467709,4.817186 0.04083,9.921875 0.988439,9.921875 0.548582,0 1.019786,-2.162599 1.037696,-4.7625 0.02817,-4.089004 -0.188545,-7.540626 -0.473446,-7.540626 -0.141888,0 -0.187354,-0.07062 -0.101034,-0.156948 0.08632,-0.08632 1.019456,0.115266 2.073633,0.447969 1.054176,0.332703 1.796192,0.645078 1.648923,0.694169 -0.27903,0.09301 0.07172,3.163117 0.787704,6.894769 0.203335,1.059757 0.268269,1.989519 0.144301,2.066137 -0.123968,0.07661 -0.225396,0.496488 -0.225396,0.93305 0,0.538657 0.09948,0.732269 0.309547,0.60244 0.218072,-0.134776 0.248401,-0.04166 0.102626,0.315117 -0.113805,0.278532 -0.353615,1.042204 -0.532913,1.697048 -0.463322,1.692174 -1.058786,2.742721 -2.006724,3.540358 -0.726697,0.611476 -1.046766,0.691004 -2.721483,0.676203 -1.043861,-0.0092 -2.136053,-0.114834 -2.427095,-0.234691 z m -5.382181,-6.098537 c 0,-0.363802 0.06005,-0.51263 0.133452,-0.330729 0.0734,0.181901 0.0734,0.479557 0,0.661458 -0.0734,0.181901 -0.133452,0.03307 -0.133452,-0.330729 z m 2.116666,-0.79375 c 0,-0.363802 0.06005,-0.51263 0.133452,-0.330729 0.0734,0.181901 0.0734,0.479557 0,0.661458 -0.0734,0.181901 -0.133452,0.03307 -0.133452,-0.330729 z m -3.704166,-4.497917 c 0,-0.363802 0.06005,-0.51263 0.133452,-0.330729 0.0734,0.181901 0.0734,0.479557 0,0.661458 -0.0734,0.181901 -0.133452,0.03307 -0.133452,-0.330729 z m 2.604056,-1.042717 c 0,-0.136933 0.117699,-0.321713 0.261553,-0.410618 0.149982,-0.09269 0.194339,0.01352 0.103984,0.248968 -0.175892,0.458369 -0.365537,0.542234 -0.365537,0.16165 z M 27.0458,33.0769 c 0.181901,-0.0734 0.479558,-0.0734 0.661459,0 0.181901,0.0734 0.03307,0.133453 -0.33073,0.133453 -0.363802,0 -0.51263,-0.06005 -0.330729,-0.133453 z m 16.541493,-0.0081 c 0.257432,-0.06708 0.61462,-0.06267 0.79375,0.0098 0.179131,0.07248 -0.03149,0.127362 -0.468055,0.12197 -0.436563,-0.0054 -0.583126,-0.06469 -0.325695,-0.131773 z m -9.789582,-6.879167 c 0.257431,-0.06708 0.614618,-0.06267 0.793749,0.0098 0.179131,0.07248 -0.03149,0.127363 -0.468056,0.121971 -0.436562,-0.0054 -0.583124,-0.06469 -0.325693,-0.131773 z m 2.910416,0 c 0.257432,-0.06708 0.614619,-0.06267 0.79375,0.0098 0.179131,0.07248 -0.03149,0.127363 -0.468056,0.121971 -0.436562,-0.0054 -0.583126,-0.06469 -0.325694,-0.131773 z m -1.179124,-0.261969 c 0.190995,-0.07643 0.419198,-0.06703 0.507119,0.02088 0.08792,0.08792 -0.06835,0.150453 -0.347265,0.138965 -0.308227,-0.0127 -0.37092,-0.07539 -0.159854,-0.159851 z m 0.7243,-5.080063 c 0.215347,-0.21535 1.441976,-0.189195 1.441976,0.03074 0,0.116258 -0.352094,0.184549 -0.782431,0.151758 -0.430337,-0.03279 -0.72713,-0.114918 -0.659545,-0.182505 z m 1.198282,-0.978955 c 0.0127,-0.308224 0.07539,-0.370919 0.159851,-0.159852 0.07643,0.190996 0.06703,0.419199 -0.02088,0.507118 -0.08792,0.08792 -0.150453,-0.06835 -0.138965,-0.347266 z m -2.060832,-1.080383 c 0.457528,-0.531446 0.455285,-0.5549 -0.06615,-0.691257 -0.296859,-0.07763 -0.530344,-0.301121 -0.518855,-0.496645 0.01572,-0.267353 0.05398,-0.273495 0.154339,-0.02477 0.0734,0.181901 0.411266,0.33073 0.750813,0.33073 0.339548,0 0.677416,-0.148829 0.750814,-0.33073 0.08988,-0.222757 0.135493,-0.201163 0.1397,0.06615 0.0034,0.218281 -0.374116,0.689322 -0.839007,1.046756 -0.679895,0.522742 -0.752605,0.54226 -0.371658,0.09977 z m 1.709214,-1.984377 c -0.254662,-0.266788 -0.358537,-0.485069 -0.230833,-0.485069 0.266848,0 0.954,0.765225 0.797703,0.888338 -0.05712,0.04499 -0.312209,-0.13648 -0.56687,-0.403269 z m 2.678229,0.110243 c -0.329108,-0.419644 -0.319749,-0.429002 0.0999,-0.09989 0.254661,0.199719 0.463021,0.408078 0.463021,0.46302 0,0.217762 -0.217274,0.0776 -0.562917,-0.363126 z m -5.836693,-1.569803 c 0.190995,-0.07643 0.419198,-0.06703 0.507119,0.02089 0.08792,0.08792 -0.06835,0.150453 -0.347265,0.138965 -0.308226,-0.0127 -0.37092,-0.07539 -0.159854,-0.159853 z m -10.302889,-1.86978 c -0.335893,-0.428296 -0.32344,-0.433911 0.166041,-0.07487 0.291041,0.213484 0.578776,0.421844 0.639409,0.463021 0.06063,0.04118 -0.01409,0.07487 -0.166041,0.07487 -0.151956,0 -0.43969,-0.20836 -0.639409,-0.463021 z m 4.267082,-0.992188 c 0.341774,-0.363802 0.680939,-0.661458 0.7537,-0.661458 0.07276,0 -0.147342,0.297656 -0.489117,0.661458 -0.341774,0.363803 -0.680939,0.661459 -0.753699,0.661459 -0.07276,0 0.147342,-0.297656 0.489116,-0.661459 z m -2.028472,-0.252944 c 0,-0.21188 0.09922,-0.323916 0.220486,-0.248969 0.121267,0.07495 0.220486,0.248304 0.220486,0.385237 0,0.136932 -0.09922,0.248968 -0.220486,0.248968 -0.121267,0 -0.220486,-0.173356 -0.220486,-0.385236 z m 18.256249,0 c 0,-0.21188 0.09922,-0.323916 0.220488,-0.248969 0.121266,0.07495 0.220485,0.248304 0.220485,0.385237 0,0.136932 -0.09922,0.248968 -0.220485,0.248968 -0.121269,0 -0.220488,-0.173356 -0.220488,-0.385236 z M 28.012849,9.9026489 27.508821,9.3073364 28.104134,9.8113645 c 0.559447,0.4736615 0.715761,0.6865965 0.504028,0.6865965 -0.05021,0 -0.318097,-0.26789 -0.595313,-0.5953121 z m -3.282153,0.2308341 c 0,-0.05494 0.20836,-0.2633013 0.463021,-0.4630205 0.419644,-0.3291075 0.429002,-0.3197492 0.0999,0.099895 -0.345644,0.4407285 -0.562916,0.5808865 -0.562916,0.3631255 z m 0.926042,-0.1646882 c 0.08994,-0.1455209 0.424385,-0.2627601 0.743219,-0.2605318 0.471285,0.00329 0.505476,0.052017 0.182822,0.2605318 -0.521259,0.3368642 -1.134235,0.3368642 -0.926041,0 z m 18.21897,0.081376 c 0.100764,-0.1007652 0.448029,-0.2201611 0.771702,-0.2653252 0.467016,-0.065166 0.506571,-0.028184 0.191619,0.1791557 -0.4494,0.2958515 -1.244086,0.3669355 -0.963321,0.08617 z"
         id="path502" /><path
         style="fill:#603736;stroke-width:0.264583"
         d="m 34.718717,48.671146 c 0.472943,-0.05869 1.246849,-0.05869 1.719792,0 0.472942,0.05869 0.08599,0.106714 -0.859896,0.106714 -0.945886,0 -1.332839,-0.04802 -0.859896,-0.106714 z m 3.902604,-0.866934 c 0.26339,-0.291042 0.538422,-0.529167 0.611182,-0.529167 0.07276,0 -0.08321,0.238125 -0.346599,0.529167 -0.26339,0.291042 -0.538421,0.529167 -0.611182,0.529167 -0.07276,0 0.08321,-0.238125 0.346599,-0.529167 z m -6.780624,-0.727604 c -0.329107,-0.419645 -0.319749,-0.429003 0.0999,-0.0999 0.254661,0.199721 0.463021,0.40808 0.463021,0.463021 0,0.217762 -0.217272,0.07761 -0.562916,-0.363125 z m -0.717022,-1.268103 c -0.443306,-0.97295 -0.358731,-1.180515 0.120612,-0.296005 0.223843,0.413046 0.357479,0.800502 0.296969,0.861012 -0.06051,0.06051 -0.248421,-0.193741 -0.417581,-0.565007 z m -0.551257,-1.862799 c 0.01269,-0.308226 0.07539,-0.370919 0.159852,-0.159853 0.07643,0.190994 0.06703,0.419198 -0.02089,0.507119 -0.08792,0.08792 -0.150453,-0.06835 -0.138964,-0.347266 z m 4.781042,-0.988774 c -0.59763,-0.720101 -0.882528,-3.50982 -0.792025,-7.755478 0.05013,-2.351455 0.170265,-4.22752 0.266975,-4.169034 0.09671,0.05849 0.222044,-0.03227 0.278514,-0.201681 0.137777,-0.41333 1.481328,-0.06999 1.442487,0.368625 -0.01622,0.183134 0.06126,2.237973 0.172181,4.566306 0.162462,3.410376 0.125039,4.511017 -0.192506,5.661745 -0.462648,1.676564 -0.746789,2.046235 -1.175626,1.529517 z m -4.967484,-2.684616 c -0.08192,-0.213482 -0.09789,-0.540904 -0.03548,-0.727605 0.06241,-0.1867 0.17619,-0.01204 0.252851,0.388147 0.149685,0.781373 0.02621,0.974206 -0.217372,0.339458 z m 10.240609,-1.618277 c 0.0127,-0.308226 0.07539,-0.370919 0.159851,-0.159853 0.07643,0.190995 0.06703,0.419198 -0.02088,0.507119 -0.08792,0.08792 -0.150453,-0.06835 -0.138965,-0.347266 z M 30.572418,38.124873 c 0.01269,-0.308227 0.07539,-0.37092 0.159852,-0.159854 0.07643,0.190995 0.06703,0.419198 -0.02089,0.507119 -0.08792,0.08792 -0.150453,-0.06835 -0.138964,-0.347265 z m 9.789584,-1.058334 c 0.0127,-0.308226 0.07539,-0.370919 0.15985,-0.159853 0.07643,0.190995 0.06703,0.419198 -0.02088,0.507119 -0.08792,0.08792 -0.150453,-0.06835 -0.138965,-0.347266 z m -9.802369,0.02205 c 0,-0.145521 0.115416,-0.443177 0.25648,-0.661458 0.141064,-0.218282 0.25648,-0.277813 0.25648,-0.132292 0,0.145521 -0.115416,0.443177 -0.25648,0.661458 -0.141064,0.218282 -0.25648,0.277813 -0.25648,0.132292 z m 9.558671,-1.455208 c 0,-0.363803 0.06006,-0.512631 0.133454,-0.33073 0.0734,0.181901 0.0734,0.479558 0,0.661459 -0.0734,0.181901 -0.133454,0.03307 -0.133454,-0.330729 z m -8.995832,-0.529167 c 0,-0.363802 0.06005,-0.51263 0.133453,-0.330729 0.0734,0.181901 0.0734,0.479557 0,0.661458 -0.0734,0.181901 -0.133453,0.03307 -0.133453,-0.330729 z m 10.276974,-0.01562 c 0,-0.154109 0.119062,-0.206613 0.264583,-0.116676 0.145521,0.08994 0.264584,0.216027 0.264584,0.280199 0,0.06417 -0.119063,0.116676 -0.264584,0.116676 -0.145521,0 -0.264583,-0.12609 -0.264583,-0.280199 z m -1.566611,-1.197057 c 0.0127,-0.308226 0.07539,-0.370919 0.159851,-0.159853 0.07643,0.190995 0.06703,0.419198 -0.02088,0.507119 -0.08792,0.08792 -0.150453,-0.06835 -0.138965,-0.347266 z m -8.426171,-0.903994 c 0,-0.509323 0.05445,-0.717682 0.121,-0.463021 0.06655,0.254662 0.06655,0.671381 0,0.926042 -0.06655,0.254661 -0.121,0.0463 -0.121,-0.463021 z m 8.832079,-8.779663 c 0.07641,-0.123641 0.249769,-0.156302 0.385236,-0.07258 0.346175,0.213949 0.307197,0.297382 -0.138936,0.297382 -0.211881,0 -0.322715,-0.101161 -0.2463,-0.224802 z m 1.160703,-4.465119 c 0,-0.154109 0.119062,-0.206613 0.264583,-0.116676 0.145521,0.08994 0.264584,0.216026 0.264584,0.280198 0,0.06417 -0.119063,0.116677 -0.264584,0.116677 -0.145521,0 -0.264583,-0.12609 -0.264583,-0.280199 z M 29.926683,18.832337 c 0.08376,-0.218282 0.273197,-0.396875 0.420968,-0.396875 0.154861,0 0.129147,0.168118 -0.0607,0.396875 -0.181157,0.218281 -0.370593,0.396875 -0.420968,0.396875 -0.05037,0 -0.02306,-0.178594 0.06071,-0.396875 z m 7.840658,-0.661459 c 0,-0.654844 0.0516,-0.922734 0.114663,-0.595312 0.06307,0.327422 0.06307,0.863203 0,1.190625 -0.06306,0.327422 -0.114663,0.05953 -0.114663,-0.595313 z m -6.951228,-0.637365 c 0,-0.05037 0.178594,-0.239811 0.396875,-0.420968 0.228757,-0.189852 0.396875,-0.215566 0.396875,-0.06071 0,0.147771 -0.178594,0.337206 -0.396875,0.420968 -0.218281,0.08376 -0.396875,0.11108 -0.396875,0.0607 z m 3.96875,-0.405353 c 0,-0.136933 0.1177,-0.32171 0.261554,-0.410617 0.149981,-0.09269 0.194336,0.01351 0.103983,0.248968 -0.175892,0.458369 -0.365537,0.542234 -0.365537,0.161649 z m -2.540346,-0.875511 c -0.10468,-0.181901 -0.0916,-0.241172 0.02906,-0.131714 0.120662,0.109458 0.467173,-0.0096 0.770024,-0.264584 0.550193,-0.463223 0.550231,-0.463117 0.04661,0.131715 -0.588111,0.694623 -0.596675,0.697302 -0.845693,0.264583 z m 2.490736,-0.908345 c 0.190995,-0.07643 0.419198,-0.06703 0.507119,0.02089 0.08792,0.08792 -0.06835,0.150453 -0.347265,0.138965 -0.308227,-0.0127 -0.37092,-0.07539 -0.159854,-0.159853 z M 24.66455,13.762316 c 0.181901,-0.0734 0.479558,-0.0734 0.661459,0 0.181901,0.0734 0.03307,0.133452 -0.330729,0.133452 -0.363803,0 -0.512631,-0.06005 -0.33073,-0.133452 z m 21.43125,0 c 0.181901,-0.0734 0.479557,-0.0734 0.661458,0 0.181901,0.0734 0.03307,0.133452 -0.330729,0.133452 -0.363802,0 -0.51263,-0.06005 -0.330729,-0.133452 z m 1.212673,-0.442132 c 0,-0.194028 0.156861,-0.352778 0.348578,-0.352778 0.260482,0 0.274584,0.08916 0.0558,0.352778 -0.161028,0.194028 -0.317889,0.352778 -0.348578,0.352778 -0.03069,0 -0.0558,-0.15875 -0.0558,-0.352778 z M 28.584165,10.840102 c -0.143585,-0.377084 -0.113194,-0.407475 0.148113,-0.148113 0.180821,0.179476 0.262115,0.39297 0.180653,0.474432 -0.08146,0.08146 -0.229406,-0.06538 -0.328766,-0.326319 z"
         id="path500" /><path
         style="fill:#2e2f31;stroke-width:0.264583"
         d="m 33.460233,49.673668 c -2.951681,-0.897861 -4.876635,-3.433469 -5.320447,-7.008254 -0.15425,-1.242444 -0.485513,-2.390836 -0.897557,-3.111572 -0.359191,-0.628285 -0.65451,-1.567108 -0.656263,-2.086274 -0.0017,-0.519163 -0.229893,-1.807443 -0.506979,-2.862842 -0.457869,-1.743985 -0.463898,-1.903465 -0.06615,-1.749515 1.306625,0.50573 2.324071,0.350316 5.087986,-0.777187 0.36707,-0.149741 0.391679,0.04502 0.205503,1.626476 -0.116326,0.988123 -0.293529,2.094243 -0.393785,2.458045 l -0.182283,0.661459 -0.164609,-0.79375 c -0.107117,-0.516525 -0.316863,-0.781963 -0.600543,-0.76 -0.356981,0.02764 -0.38142,-0.05354 -0.134939,-0.44822 0.240166,-0.384567 0.201507,-0.591905 -0.191289,-1.025938 -0.99128,-1.095354 -1.676423,-0.277828 -0.807199,0.963163 0.218252,0.311597 0.328108,0.745604 0.244126,0.964456 -0.176818,0.460783 0.756633,1.497164 1.34847,1.497164 0.279018,0 0.362074,0.182033 0.27162,0.595312 -0.605931,2.768465 -0.644804,3.701227 -0.231724,5.560277 0.512035,2.304397 1.089046,3.507153 2.179521,4.543134 0.66932,0.635871 1.100759,0.797319 2.377442,0.889667 3.090222,0.223528 4.349901,-0.777219 5.50205,-4.371078 0.656749,-2.048571 0.698,-3.375438 0.195596,-6.291271 -0.117313,-0.680844 -0.01796,-0.860282 0.698453,-1.26147 0.648745,-0.363296 0.801899,-0.59514 0.685974,-1.038434 -0.08462,-0.323588 0.0034,-0.693899 0.203219,-0.855196 0.561102,-0.45288 0.774634,-1.739691 0.288681,-1.739691 -0.551423,0 -1.520073,1.012068 -1.30371,1.362149 0.09671,0.156482 0.05938,0.3605 -0.08297,0.453368 -0.142343,0.09287 -0.373282,0.518256 -0.513197,0.945299 -0.227219,0.693512 -0.291131,0.529476 -0.598405,-1.535886 -0.189209,-1.27178 -0.282247,-2.374098 -0.206748,-2.449597 0.0755,-0.0755 0.487537,0.04386 0.915641,0.265242 1.404392,0.726239 3.142792,1.044922 4.0241,0.737696 0.896821,-0.312632 0.912853,-0.281983 0.532019,1.017225 -0.149013,0.508362 -0.392797,1.782627 -0.541739,2.831698 -0.148945,1.049073 -0.549122,2.418291 -0.889283,3.042708 -0.377833,0.693571 -0.671883,1.777251 -0.755743,2.785171 -0.263483,3.166912 -2.350916,6.020258 -4.974169,6.799281 -1.461662,0.434065 -3.613804,0.509963 -4.740676,0.167185 z M 32.877576,25.846862 c -1.25929,-0.379605 -2.295454,-1.305268 -2.568655,-2.294722 -0.143652,-0.520263 -0.461503,-1.167282 -0.706337,-1.43782 -0.568281,-0.627943 -0.354023,-2.193726 0.411721,-3.008823 0.298136,-0.317351 0.475174,-0.643891 0.393419,-0.725646 -0.08176,-0.08175 0.131845,-0.370578 0.474667,-0.64183 0.342821,-0.271251 0.706341,-0.711445 0.807822,-0.978207 0.101481,-0.266763 0.333277,-0.430746 0.515101,-0.364406 0.181825,0.06634 0.590854,-0.115942 0.908953,-0.40507 0.467888,-0.425274 0.96519,-0.528181 2.60349,-0.538738 1.113819,-0.0072 2.103713,0.09571 2.199762,0.228635 0.09605,0.132927 0.353229,0.241685 0.57151,0.241685 0.218282,0 0.36416,0.157678 0.324173,0.350396 -0.03998,0.192717 0.03045,0.286647 0.156514,0.208733 0.365977,-0.226186 1.989572,1.596343 1.757135,1.972432 -0.123534,0.199882 -0.09426,0.261174 0.07482,0.156672 0.29782,-0.184064 0.715888,0.536402 0.627901,1.082079 -0.02933,0.181901 0.05805,0.33073 0.194172,0.33073 0.541872,0 0.607888,1.405509 0.09843,2.095674 -0.277069,0.375348 -0.655063,1.141674 -0.839986,1.702947 -0.285115,0.865373 -0.558797,1.122394 -1.800444,1.69084 -1.306259,0.598024 -1.615536,0.642916 -2.866782,0.416121 -0.771406,-0.139825 -1.342197,-0.156562 -1.268426,-0.03719 0.167667,0.271293 -1.112745,0.24376 -2.068968,-0.04449 z m 2.411993,-7.122355 c -38.5261982,-29.3195 -19.263099,-14.6597501 0,0 z m 0.950502,0.769288 c 0.08994,-0.145521 0.216027,-0.264583 0.280199,-0.264583 0.308151,0.270283 -0.227503,0.685138 -0.280199,0.264583 z m -12.41312,-6.233209 c -0.373446,-0.373446 -0.35108,-0.533338 0.236915,-1.693691 0.71167,-1.404413 1.774696,-2.3918502 2.574947,-2.3918502 0.658123,0 2.060633,1.3931042 2.060633,2.0468132 0,0.528739 -1.06436,1.656477 -2.033127,2.154192 -0.831855,0.427374 -2.358615,0.365288 -2.839368,-0.115464 z m 2.491245,-0.894926 c 0,-0.136933 -0.119062,-0.322553 -0.264583,-0.41249 -0.145521,-0.08994 -0.264584,-0.464073 -0.264584,-0.831414 0,-0.844469 -0.625243,-0.698398 -0.752731,0.175856 -0.05516,0.378276 0.09569,0.762624 0.381299,0.971463 0.556547,0.406957 0.900599,0.443855 0.900599,0.09658 z m 0.264583,-2.3968652 c 0.322654,-0.2085144 0.288463,-0.257238 -0.182822,-0.2605318 -0.318834,-0.00223 -0.653282,0.1150109 -0.743219,0.2605318 -0.208194,0.3368642 0.404782,0.3368642 0.926041,0 z m 17.759228,3.2583572 c -0.766027,-0.383032 -1.880103,-1.705066 -1.883238,-2.234775 -0.0025,-0.419796 1.749187,-1.8173322 2.277843,-1.8173322 1.192786,0 3.393117,3.0391722 2.839767,3.9223832 -0.382743,0.610903 -2.131766,0.681053 -3.234372,0.129724 z m 0.232439,-0.861492 c 0,-0.136933 -0.119063,-0.322553 -0.264583,-0.41249 -0.145521,-0.08994 -0.264584,-0.464073 -0.264584,-0.831414 0,-0.844469 -0.625245,-0.698398 -0.752731,0.175856 -0.05516,0.378276 0.09569,0.762624 0.381299,0.971463 0.556548,0.406957 0.900599,0.443855 0.900599,0.09658 z m 0.396875,-2.3968652 c 0.08994,-0.1455209 -0.07461,-0.2645834 -0.365646,-0.2645834 -0.291042,0 -0.60275,0.1190625 -0.692687,0.2645834 -0.08994,0.1455212 0.0746,0.2645832 0.365646,0.2645832 0.291042,0 0.60275,-0.119062 0.692687,-0.2645832 z"
         id="path498"
         sodipodi:nodetypes="ssscssssscssssssssssssssscsssssssssssssssssssssssssssssssssssssssscccccssssssssssssssssssssssssssssssssss" /></g></g></svg>
