<?xml version="1.0" encoding="UTF-8" standalone="no"?>
<!-- Created with Inkscape (http://www.inkscape.org/) -->

<svg
   width="133.20599mm"
   height="108.53821mm"
   viewBox="0 0 133.20599 108.53821"
   version="1.1"
   id="svg5"
   xml:space="preserve"
   xmlns:inkscape="http://www.inkscape.org/namespaces/inkscape"
   xmlns:sodipodi="http://sodipodi.sourceforge.net/DTD/sodipodi-0.dtd"
   xmlns="http://www.w3.org/2000/svg"
   xmlns:svg="http://www.w3.org/2000/svg"><sodipodi:namedview
     id="namedview7"
     pagecolor="#ffffff"
     bordercolor="#000000"
     borderopacity="0.25"
     inkscape:showpageshadow="2"
     inkscape:pageopacity="0.0"
     inkscape:pagecheckerboard="0"
     inkscape:deskcolor="#d1d1d1"
     inkscape:document-units="mm"
     showgrid="false" /><defs
     id="defs2" /><g
     inkscape:label="Ebene 1"
     inkscape:groupmode="layer"
     id="layer1"
     transform="translate(-54.926908,-53.940195)"><g
       id="g1909"
       transform="matrix(1.099129,0,0,1,13.881685,-41.112957)"><path
         style="fill:#b9b9b9;fill-opacity:1;stroke-width:0.264583"
         d="m 88.626866,191.53707 c 0.0127,-0.30823 0.07539,-0.37092 0.15985,-0.15986 0.07643,0.191 0.06703,0.4192 -0.02088,0.50712 -0.08792,0.0879 -0.150453,-0.0684 -0.138965,-0.34726 z m 0.04049,-3.02067 c 0,-0.50932 0.05445,-0.71768 0.121002,-0.46302 0.06655,0.25467 0.06655,0.67138 0,0.92605 -0.06655,0.25466 -0.121002,0.0463 -0.121002,-0.46303 z m -0.04049,-2.271 c 0.0127,-0.30823 0.07539,-0.37092 0.15985,-0.15985 0.07643,0.19099 0.06703,0.4192 -0.02088,0.50711 -0.08792,0.0879 -0.150453,-0.0683 -0.138965,-0.34726 z m 16.333664,-1.6139 c 0.191,-0.0764 0.4192,-0.067 0.50712,0.0209 0.0879,0.0879 -0.0684,0.15046 -0.34726,0.13897 -0.30823,-0.0127 -0.37092,-0.0754 -0.15986,-0.15985 z m 22.80378,-9.97333 c 0,-0.0549 0.20836,-0.2633 0.46302,-0.46302 0.41964,-0.3291 0.429,-0.31974 0.0999,0.0999 -0.34565,0.44073 -0.56292,0.58089 -0.56292,0.36312 z m 3.9026,-0.60449 c 0.1819,-0.0734 0.47956,-0.0734 0.66146,0 0.1819,0.0734 0.0331,0.13345 -0.33073,0.13345 -0.3638,0 -0.51263,-0.0601 -0.33073,-0.13345 z m -64.471294,-4.47703 c 0.0127,-0.30823 0.07539,-0.37092 0.159851,-0.15986 0.07643,0.191 0.06703,0.41921 -0.02088,0.50712 -0.08792,0.0879 -0.150453,-0.0684 -0.138964,-0.34726 z m 27.698953,-9.03325 c 0.475549,-0.0589 1.189924,-0.0577 1.5875,0.003 0.397576,0.0604 0.0085,0.10855 -0.864634,0.10707 -0.873125,-0.002 -1.198414,-0.0509 -0.722866,-0.10977 z m 3.726434,-0.73748 c 0.633317,-0.36204 1.22863,-0.65455 1.322917,-0.65001 0.27392,0.0132 -1.917068,1.31214 -2.209819,1.31012 -0.14552,-10e-4 0.253585,-0.29806 0.886902,-0.66011 z m -6.707735,-0.1291 c -0.431379,-0.18537 -0.446487,-0.23083 -0.08176,-0.24599 0.246073,-0.0102 0.520991,0.10047 0.610928,0.24599 0.188029,0.30424 0.178834,0.30424 -0.529168,0 z m 1.918229,-0.68789 c -0.691224,-0.21255 -1.25677,-0.42328 -1.25677,-0.46829 0,-0.17768 3.191753,-2.54799 3.43101,-2.54799 0.140417,0 0.972339,0.46345 1.848718,1.02988 1.58805,1.0264 1.591366,1.03122 0.983864,1.42927 -0.708192,0.46403 -2.455336,0.98506 -3.220884,0.96053 -0.291042,-0.009 -1.094714,-0.19085 -1.785938,-0.4034 z m 10.005033,-0.29289 c -0.14359,-0.37708 -0.1132,-0.40747 0.14811,-0.14811 0.18082,0.17948 0.26212,0.39297 0.18065,0.47443 -0.0815,0.0815 -0.2294,-0.0654 -0.32876,-0.32632 z m -13.637021,-2.9767 c -0.159078,-0.29724 -0.210934,-0.54044 -0.115237,-0.54044 0.0957,0 0.05101,-0.14882 -0.09931,-0.33073 -0.150317,-0.1819 -0.352398,-0.80697 -0.449069,-1.38906 -0.138126,-0.8317 -0.109953,-0.97334 0.131567,-0.66146 0.254682,0.32889 0.28498,0.29489 0.176861,-0.19843 -0.173948,-0.79368 0.254772,-0.75774 1.544505,0.12945 0.579482,0.39862 1.708449,1.04753 2.508813,1.44203 0.800365,0.39449 1.253876,0.72319 1.007803,0.73044 -0.246073,0.007 -0.520991,-0.10588 -0.610928,-0.2514 -0.314603,-0.50904 -1.262523,-0.25688 -2.528898,0.67273 -1.242528,0.9121 -1.284658,0.92277 -1.566111,0.39687 z m 11.318131,0.2004 c 0.17463,-0.17463 0.30129,-0.68064 0.28147,-1.12448 -0.0321,-0.71865 -0.049,-0.73458 -0.15469,-0.14552 -0.19764,1.10166 -0.50265,1.15281 -1.751358,0.29368 -0.657784,-0.45257 -1.34011,-0.82285 -1.51628,-0.82285 -0.395877,0 1.966598,-2.10588 2.906018,-2.59038 0.51037,-0.26322 0.60045,-0.26807 0.35391,-0.0191 -0.18191,0.18372 -0.31665,0.69718 -0.29943,1.14101 l 0.0313,0.80698 0.17729,-0.79375 0.17729,-0.79375 0.18467,0.66146 c 0.22878,0.81944 0.24692,2.72376 0.0313,3.28565 -0.0883,0.23019 -0.29074,0.41852 -0.44979,0.41852 -0.19348,0 -0.18411,-0.10509 0.0283,-0.3175 z m -12.076138,-0.47625 c 0,-0.36381 0.06006,-0.51263 0.133453,-0.33073 0.0734,0.1819 0.0734,0.47956 0,0.66146 -0.0734,0.1819 -0.133453,0.0331 -0.133453,-0.33073 z m 4.416697,-0.0664 c 0.200242,-0.20024 0.393271,-0.21479 0.56546,-0.0426 0.172188,0.17219 0.0684,0.27598 -0.304028,0.30403 -0.425881,0.0321 -0.490413,-0.0325 -0.261432,-0.26143 z m 3.214444,-2.31486 c -0.238466,-0.15411 -0.2711,-0.2581 -0.08176,-0.26054 0.173312,-0.002 0.388699,0.11502 0.478636,0.26054 0.203015,0.32849 0.111421,0.32849 -0.396876,0 z m 6.349997,-3.2749 c 0,-0.0549 0.20836,-0.2633 0.46302,-0.46302 0.41965,-0.32911 0.42901,-0.31975 0.0999,0.0999 -0.34564,0.44073 -0.56292,0.58088 -0.56292,0.36312 z m 1.32292,-1.05833 c 0,-0.0549 0.20836,-0.2633 0.46302,-0.46302 0.41965,-0.32911 0.429,-0.31975 0.0999,0.0999 -0.34565,0.44073 -0.56292,0.58089 -0.56292,0.36313 z M 82.7649,146.11692 c -0.142854,-0.46677 -0.167627,-1.00366 -0.04044,-0.87648 0.193083,0.19309 0.327914,0.94263 0.169564,0.94263 -0.05989,0 -0.117991,-0.0298 -0.129125,-0.0661 z m 28.63702,-0.46302 c 0,-0.3638 0.06,-0.51263 0.13345,-0.33073 0.0734,0.18191 0.0734,0.47956 0,0.66146 -0.0734,0.1819 -0.13345,0.0331 -0.13345,-0.33073 z m -29.766116,-0.82885 c -0.268335,-0.15598 -0.66481,-0.30957 -0.881054,-0.34131 -0.216244,-0.0317 -0.500891,-0.22792 -0.632548,-0.43596 -0.131654,-0.20804 -0.241197,-0.27157 -0.243424,-0.14118 -0.0021,0.13039 -0.296021,-0.078 -0.652876,-0.46302 -0.356854,-0.38505 -0.820364,-0.70009 -1.030025,-0.70009 -0.209661,0 -0.452631,-0.18614 -0.539933,-0.41365 -0.0873,-0.2275 -0.278632,-0.33954 -0.425182,-0.24897 -0.146548,0.0906 -0.266452,0.0316 -0.266452,-0.13113 0,-0.1627 -0.106987,-0.2297 -0.237746,-0.14888 -0.130763,0.0808 -0.517716,-0.14823 -0.859896,-0.50898 -0.342183,-0.36075 -0.770977,-0.65797 -0.952878,-0.66049 -0.181902,-0.003 -0.33073,-0.0975 -0.33073,-0.21115 0,-0.11361 -0.327421,-0.34645 -0.727604,-0.51741 -0.400182,-0.17096 -1.02526,-0.54103 -1.389062,-0.82236 -1.495065,-1.15618 -9.88623,-6.5183 -10.10115,-6.45484 -0.127779,0.0377 -0.301019,-0.11042 -0.384978,-0.32921 -0.08396,-0.2188 -0.237386,-0.34544 -0.340947,-0.28144 -0.301035,0.18605 -2.426047,-1.32806 -2.205131,-1.5712 0.109953,-0.12101 -0.01946,-0.14103 -0.287591,-0.0445 -0.351797,0.12667 -0.526106,0.0279 -0.626171,-0.35472 -0.119684,-0.45767 -0.59594,-0.68058 -0.991601,-0.46411 -0.0665,0.0364 -0.31345,-0.17198 -0.548787,-0.46303 -0.235337,-0.29104 -0.350695,-0.35057 -0.256352,-0.13229 0.114458,0.26482 0.04625,0.24418 -0.204978,-0.062 -0.207081,-0.2524 -0.460328,-0.37509 -0.562772,-0.27265 -0.102442,0.10244 -0.106578,-0.0214 -0.0092,-0.27518 0.168035,-0.43789 0.213916,-0.43748 0.8991,0.008 0.397116,0.25823 3.449117,2.23469 6.782225,4.39214 15.973223,10.33913 18.983194,12.33191 18.627904,12.33281 -0.07276,1.9e-4 -0.351838,-0.12728 -0.620173,-0.28326 z m 28.136836,-0.0648 c 0,-0.0549 0.20836,-0.2633 0.46302,-0.46302 0.41965,-0.32911 0.42901,-0.31975 0.0999,0.0999 -0.34564,0.44073 -0.56292,0.58089 -0.56292,0.36313 z m 6.87917,-6.59709 c 0,-0.0651 0.56555,-0.57333 1.25677,-1.12932 0.69122,-0.55598 1.01865,-0.73606 0.7276,-0.40019 -0.54659,0.6308 -1.98437,1.73901 -1.98437,1.52951 z m 3.175,-2.56343 c 0,-0.14552 0.14995,-0.26459 0.33323,-0.26459 0.18328,0 0.48483,-0.24274 0.67011,-0.53943 0.18529,-0.29669 0.45399,-0.46706 0.59713,-0.37859 0.14313,0.0885 0.18685,0.27959 0.0971,0.42474 -0.0897,0.14515 -0.2298,0.19721 -0.31131,0.11569 -0.0815,-0.0815 -0.31447,0.0892 -0.51768,0.37928 -0.39215,0.55988 -0.86862,0.70409 -0.86862,0.2629 z m 1.32292,0.16468 c 0,-0.0549 0.20836,-0.2633 0.46302,-0.46302 0.41964,-0.3291 0.429,-0.31975 0.0999,0.0999 -0.34564,0.44073 -0.56291,0.58089 -0.56291,0.36312 z m 1.32291,-1.05833 c 0,-0.0549 0.20836,-0.2633 0.46302,-0.46302 0.41965,-0.32911 0.42901,-0.31975 0.0999,0.0999 -0.34564,0.44073 -0.56292,0.58088 -0.56292,0.36312 z m -0.67804,-0.63317 c 0.0903,-0.0903 0.35025,-0.1915 0.57765,-0.22488 0.22741,-0.0334 0.33958,0.0132 0.24927,0.10351 -0.0903,0.0903 -0.35025,0.1915 -0.57766,0.22488 -0.2274,0.0334 -0.33957,-0.0132 -0.24926,-0.10351 z m 2.10911,-0.7431 c 0.0727,-0.49554 1.21477,-1.42013 1.21477,-0.98348 0,0.13791 -0.28897,0.52221 -0.64216,0.85401 -0.55303,0.51955 -0.6325,0.53752 -0.57261,0.12947 z m 7.05649,-1.05942 c 0.0127,-0.30823 0.0754,-0.37092 0.15985,-0.15986 0.0764,0.191 0.067,0.4192 -0.0209,0.50712 -0.0879,0.0879 -0.15045,-0.0684 -0.13896,-0.34726 z m 0.55986,-0.24254 c 0.005,-0.43656 0.0647,-0.58312 0.13177,-0.32569 0.0671,0.25743 0.0627,0.61462 -0.01,0.79375 -0.0725,0.17913 -0.12736,-0.0315 -0.12197,-0.46806 z m -76.342675,-4.24529 c 0.0806,-0.21003 0.253128,-0.316 0.3834,-0.23549 0.328111,0.20278 0.29791,0.2997 -0.146541,0.47025 -0.255748,0.0981 -0.33461,0.02 -0.236859,-0.23476 z m 65.922735,0.22809 c 0.19099,-0.0764 0.4192,-0.067 0.50712,0.0209 0.0879,0.0879 -0.0684,0.15045 -0.34727,0.13896 -0.30823,-0.0127 -0.37092,-0.0754 -0.15985,-0.15985 z m -66.656725,-0.28228 c -0.01723,-0.10914 -0.01926,-0.28164 -0.0045,-0.38333 0.01475,-0.1017 -0.694419,-0.63748 -1.575932,-1.19063 -0.881513,-0.55315 -1.861748,-1.22703 -2.178299,-1.49751 l -0.575548,-0.49178 0.661458,0.38403 c 2.362675,1.37174 4.275264,2.70222 4.011073,2.79029 -0.170612,0.0569 -0.242904,0.21229 -0.160648,0.34538 0.08225,0.13309 0.083,0.24199 0.0016,0.24199 -0.08135,0 -0.162006,-0.0893 -0.179239,-0.19844 z m 77.066855,-0.33073 c 0,-0.3638 0.0601,-0.51263 0.13345,-0.33073 0.0734,0.1819 0.0734,0.47956 0,0.66146 -0.0734,0.1819 -0.13345,0.0331 -0.13345,-0.33073 z m -79.549064,-0.67892 c -1.184156,-0.81844 -1.765204,-1.43774 -1.34894,-1.43774 0.463587,0 2.715954,1.64198 2.715954,1.97993 0,0.22072 -0.0099,0.39476 -0.02205,0.38674 -0.01213,-0.008 -0.617362,-0.42604 -1.344966,-0.92893 z m 18.322395,0.23911 c 0.181901,-0.0734 0.479558,-0.0734 0.661459,0 0.181901,0.0734 0.03307,0.13345 -0.33073,0.13345 -0.363802,0 -0.51263,-0.0601 -0.330729,-0.13345 z m 25.466145,-13.683 c 0,-0.0549 0.20836,-0.2633 0.463021,-0.46302 0.419645,-0.32911 0.429004,-0.31975 0.0999,0.0999 -0.345643,0.44073 -0.562917,0.58089 -0.562917,0.36313 z m 3.439584,-3.70417 c 0,-0.0549 0.208359,-0.2633 0.463021,-0.46302 0.419649,-0.3291 0.428999,-0.31975 0.0999,0.0999 -0.345644,0.44073 -0.562917,0.58089 -0.562917,0.36312 z m -17.49625,-0.62771 c -0.329107,-0.41964 -0.319749,-0.429 0.0999,-0.0999 0.44073,0.34564 0.580887,0.56292 0.363125,0.56292 -0.05494,0 -0.2633,-0.20836 -0.463021,-0.46303 z m 0.79375,-1.05833 c -0.329107,-0.41964 -0.319749,-0.429 0.0999,-0.0999 0.44073,0.34564 0.580887,0.56291 0.363125,0.56291 -0.05494,0 -0.2633,-0.20836 -0.463021,-0.46302 z"
         id="path1923" /><path
         style="fill:#a3a3a3;fill-opacity:1;stroke-width:0.264583"
         d="m 88.672699,190.2362 c 0.0029,-0.58209 0.05712,-0.78906 0.120407,-0.45994 0.06329,0.32912 0.06088,0.80537 -0.0053,1.05833 -0.06622,0.25297 -0.118004,-0.0163 -0.115067,-0.59839 z M 65.322644,177.30401 c 0,-0.0549 0.208359,-0.2633 0.463021,-0.46302 0.419645,-0.32911 0.429003,-0.31975 0.0999,0.0999 -0.345645,0.44073 -0.562917,0.58089 -0.562917,0.36313 z m 28.789973,-17.01418 c 0.190995,-0.0764 0.419198,-0.067 0.507119,0.0209 0.08792,0.0879 -0.06835,0.15045 -0.347266,0.13896 -0.308226,-0.0127 -0.370919,-0.0754 -0.159853,-0.15985 z m 2.910417,0 c 0.190994,-0.0764 0.419198,-0.067 0.507119,0.0209 0.08792,0.0879 -0.06835,0.15045 -0.347266,0.13896 -0.308226,-0.0127 -0.370919,-0.0754 -0.159853,-0.15985 z m -4.331592,-0.49531 c -0.484269,-0.38798 -0.475826,-0.39349 0.147868,-0.0965 0.809897,0.38572 0.959998,0.50793 0.623834,0.50793 -0.141962,0 -0.489227,-0.18516 -0.771702,-0.41147 z M 88.097699,159.494 c -0.03018,-0.45532 0.438044,-0.67404 0.663167,-0.30978 0.114113,0.18464 0.07719,0.23916 -0.09141,0.13496 -0.155577,-0.0961 -0.343167,-0.0252 -0.416866,0.15755 -0.09591,0.2379 -0.139941,0.24281 -0.15489,0.0173 z m 11.835751,-0.52709 c 0.191,-0.0764 0.4192,-0.067 0.50712,0.0209 0.0879,0.0879 -0.0683,0.15045 -0.34727,0.13896 -0.308223,-0.0127 -0.370916,-0.0754 -0.15985,-0.15985 z m -7.358723,-0.69707 c 0,-0.0643 0.684609,-0.63069 1.521354,-1.25861 0.836744,-0.62792 1.377902,-0.96392 1.202573,-0.74668 -0.359436,0.44536 -2.723927,2.18604 -2.723927,2.00529 z m -2.759075,-1.94607 c -0.09278,-0.24178 -0.03867,-0.56852 0.120242,-0.72609 0.208399,-0.20663 0.235159,-0.14533 0.096,0.21994 -0.134657,0.35346 -0.09943,0.44864 0.116615,0.31511 0.170252,-0.10522 0.309547,-0.0722 0.309547,0.0733 0,0.47981 -0.470387,0.56604 -0.642408,0.11776 z m -0.415925,-2.07091 c 0,-0.3638 0.04565,-0.66146 0.101446,-0.66146 0.0558,0 0.158348,0.29766 0.227894,0.66146 0.06955,0.3638 0.02389,0.66146 -0.101447,0.66146 -0.125341,0 -0.227893,-0.29766 -0.227893,-0.66146 z m 12.191723,0.24254 c 0.0127,-0.30823 0.0754,-0.37092 0.15985,-0.15986 0.0764,0.191 0.067,0.4192 -0.0209,0.50712 -0.0879,0.0879 -0.15045,-0.0683 -0.13896,-0.34726 z m -7.34103,-0.49548 c 0,-0.21188 0.101161,-0.32272 0.224803,-0.2463 0.12364,0.0764 0.156303,0.24977 0.07258,0.38523 -0.213947,0.34618 -0.297381,0.3072 -0.297381,-0.13893 z m 5.203473,-1.33456 c 0.493654,-0.50932 0.957087,-0.92604 1.029847,-0.92604 0.0728,0 -0.27161,0.41672 -0.765264,0.92604 -0.493654,0.50932 -0.957085,0.92604 -1.029845,0.92604 -0.07276,0 0.271608,-0.41672 0.765262,-0.92604 z m -9.458854,-0.6697 c -0.327422,-0.13161 -0.595312,-0.29151 -0.595312,-0.35534 0,-0.19693 1.057846,0.14874 1.210363,0.39552 0.168275,0.27228 0.161144,0.27181 -0.615051,-0.0402 z m 10.803821,-0.32531 c 0.0606,-0.0379 0.4079,-0.30582 0.7717,-0.59531 l 0.66146,-0.52634 -0.50403,0.59531 c -0.27722,0.32742 -0.62448,0.59531 -0.7717,0.59531 -0.14722,0 -0.21806,-0.031 -0.15743,-0.069 z m 10.82587,-8.5059 c 0,-0.0504 0.17859,-0.23981 0.39687,-0.42096 0.22876,-0.18986 0.39688,-0.21557 0.39688,-0.0607 0,0.14777 -0.1786,0.33721 -0.39688,0.42097 -0.21828,0.0838 -0.39687,0.11108 -0.39687,0.0607 z m -58.101183,-2.07461 -0.504028,-0.59531 0.595313,0.50403 c 0.559447,0.47366 0.715761,0.68659 0.504028,0.68659 -0.05021,0 -0.318097,-0.26789 -0.595313,-0.59531 z m 62.091973,-2.12539 c 0.0606,-0.0412 0.34837,-0.24954 0.63941,-0.46302 0.48949,-0.35904 0.50194,-0.35343 0.16605,0.0749 -0.19972,0.25466 -0.48746,0.46302 -0.63941,0.46302 -0.15196,0 -0.22668,-0.0337 -0.16605,-0.0749 z m -58.209488,-2.7253 c 0.01269,-0.30823 0.07539,-0.37092 0.159853,-0.15986 0.07643,0.191 0.06703,0.4192 -0.02089,0.50712 -0.08792,0.0879 -0.150453,-0.0684 -0.138965,-0.34726 z m 63.330558,-0.58179 c 0.0367,-0.24997 0.13878,-0.43101 0.22688,-0.40231 0.0881,0.0287 0.50836,-0.26895 0.93393,-0.66146 0.77675,-0.71642 2.42733,-1.77188 2.42733,-1.55215 0,0.0646 -0.82234,0.78186 -1.82743,1.59393 -1.21131,0.9787 -1.80493,1.32326 -1.76071,1.02199 z m -56.53304,-1.72012 c -0.979303,-0.6136 -1.834756,-1.254 -1.901007,-1.42312 -0.06625,-0.16912 0.675467,0.23165 1.64826,0.8906 2.912129,1.9726 3.06492,2.29452 0.252747,0.53252 z m 66.75665,-0.87309 c 0.0127,-0.30823 0.0754,-0.37092 0.15985,-0.15986 0.0764,0.191 0.067,0.4192 -0.0209,0.50712 -0.0879,0.0879 -0.15045,-0.0683 -0.13896,-0.34726 z m 0.52916,-2.11667 c 0.0127,-0.30823 0.0754,-0.37092 0.15986,-0.15985 0.0764,0.19099 0.067,0.41919 -0.0209,0.50712 -0.0879,0.0879 -0.15045,-0.0684 -0.13897,-0.34727 z m -73.859876,-0.44097 c -0.142855,-0.46678 -0.167626,-1.00367 -0.04044,-0.87649 0.193084,0.19309 0.327915,0.94263 0.169564,0.94263 -0.05988,0 -0.11799,-0.0298 -0.129124,-0.0661 z m -1.155379,-1.05106 c -0.226532,-0.32342 -0.411877,-0.49758 -0.411877,-0.38702 0,0.11056 -0.714375,-0.2841 -1.5875,-0.87703 -0.873125,-0.59293 -1.5875,-1.14001 -1.5875,-1.21574 0,-0.22429 2.634569,1.29947 3.312029,1.91558 0.343233,0.31215 0.671097,0.52051 0.728585,0.46302 0.05749,-0.0575 0.104524,0.0741 0.104524,0.29235 0,0.52783 -0.0719,0.50321 -0.558261,-0.19116 z m 75.015255,-1.1538 c 0.0127,-0.30823 0.0754,-0.37092 0.15986,-0.15986 0.0764,0.191 0.067,0.4192 -0.0209,0.50712 -0.0879,0.0879 -0.15045,-0.0684 -0.13897,-0.34726 z m -59.601742,-0.55557 c 0.190995,-0.0764 0.419198,-0.067 0.507119,0.0209 0.08792,0.0879 -0.06835,0.15045 -0.347266,0.13896 -0.308226,-0.0127 -0.370919,-0.0754 -0.159853,-0.15985 z m 36.247912,-3.96875 c 0.191,-0.0764 0.4192,-0.067 0.50712,0.0209 0.0879,0.0879 -0.0684,0.15045 -0.34726,0.13896 -0.30823,-0.0127 -0.37092,-0.0754 -0.15986,-0.15985 z"
         id="path1921" /><path
         style="fill:#8c8c8c;fill-opacity:1;stroke-width:0.264583"
         d="m 161.10181,148.8289 c 0,-43.56805 0.0455,-49.212498 0.39687,-49.212498 0.35136,0 0.39688,5.644448 0.39688,49.212498 0,43.56806 -0.0455,49.2125 -0.39688,49.2125 -0.35135,0 -0.39687,-5.64444 -0.39687,-49.2125 z m -57.39369,37.4165 c 0.0127,-0.30823 0.0754,-0.37092 0.15985,-0.15985 0.0764,0.19099 0.067,0.4192 -0.0209,0.50711 -0.0879,0.0879 -0.15045,-0.0683 -0.13896,-0.34726 z m -15.081254,-1.05833 c 0.0127,-0.30823 0.07539,-0.37092 0.15985,-0.15986 0.07643,0.191 0.06703,0.4192 -0.02088,0.50712 -0.08792,0.0879 -0.150453,-0.0684 -0.138965,-0.34726 z M 130.69561,170.3704 c 0.0127,-0.30823 0.0754,-0.37092 0.15986,-0.15986 0.0764,0.191 0.067,0.41921 -0.0209,0.50712 -0.0879,0.0879 -0.15045,-0.0683 -0.13897,-0.34726 z m -41.0313,-9.73514 c 0,-0.0549 0.208359,-0.2633 0.463021,-0.46302 0.419645,-0.32911 0.429003,-0.31975 0.0999,0.0999 -0.345644,0.44073 -0.562917,0.58089 -0.562917,0.36313 z m 5.490104,-0.35141 c 0.327422,-0.0631 0.863203,-0.0631 1.190625,0 0.327422,0.0631 0.05953,0.11466 -0.595313,0.11466 -0.654843,0 -0.922734,-0.0516 -0.595312,-0.11466 z m 7.474476,0.0827 c 0,-0.0572 0.18478,-0.17489 0.41062,-0.26156 0.23546,-0.0904 0.34166,-0.046 0.24897,0.10399 -0.15538,0.25141 -0.65959,0.37186 -0.65959,0.15757 z m -5.291664,-0.35008 c 0.218282,-0.0812 0.724297,-0.31302 1.12448,-0.51508 0.400182,-0.20205 0.727604,-0.30783 0.727604,-0.23507 0,0.20768 -1.522616,0.94197 -1.90509,0.91874 -0.230989,-0.014 -0.21359,-0.0694 0.05301,-0.16859 z m -5.027083,-0.60427 c -0.238466,-0.15411 -0.2711,-0.2581 -0.08176,-0.26054 0.173312,-0.002 0.388699,0.11502 0.478636,0.26054 0.203015,0.32849 0.111422,0.32849 -0.396876,0 z m 6.96736,-1.44357 c 0,-0.21188 0.101161,-0.32272 0.224803,-0.2463 0.12364,0.0764 0.156303,0.24977 0.07258,0.38523 -0.213947,0.34618 -0.297381,0.3072 -0.297381,-0.13893 z m -4.850693,-1.30216 c 0,-0.0549 0.208359,-0.2633 0.463021,-0.46302 0.419645,-0.32911 0.429003,-0.31975 0.0999,0.0999 -0.345644,0.44073 -0.562917,0.58089 -0.562917,0.36313 z m -4.741611,-1.37736 c 0.0127,-0.30823 0.07539,-0.37092 0.15985,-0.15986 0.07643,0.191 0.06703,0.4192 -0.02088,0.50712 -0.08792,0.0879 -0.150453,-0.0684 -0.138965,-0.34726 z m 11.770081,0.0768 c 0.0994,-0.26094 0.2473,-0.40778 0.32876,-0.32632 0.0815,0.0815 1.7e-4,0.29496 -0.18065,0.47443 -0.26131,0.25936 -0.2917,0.22897 -0.14811,-0.14811 z m -6.616019,-0.8569 c -0.282475,-0.21365 -0.401537,-0.38467 -0.264583,-0.38005 0.136953,0.005 0.480123,0.18323 0.762597,0.39688 0.282475,0.21365 0.401537,0.38467 0.264584,0.38005 -0.136954,-0.005 -0.480124,-0.18323 -0.762598,-0.39688 z m 3.04918,-0.72201 c 0.06063,-0.0379 0.4079,-0.30582 0.771702,-0.59531 l 0.661458,-0.52635 -0.504028,0.59531 c -0.277215,0.32743 -0.62448,0.59532 -0.7717,0.59532 -0.147222,0 -0.218064,-0.031 -0.157432,-0.069 z m 4.211289,-3.20593 c 0,-0.0549 0.20836,-0.2633 0.46302,-0.46302 0.41964,-0.32911 0.429,-0.31975 0.0999,0.0999 -0.34564,0.44073 -0.56291,0.58088 -0.56291,0.36312 z m 5.02708,-3.96875 c 0,-0.0549 0.20836,-0.2633 0.46302,-0.46302 0.41965,-0.32911 0.429,-0.31975 0.0999,0.0999 -0.34565,0.44073 -0.56292,0.58088 -0.56292,0.36312 z m 1.32292,-1.05833 c 0,-0.0549 0.20836,-0.2633 0.46302,-0.46302 0.41964,-0.32911 0.429,-0.31975 0.0999,0.0999 -0.34564,0.44073 -0.56291,0.58089 -0.56291,0.36313 z m 33.64385,-8.10219 c 0,-0.3638 0.0601,-0.51263 0.13346,-0.33073 0.0734,0.1819 0.0734,0.47956 0,0.66146 -0.0734,0.1819 -0.13346,0.0331 -0.13346,-0.33073 z m -81.777131,-0.4189 c 0.0127,-0.30823 0.07539,-0.37092 0.159852,-0.15986 0.07643,0.191 0.06703,0.4192 -0.02089,0.50712 -0.08792,0.0879 -0.150452,-0.0683 -0.138964,-0.34726 z m 59.510361,-0.75369 c 0,-0.0628 0.38695,-0.38165 0.85989,-0.70844 l 0.8599,-0.59416 -0.64143,0.70844 c -0.572,0.63175 -1.07836,0.91075 -1.07836,0.59416 z m -53.329117,-0.82636 c -0.493189,-0.39513 -0.489945,-0.40001 0.08172,-0.12298 0.327422,0.15866 0.595312,0.34383 0.595312,0.41147 0,0.20246 -0.137215,0.14399 -0.677034,-0.28849 z m -4.732958,-2.47635 c -0.08519,-0.13784 -0.04211,-0.32032 0.09573,-0.4055 0.137839,-0.0852 0.320317,-0.0421 0.405506,0.0957 0.08519,0.13784 0.04211,0.32032 -0.09573,0.40551 -0.137839,0.0852 -0.320317,0.0421 -0.405507,-0.0957 z m -0.918815,-0.7502 c -0.148326,-0.25466 -0.273305,-0.3701 -0.27773,-0.25652 -0.0091,0.2336 -3.976796,-2.38664 -3.976796,-2.62624 0,-0.0851 0.267891,0.0158 0.595313,0.22411 0.327422,0.20833 1.339453,0.82596 2.248958,1.37251 0.909505,0.54655 1.653646,1.11119 1.653646,1.25476 0,0.14358 0.137458,0.17609 0.305463,0.0723 0.189257,-0.11697 0.233644,-0.0726 0.116677,0.11668 -0.253145,0.40959 -0.348316,0.38706 -0.665531,-0.15756 z m 70.68928,-2.57969 c 0.003,-0.58208 0.0571,-0.78905 0.1204,-0.45993 0.0633,0.32911 0.0609,0.80536 -0.005,1.05833 -0.0662,0.25296 -0.118,-0.0163 -0.11507,-0.5984 z m 4.1875,-1.87413 c 0.0127,-0.30823 0.0754,-0.37092 0.15985,-0.15985 0.0764,0.19099 0.067,0.41919 -0.0209,0.50712 -0.0879,0.0879 -0.15045,-0.0684 -0.13896,-0.34727 z m -13.82883,-6.90557 c 0.19099,-0.0764 0.4192,-0.067 0.50712,0.0209 0.0879,0.0879 -0.0684,0.15045 -0.34727,0.13897 -0.30823,-0.0127 -0.37092,-0.0754 -0.15985,-0.15986 z m -27.599352,-5.11092 c 0.26339,-0.29105 0.538422,-0.52917 0.611182,-0.52917 0.07276,0 -0.08321,0.23812 -0.346599,0.52917 -0.26339,0.29104 -0.538421,0.52916 -0.611182,0.52916 -0.07276,0 0.08321,-0.23812 0.346599,-0.52916 z"
         id="path1919" /><path
         style="fill:#767676;fill-opacity:1;stroke-width:0.264583"
         d="m 85.910534,192.569 c 0.190995,-0.0764 0.419198,-0.067 0.507119,0.0209 0.08792,0.0879 -0.06835,0.15046 -0.347266,0.13897 -0.308226,-0.0127 -0.370919,-0.0754 -0.159853,-0.15985 z m 2.979576,-32.20717 c -0.211802,-0.2552 -0.222052,-0.42756 -0.0324,-0.54478 0.270031,-0.16689 0.383513,0.0188 0.297944,0.48754 -0.02318,0.127 0.147495,0.15813 0.379283,0.0692 0.243991,-0.0936 0.353375,-0.0516 0.259789,0.0998 -0.225642,0.3651 -0.541215,0.32611 -0.904618,-0.11177 z m 4.335873,-0.69474 c -0.576472,-0.29638 -1.256655,-0.48608 -1.511517,-0.42154 -0.254863,0.0645 -0.396664,0.009 -0.315114,-0.12257 0.225962,-0.36562 0.698199,-0.29125 1.836833,0.28926 1.334545,0.68039 3.346389,0.67991 4.847137,-0.001 0.628637,-0.28529 1.078437,-0.62312 0.999562,-0.75075 -0.163627,-0.26475 1.119466,-0.17696 1.386556,0.0949 0.0963,0.098 -0.004,0.14748 -0.2218,0.10997 -0.21828,-0.0375 -1.051716,0.24766 -1.85208,0.63372 -1.813603,0.8748 -3.677325,0.93544 -5.169577,0.1682 z m 10.064367,-0.51944 c 0.0899,-0.14552 0.21603,-0.26458 0.2802,-0.26458 0.0642,0 0.11668,0.11906 0.11668,0.26458 0,0.14552 -0.12609,0.26459 -0.2802,0.26459 -0.15411,0 -0.20662,-0.11907 -0.11668,-0.26459 z m -4.508795,-1.86968 c -0.09592,-0.1552 -0.117655,-0.33893 -0.0483,-0.40829 0.06935,-0.0693 0.196602,0.0576 0.282774,0.28219 0.178906,0.46622 0.02643,0.54823 -0.234474,0.1261 z m -4.883912,-0.34688 c 0,-0.0549 0.20836,-0.2633 0.463021,-0.46302 0.419645,-0.32911 0.429003,-0.31975 0.0999,0.0999 -0.345644,0.44073 -0.562917,0.58088 -0.562917,0.36312 z m 4.090162,-0.18229 c -0.09592,-0.1552 -0.117655,-0.33893 -0.0483,-0.40829 0.06935,-0.0693 0.196602,0.0576 0.282774,0.28219 0.178906,0.46623 0.02643,0.54823 -0.234474,0.1261 z m -31.321356,-0.6659 c 0.0127,-0.30823 0.07539,-0.37092 0.159851,-0.15986 0.07643,0.191 0.06703,0.4192 -0.02088,0.50712 -0.08792,0.0879 -0.150452,-0.0684 -0.138964,-0.34726 z m 29.612444,-0.37483 c -0.238466,-0.15411 -0.2711,-0.2581 -0.08176,-0.26053 0.173312,-0.002 0.388699,0.11501 0.478636,0.26053 0.203015,0.32849 0.111421,0.32849 -0.396876,0 z m -39.371335,-2.51354 c 0.0054,-0.43656 0.06469,-0.58313 0.131773,-0.3257 0.06708,0.25744 0.06267,0.61462 -0.0098,0.79375 -0.07248,0.17914 -0.127363,-0.0315 -0.121971,-0.46805 z m 36.355882,0.44097 c -0.07495,-0.12127 0.03709,-0.22049 0.248967,-0.22049 0.211879,0 0.385236,0.0992 0.385236,0.22049 0,0.12127 -0.112035,0.22049 -0.248967,0.22049 -0.136933,0 -0.310291,-0.0992 -0.385236,-0.22049 z m -0.79375,-0.52916 c -0.07495,-0.12127 0.03185,-0.22049 0.237328,-0.22049 0.205478,0 0.312277,0.0992 0.237329,0.22049 -0.07495,0.12126 -0.181745,0.22048 -0.237329,0.22048 -0.05558,0 -0.162383,-0.0992 -0.237328,-0.22048 z m 48.80926,-0.99219 c 0.0127,-0.30823 0.0754,-0.37092 0.15985,-0.15986 0.0764,0.191 0.067,0.4192 -0.0209,0.50712 -0.0879,0.0879 -0.15045,-0.0684 -0.13896,-0.34726 z m -41.2077,-0.49548 c 0,-0.21188 0.10116,-0.32272 0.22481,-0.2463 0.12364,0.0764 0.1563,0.24977 0.0726,0.38523 -0.21394,0.34618 -0.29738,0.3072 -0.29738,-0.13893 z m 1.6316,-0.93768 c 0.26339,-0.29104 0.53842,-0.52917 0.61118,-0.52917 0.0728,0 -0.0832,0.23813 -0.3466,0.52917 -0.26339,0.29104 -0.53842,0.52916 -0.61118,0.52916 -0.0728,0 0.0832,-0.23812 0.3466,-0.52916 z m 37.12435,-0.18074 c 0.19099,-0.0764 0.4192,-0.067 0.50712,0.0209 0.0879,0.0879 -0.0683,0.15046 -0.34727,0.13897 -0.30822,-0.0127 -0.37092,-0.0754 -0.15985,-0.15985 z m -34.87539,-1.50666 c 0,-0.0549 0.20836,-0.2633 0.46302,-0.46302 0.41965,-0.32911 0.429,-0.31975 0.0999,0.0999 -0.34565,0.44073 -0.56292,0.58088 -0.56292,0.36312 z m 1.32292,-1.05833 c 0,-0.0549 0.20836,-0.2633 0.46302,-0.46302 0.41964,-0.32911 0.429,-0.31975 0.0999,0.0999 -0.34564,0.44073 -0.56291,0.58089 -0.56291,0.36313 z m 1.32291,-1.05834 c 0,-0.0549 0.20836,-0.2633 0.46302,-0.46302 0.41965,-0.3291 0.42901,-0.31975 0.0999,0.0999 -0.34564,0.44073 -0.56292,0.58089 -0.56292,0.36312 z m 1.32292,-1.05833 c 0,-0.0549 0.20836,-0.2633 0.46302,-0.46302 0.41965,-0.32911 0.429,-0.31975 0.0999,0.0999 -0.34565,0.44073 -0.56292,0.58088 -0.56292,0.36312 z m 1.32292,-1.05833 c 0,-0.0549 0.20836,-0.2633 0.46302,-0.46302 0.41964,-0.32911 0.429,-0.31975 0.0999,0.0999 -0.34564,0.44073 -0.56291,0.58089 -0.56291,0.36313 z m 1.05833,-0.79375 c 0,-0.0549 0.20836,-0.2633 0.46302,-0.46302 0.41965,-0.32911 0.429,-0.31975 0.0999,0.0999 -0.34565,0.44073 -0.56292,0.58089 -0.56292,0.36313 z m 1.46651,-1.22302 c 0.13485,-0.21828 0.247,-0.48618 0.24923,-0.59532 0.005,-0.24082 0.30148,-0.28375 0.73827,-0.10687 0.24128,0.0977 0.2356,0.13658 -0.0222,0.15213 -0.20013,0.0121 -0.26599,0.16051 -0.15601,0.35162 0.10468,0.1819 0.0929,0.24246 -0.0262,0.13459 -0.11908,-0.10788 -0.39915,-0.0483 -0.62237,0.13229 -0.33752,0.27313 -0.36457,0.2616 -0.16069,-0.0684 z m 21.07465,-1.19063 c 0.005,-0.43656 0.0647,-0.58312 0.13178,-0.32569 0.0671,0.25743 0.0627,0.61462 -0.01,0.79375 -0.0725,0.17913 -0.12736,-0.0315 -0.12197,-0.46806 z m -18.77715,-1.07916 c 0.2512,-0.26226 0.51367,-0.41989 0.58328,-0.35028 0.0696,0.0696 -0.13592,0.28418 -0.45672,0.47684 -0.55729,0.33468 -0.56293,0.32904 -0.12656,-0.12656 z m -43.186926,-1.43438 c -0.238466,-0.15411 -0.2711,-0.2581 -0.08176,-0.26053 0.173313,-0.002 0.3887,0.11501 0.478637,0.26053 0.203015,0.32849 0.111421,0.32849 -0.396875,0 z m 44.979166,0.18205 c 0,-0.0454 0.38695,-0.36191 0.8599,-0.70336 l 0.85989,-0.62082 -0.64143,0.70336 c -0.5479,0.60079 -1.07836,0.90618 -1.07836,0.62082 z m -46.322326,-1.04195 c -0.142854,-0.46677 -0.167627,-1.00366 -0.04044,-0.87648 0.193082,0.19309 0.327914,0.94263 0.169564,0.94263 -0.05989,0 -0.117991,-0.0298 -0.129125,-0.0661 z m -0.894498,-0.70932 c -0.08373,-0.13546 -0.05106,-0.30882 0.07258,-0.38523 0.123642,-0.0764 0.224803,0.0344 0.224803,0.2463 0,0.44613 -0.08343,0.48511 -0.297381,0.13893 z m -0.79375,-0.52916 c -0.08373,-0.13547 -0.05106,-0.30883 0.07258,-0.38524 0.123642,-0.0764 0.224803,0.0344 0.224803,0.2463 0,0.44613 -0.08343,0.48511 -0.297381,0.13894 z m -0.791083,-0.52486 c -0.08519,-0.13784 -0.04211,-0.32031 0.09573,-0.4055 0.13784,-0.0852 0.320318,-0.0421 0.405506,0.0957 0.08519,0.13784 0.04211,0.32031 -0.09573,0.4055 -0.13784,0.0852 -0.320318,0.0421 -0.405506,-0.0957 z M 64.661186,134.826 c -1.018646,-0.70116 -2.020443,-1.2104 -2.226216,-1.13163 -0.224355,0.0859 -0.303251,0.0285 -0.197075,-0.14328 0.09738,-0.15756 -0.150977,-0.54754 -0.551909,-0.86661 -0.653407,-0.52 -0.660405,-0.54117 -0.06751,-0.20415 2.253903,1.28115 4.7625,2.94691 4.7625,3.16241 0,0.13904 0.137459,0.16786 0.305464,0.064 0.189257,-0.11696 0.233643,-0.0726 0.116676,0.11668 -0.23246,0.37613 0.03355,0.5 -2.141931,-0.99744 z m 70.796924,-3.34935 c 0.0127,-0.30823 0.0754,-0.37092 0.15985,-0.15986 0.0764,0.191 0.067,0.4192 -0.0209,0.50712 -0.0879,0.0879 -0.15045,-0.0684 -0.13897,-0.34726 z M 97.337226,112.74567 c 0,-0.0549 0.20836,-0.2633 0.463021,-0.46302 0.419645,-0.3291 0.429004,-0.31975 0.0999,0.0999 -0.345643,0.44073 -0.562917,0.58089 -0.562917,0.36312 z"
         id="path1917" /><path
         style="fill:#606060;fill-opacity:1;stroke-width:0.264583"
         d="m 92.351918,191.42682 c 0,-0.3638 0.06006,-0.51263 0.133453,-0.33073 0.0734,0.1819 0.0734,0.47956 0,0.66146 -0.0734,0.1819 -0.133453,0.0331 -0.133453,-0.33073 z m 2.411537,-1.5875 c 0,-0.65484 0.0516,-0.92273 0.114663,-0.59531 0.06307,0.32742 0.06307,0.8632 0,1.19062 -0.06306,0.32743 -0.114663,0.0595 -0.114663,-0.59531 z m 2.645833,-3.175 c 0,-0.65484 0.0516,-0.92273 0.114663,-0.59531 0.06307,0.32742 0.06307,0.8632 0,1.19062 -0.06306,0.32743 -0.114663,0.0595 -0.114663,-0.59531 z m -5.01446,-0.79375 c 0,-0.94588 0.04802,-1.33284 0.106715,-0.85989 0.05869,0.47294 0.05869,1.24684 0,1.71979 -0.05869,0.47294 -0.106715,0.086 -0.106715,-0.8599 z m 2.093365,0.79375 c 0,-0.50932 0.05445,-0.71768 0.121002,-0.46302 0.06655,0.25466 0.06655,0.67138 0,0.92604 -0.06655,0.25466 -0.121002,0.0463 -0.121002,-0.46302 z m -4.62236,-2.30379 c 0.329117,-0.0633 0.805367,-0.0609 1.058333,0.005 0.252965,0.0662 -0.01632,0.118 -0.598398,0.11507 -0.582083,-0.003 -0.789053,-0.0571 -0.459935,-0.12041 z m 44.133197,-21.43115 c -0.14359,-0.37709 -0.1132,-0.40748 0.14811,-0.14812 0.18082,0.17948 0.26212,0.39297 0.18065,0.47444 -0.0815,0.0815 -0.2294,-0.0654 -0.32876,-0.32632 z m -45.075553,-2.77631 c -0.174625,-0.17462 -0.313881,-0.44252 -0.309454,-0.59531 0.0044,-0.1528 0.133098,-0.0628 0.28594,0.19988 0.228756,0.39322 0.34902,0.41866 0.680104,0.14389 0.221215,-0.1836 0.598559,-0.36096 0.838538,-0.39416 0.316505,-0.0438 0.264798,0.0802 -0.188293,0.45143 -0.730274,0.59833 -0.880449,0.62066 -1.306835,0.19427 z m 12.978133,-0.50649 c -0.71376,-0.4571 -0.95374,-1.02809 -0.43211,-1.02809 0.0728,0 0.0587,0.11906 -0.0312,0.26458 -0.14985,0.24246 0.21159,0.38242 0.74727,0.28936 0.11996,-0.0208 0.15041,0.0717 0.0677,0.20553 -0.23566,0.38131 0.53538,0.55787 0.92601,0.21204 0.29021,-0.25694 0.29018,-0.23074 -1.6e-4,0.15297 -0.1927,0.25466 -0.36555,0.46101 -0.38412,0.45856 -0.0186,-0.002 -0.42056,-0.25218 -0.89332,-0.55495 z m -8.466988,-0.0996 c -0.472942,-0.20556 -0.858072,-0.52832 -0.855845,-0.71724 0.0029,-0.24599 0.07686,-0.23084 0.260533,0.0534 0.141065,0.21828 0.258305,0.293 0.260532,0.16604 0.0021,-0.12696 0.163833,-0.0982 0.359125,0.0638 0.195289,0.16208 0.433414,0.21634 0.529166,0.12059 0.09575,-0.0958 0.174094,-0.0411 0.174094,0.12139 0,0.17225 0.634454,0.33529 1.521354,0.39094 l 1.521354,0.0955 -1.455209,0.0397 c -0.800364,0.0218 -1.842161,-0.12852 -2.315104,-0.33408 z m 3.902604,-0.1788 c 0,-0.16977 0.07834,-0.23034 0.174094,-0.13459 0.09575,0.0957 0.333877,0.0415 0.529166,-0.12059 0.223242,-0.18527 0.355074,-0.19493 0.355074,-0.026 0,0.14777 -0.188331,0.34095 -0.418516,0.42927 -0.575405,0.22081 -0.639818,0.2059 -0.639818,-0.14808 z m -6.155938,-0.31137 c 0.10709,-0.1683 0.196535,-0.38537 0.198763,-0.48238 0.0021,-0.097 0.112437,-0.27561 0.244909,-0.39688 0.138403,-0.12669 0.165161,-0.0883 0.0629,0.0902 -0.09787,0.17089 5.3e-4,0.34948 0.218734,0.39688 0.272055,0.0591 0.189847,0.1823 -0.261668,0.39216 -0.498292,0.23159 -0.611015,0.23159 -0.463642,0 z m 7.938936,-0.46224 c 0.352899,-0.36753 0.675564,-0.51412 0.798161,-0.36263 0.113185,0.13986 0.153775,0.22411 0.09019,0.18722 -0.06356,-0.0369 -0.422701,0.12629 -0.798119,0.36263 l -0.68258,0.4297 z m -6.489784,-1.13998 c 0.18764,-0.20361 0.382849,-0.33059 0.433803,-0.28219 0.156935,0.14908 -0.240808,0.65238 -0.515562,0.65238 -0.142671,0 -0.105878,-0.16659 0.08176,-0.37019 z m 0.738037,-0.25888 c 0,-0.0549 0.208359,-0.2633 0.46302,-0.46302 0.419645,-0.3291 0.429004,-0.31975 0.0999,0.0999 -0.345643,0.44073 -0.562916,0.58089 -0.562916,0.36312 z m 3.571874,-1.37849 -0.79375,-0.68201 0.859896,0.56905 c 0.472943,0.31298 0.859896,0.62048 0.859896,0.68332 0,0.19806 -0.112043,0.12905 -0.926042,-0.57036 z m -2.6206,0.11464 c 0.08803,-0.14242 0.226468,-0.19254 0.307647,-0.11136 0.08118,0.0812 0.337148,0.006 0.568818,-0.16807 0.35158,-0.26349 0.366985,-0.2548 0.09317,0.0525 -0.376266,0.42233 -1.211154,0.6177 -0.969632,0.2269 z m 47.866219,-1.27905 c -0.0927,-0.14999 0.0135,-0.19434 0.24897,-0.10399 0.45837,0.17589 0.54224,0.36554 0.16165,0.36554 -0.13693,0 -0.32171,-0.1177 -0.41062,-0.26155 z m -49.412806,-1.52656 c -0.400182,-0.24812 -0.727604,-0.54617 -0.727604,-0.66234 0,-0.11617 0.357187,0.0529 0.79375,0.37562 0.697725,0.51585 0.94393,0.7679 0.727604,0.74487 -0.03638,-0.004 -0.393568,-0.21004 -0.79375,-0.45815 z m 5.743633,-0.34644 c -0.11648,-0.18847 -0.09435,-0.26131 0.05192,-0.17091 0.140205,0.0867 0.585414,-0.19261 0.989348,-0.62058 0.403937,-0.42797 0.863245,-0.77813 1.020675,-0.77813 0.15744,0 0.23534,0.0298 0.1731,0.0661 -0.0622,0.0364 -0.54492,0.46345 -1.072606,0.94904 -0.691521,0.63634 -1.01613,0.79116 -1.162442,0.55443 z m -7.264987,-0.79148 c 0,-0.15411 0.119062,-0.20662 0.264583,-0.11668 0.145521,0.0899 0.264584,0.21603 0.264584,0.2802 0,0.0642 -0.119063,0.11668 -0.264584,0.11668 -0.145521,0 -0.264583,-0.12609 -0.264583,-0.2802 z m -2.062221,-0.92853 c -0.552458,-0.38696 -0.58235,-1.10191 -0.03185,-0.76168 0.13784,0.0852 0.169612,0.28596 0.07061,0.44615 -0.11693,0.1892 -0.0209,0.23021 0.274008,0.11704 0.249711,-0.0958 0.387564,-0.0667 0.30634,0.0647 -0.08123,0.13143 0.0019,0.29926 0.184695,0.37296 0.182808,0.0737 0.210042,0.1434 0.06052,0.15489 -0.149524,0.0115 -0.538467,-0.16585 -0.864323,-0.39409 z m 11.967811,-0.32102 c 0.0367,-0.25004 0.15113,-0.41964 0.25428,-0.37688 0.10315,0.0428 0.41526,-0.19536 0.69358,-0.52916 0.27831,-0.33381 0.50999,-0.49113 0.51483,-0.34961 0.005,0.14152 0.19554,-0.009 0.42378,-0.33516 0.22824,-0.32585 0.52066,-0.52715 0.64984,-0.44731 0.12917,0.0798 0.43237,-0.1563 0.67378,-0.52474 0.24141,-0.36844 0.57519,-0.66989 0.74173,-0.66989 0.16654,0 0.4544,-0.24275 0.63968,-0.53944 0.18529,-0.29668 0.45205,-0.46825 0.59281,-0.38126 0.14077,0.087 0.25593,0.0432 0.25593,-0.0973 0,-0.23414 4.95906,-4.11497 7.14375,-5.59051 l 0.92604,-0.62545 -0.7771,0.83886 c -0.42741,0.46137 -0.87198,0.83886 -0.98794,0.83886 -0.11596,0 -1.96892,1.4036 -4.11769,3.11912 -7.63811,6.09807 -7.69651,6.14148 -7.6273,5.66988 z m -13.185627,-0.54282 c -0.07495,-0.12127 0.03185,-0.22049 0.237329,-0.22049 0.205478,0 0.312277,0.0992 0.237328,0.22049 -0.07495,0.12126 -0.181745,0.22048 -0.237328,0.22048 -0.05558,0 -0.162383,-0.0992 -0.237329,-0.22048 z m -1.187725,-0.80587 c -0.395983,-0.30448 -0.524214,-0.55162 -0.344006,-0.66299 0.158017,-0.0977 0.418312,0.0672 0.578435,0.36643 0.160123,0.29919 0.422619,0.46272 0.583321,0.3634 0.176295,-0.10895 0.217308,-0.0594 0.103402,0.12488 -0.232323,0.37591 -0.1646,0.39001 -0.921152,-0.19172 z m -1.206812,-0.80313 c -0.08519,-0.13784 -0.04211,-0.32032 0.09573,-0.40551 0.13784,-0.0852 0.320318,-0.0421 0.405506,0.0957 0.08519,0.13784 0.04211,0.32032 -0.09573,0.4055 -0.13784,0.0852 -0.320317,0.0421 -0.405505,-0.0957 z m -1.564114,-0.97453 c -0.537398,-0.36517 -0.906248,-0.77857 -0.819666,-0.91866 0.08658,-0.14009 0.270196,-0.18501 0.408036,-0.0998 0.13784,0.0852 0.182118,0.26573 0.09839,0.40119 -0.140343,0.22708 0.23654,0.36176 0.758571,0.27108 0.119957,-0.0208 0.130191,0.10436 0.02273,0.27821 -0.132453,0.21432 -0.05632,0.26275 0.236445,0.15041 0.455459,-0.17478 0.88197,0.2049 0.497266,0.44266 -0.123584,0.0764 -0.664387,-0.1599 -1.201785,-0.52507 z m -1.610886,-1.14214 c -0.08519,-0.13784 -0.04211,-0.32032 0.09573,-0.4055 0.13784,-0.0852 0.320318,-0.0421 0.405506,0.0957 0.08519,0.13784 0.04211,0.32032 -0.09573,0.40551 -0.13784,0.0852 -0.320318,0.0421 -0.405506,-0.0957 z m -0.780463,-0.50767 c -0.07495,-0.12126 0.03185,-0.22048 0.237329,-0.22048 0.205478,0 0.312277,0.0992 0.237328,0.22048 -0.07494,0.12127 -0.181744,0.22049 -0.237328,0.22049 -0.05558,0 -0.162383,-0.0992 -0.237329,-0.22049 z m -1.553337,-0.97967 c -1.098304,-0.74632 -1.157917,-0.82831 -0.602223,-0.82831 0.211881,0 0.311412,0.11945 0.221181,0.26545 -0.09746,0.15769 0.01304,0.19749 0.272185,0.098 0.282313,-0.10833 0.53571,0.0185 0.718137,0.35933 0.155041,0.2897 0.41338,0.44546 0.574082,0.34614 0.176295,-0.10896 0.217308,-0.0594 0.103402,0.12488 -0.239294,0.38719 -0.135744,0.4166 -1.286764,-0.36553 z m -2.160119,-1.45085 c -0.42668,-0.27262 -0.90293,-0.41965 -1.058333,-0.32675 -0.155401,0.0929 -0.11022,-0.0433 0.100407,-0.30263 0.367278,-0.45226 0.39706,-0.45227 0.727604,-2.2e-4 0.189555,0.25923 0.348268,0.35928 0.352695,0.22233 0.0044,-0.13696 0.130804,-0.0382 0.280844,0.21957 0.15004,0.25773 0.402939,0.38816 0.562002,0.28985 0.173378,-0.10715 0.213592,-0.0564 0.100414,0.12673 -0.103833,0.168 -0.211526,0.29676 -0.239318,0.28612 -0.02779,-0.0106 -0.399632,-0.24239 -0.826315,-0.515 z m -4.353351,-2.93548 c -1.490096,-1.03227 -2.657533,-1.92858 -2.594308,-1.9918 0.153927,-0.15393 2.828652,1.51817 2.828652,1.76832 0,0.108 0.267891,0.26625 0.595313,0.35168 0.723225,0.18871 2.24237,1.3819 2.031209,1.59538 -0.08338,0.0843 -1.370772,-0.69131 -2.860866,-1.72358 z m -8.974492,-0.63122 c 0.0054,-0.43656 0.06469,-0.58312 0.131774,-0.32569 0.06708,0.25743 0.06267,0.61462 -0.0098,0.79375 -0.07248,0.17913 -0.127363,-0.0315 -0.121971,-0.46806 z m 3.712308,-2.90823 c -0.913037,-0.61461 -1.746475,-1.21462 -1.852083,-1.33338 -0.210981,-0.23723 1.536591,0.76226 2.586112,1.47909 0.363802,0.24847 0.899583,0.49896 1.190624,0.55663 0.40957,0.0812 0.439471,0.13992 0.132292,0.25999 -0.227663,0.089 -1.104667,-0.32131 -2.056945,-0.96233 z m 63.655248,-3.49022 c 0.191,-0.0764 0.4192,-0.067 0.50712,0.0209 0.0879,0.0879 -0.0684,0.15045 -0.34726,0.13896 -0.30823,-0.0127 -0.37092,-0.0754 -0.15986,-0.15985 z M 96.675768,113.37474 c 0.26339,-0.29105 0.538422,-0.52917 0.611182,-0.52917 0.07276,0 -0.08321,0.23812 -0.346599,0.52917 -0.26339,0.29104 -0.538421,0.52916 -0.611182,0.52916 -0.07276,0 0.08321,-0.23812 0.346599,-0.52916 z m 19.182292,-2.24896 c 0,-0.21828 0.0468,-0.39688 0.10398,-0.39688 0.0572,0 0.17252,0.1786 0.25628,0.39688 0.0838,0.21828 0.037,0.39687 -0.10398,0.39687 -0.14095,0 -0.25628,-0.17859 -0.25628,-0.39687 z"
         id="path1915" /><path
         style="fill:#494949;fill-opacity:1;stroke-width:0.264583"
         d="m 104.11402,191.90757 c 0.0764,-0.12364 0.24977,-0.1563 0.38524,-0.0726 0.34617,0.21394 0.3072,0.29738 -0.13894,0.29738 -0.21188,0 -0.32271,-0.10116 -0.2463,-0.22481 z m -11.781228,-1.14221 c 0.02755,-0.50118 0.468513,-1.3451 0.48387,-0.92604 0.008,0.21828 -0.10087,0.57547 -0.241935,0.79375 -0.141066,0.21828 -0.249936,0.27781 -0.241935,0.13229 z m 5.083719,-1.71979 c 0,-0.80036 0.0496,-1.12779 0.110223,-0.7276 0.06062,0.40018 0.06062,1.05502 0,1.45521 -0.06062,0.40018 -0.110223,0.0728 -0.110223,-0.72761 z m 5.038499,-1.19062 c 0.001,-1.16417 0.0475,-1.60751 0.10337,-0.9852 0.0559,0.62231 0.0551,1.57481 -0.002,2.11667 -0.0568,0.54185 -0.10258,0.0327 -0.10162,-1.13147 z m -9.859395,1.03628 c 0.0127,-0.30822 0.07539,-0.37092 0.159851,-0.15985 0.07643,0.19099 0.06703,0.4192 -0.02088,0.50712 -0.08792,0.0879 -0.150452,-0.0683 -0.138964,-0.34727 z m -0.264583,-1.05833 c 0.0127,-0.30823 0.07539,-0.37092 0.159851,-0.15985 0.07643,0.19099 0.06703,0.4192 -0.02088,0.50711 -0.08792,0.0879 -0.150453,-0.0684 -0.138964,-0.34726 z m 2.116667,0 c 0.0127,-0.30823 0.07539,-0.37092 0.15985,-0.15985 0.07643,0.19099 0.06703,0.4192 -0.02088,0.50711 -0.08792,0.0879 -0.150453,-0.0684 -0.138965,-0.34726 z m 2.910416,-2.64583 c 0.0127,-0.30823 0.07539,-0.37092 0.159851,-0.15986 0.07643,0.191 0.06703,0.4192 -0.02088,0.50712 -0.08792,0.0879 -0.150452,-0.0684 -0.138964,-0.34726 z m -11.199534,-0.82614 c 0.327422,-0.0631 0.863203,-0.0631 1.190625,0 0.327422,0.0631 0.05953,0.11466 -0.595313,0.11466 -0.654843,0 -0.922734,-0.0516 -0.595312,-0.11466 z m 45.096889,-13.96848 c 0.005,-0.43657 0.0647,-0.58313 0.13178,-0.3257 0.0671,0.25743 0.0627,0.61462 -0.01,0.79375 -0.0725,0.17913 -0.12736,-0.0315 -0.12197,-0.46805 z m -77.414947,-5.11528 c -0.07495,-0.12127 0.03185,-0.22049 0.23733,-0.22049 0.205478,0 0.312277,0.0992 0.237329,0.22049 -0.07495,0.12127 -0.181745,0.22048 -0.237329,0.22048 -0.05558,0 -0.162383,-0.0992 -0.23733,-0.22048 z m 11.06866,-2.62925 c 0.09031,-0.0903 0.350251,-0.1915 0.577655,-0.22488 0.227404,-0.0334 0.339574,0.0132 0.249267,0.10352 -0.09031,0.0903 -0.350252,0.1915 -0.577655,0.22487 -0.227404,0.0334 -0.339574,-0.0132 -0.249267,-0.10351 z m 36.417737,-3.56623 c -0.78885,-0.45647 -1.29839,-0.87524 -1.13231,-0.93059 0.16607,-0.0554 0.75196,0.22894 1.30197,0.63179 1.95065,1.42871 1.90918,1.50173 -0.16966,0.2988 z m -10.523378,-0.045 c 0.775767,-0.71353 1.362991,-0.86464 1.63702,-0.42125 0.09351,0.1513 -0.01558,0.19354 -0.258824,0.1002 -0.231259,-0.0887 -0.624395,0.0136 -0.873638,0.22737 -0.825828,0.70839 -1.260652,0.78911 -0.504558,0.0937 z m 4.086289,0.44871 c 0.472942,-0.0587 1.246849,-0.0587 1.719791,0 0.472943,0.0587 0.08599,0.10672 -0.859896,0.10672 -0.945885,0 -1.332838,-0.048 -0.859895,-0.10672 z m -0.606952,-3.30643 c 0.588486,-0.54136 1.168405,-0.98785 1.288711,-0.99219 0.120304,-0.004 -0.177352,0.31224 -0.661458,0.70353 -1.484384,1.19976 -1.751078,1.32249 -0.627253,0.28866 z m 3.318931,-2.67917 c 0,-0.0606 0.446484,-0.44398 0.992187,-0.85194 0.812599,-0.60749 0.896943,-0.63268 0.465982,-0.13919 -0.501465,0.57423 -1.458169,1.22451 -1.458169,0.99113 z m -8.954812,-3.07765 c -0.895686,-0.57891 -1.628521,-1.11209 -1.628521,-1.18485 0,-0.1183 3.089306,1.79895 3.40111,2.11075 0.374891,0.37489 -0.328367,0.008 -1.772589,-0.9259 z m 11.865232,0.68612 c 0,-0.056 0.32742,-0.31258 0.7276,-0.57012 l 0.7276,-0.46826 -0.50402,0.57012 c -0.44603,0.50451 -0.95118,0.7532 -0.95118,0.46826 z m -16.868958,-4.00262 c -1.636138,-1.0933 -2.974795,-2.04847 -2.974795,-2.12259 0,-0.13111 5.43796,3.42151 5.939896,3.88054 0.64195,0.58707 -0.22455,0.0733 -2.965101,-1.75795 z m 20.176248,1.45865 c 0.26339,-0.29104 0.53842,-0.52917 0.61118,-0.52917 0.0728,0 -0.0832,0.23813 -0.3466,0.52917 -0.26339,0.29104 -0.53842,0.52917 -0.61118,0.52917 -0.0728,0 0.0832,-0.23813 0.3466,-0.52917 z m -54.615571,-4.12309 c 0.0127,-0.30823 0.07539,-0.37092 0.159853,-0.15985 0.07643,0.19099 0.06703,0.4192 -0.02089,0.50712 -0.08792,0.0879 -0.150453,-0.0684 -0.138965,-0.34727 z m 30.070737,-0.25207 c -0.543102,-0.36905 -0.987459,-0.72793 -0.987459,-0.79751 0,-0.0696 0.47625,0.18866 1.058333,0.57387 0.924229,0.61162 1.236605,0.89463 0.98746,0.89463 -0.03898,0 -0.515229,-0.30194 -1.058334,-0.67099 z m 53.008424,-2.65835 c 0.0127,-0.30822 0.0754,-0.37092 0.15985,-0.15985 0.0764,0.191 0.067,0.4192 -0.0209,0.50712 -0.0879,0.0879 -0.15045,-0.0684 -0.13897,-0.34727 z m -71.458383,-5.13732 c 0,-0.14552 0.119063,-0.26459 0.264584,-0.26459 0.145521,0 0.264583,0.11907 0.264583,0.26459 0,0.14552 -0.119062,0.26458 -0.264583,0.26458 -0.145521,0 -0.264584,-0.11906 -0.264584,-0.26458 z m 26.764691,-2.64584 c 0,-0.3638 0.06006,-0.51263 0.133454,-0.33073 0.0734,0.1819 0.0734,0.47956 0,0.66146 -0.0734,0.1819 -0.133454,0.0331 -0.133454,-0.33073 z m 43.879062,0.008 c 0,-0.14096 0.17859,-0.18775 0.39687,-0.10399 0.21828,0.0838 0.39688,0.19909 0.39688,0.25628 0,0.0572 -0.1786,0.10399 -0.39688,0.10399 -0.21828,0 -0.39687,-0.11533 -0.39687,-0.25628 z m -39.635923,-0.66977 c 0.0054,-0.43656 0.06469,-0.58312 0.131773,-0.32569 0.06708,0.25743 0.06267,0.61462 -0.0098,0.79375 -0.07248,0.17913 -0.127362,-0.0315 -0.12197,-0.46806 z m -7.362028,-14.94895 c 0,-1.52797 0.04373,-2.15305 0.09718,-1.38907 0.05345,0.76399 0.05345,2.01414 0,2.77813 -0.05345,0.76398 -0.09718,0.1389 -0.09718,-1.38906 z m -1.114444,-3.70417 c 0,-0.3638 0.06006,-0.51263 0.133453,-0.33073 0.0734,0.1819 0.0734,0.47956 0,0.66146 -0.0734,0.1819 -0.133453,0.0331 -0.133453,-0.33073 z m 1.058334,-1.05833 c 0,-0.36381 0.06006,-0.51263 0.133453,-0.33073 0.0734,0.1819 0.0734,0.47955 0,0.66145 -0.0734,0.18191 -0.133453,0.0331 -0.133453,-0.33072 z"
         id="path1913" /><path
         style="fill:#333333;fill-opacity:1;stroke-width:0.264583"
         d="m 89.292658,192.43049 c -0.358003,-0.20034 -0.422098,-0.85695 -0.422098,-4.32411 v -4.08789 l 1.256771,0.0462 1.256771,0.0462 -1.12448,0.10128 -1.124479,0.10128 v 1.58081 c 0,1.38185 0.07247,1.60762 0.575802,1.79382 l 0.575803,0.213 -0.575803,0.15058 c -0.527065,0.13783 -0.575802,0.31928 -0.575802,2.14375 v 1.99317 l 0.992188,0.0821 c 0.889156,0.0736 0.91925,0.0984 0.289806,0.23905 -0.386308,0.0863 -0.892323,0.0506 -1.124479,-0.0793 z m -4.317365,-0.40836 c 0.300686,-1.02975 1.99667,-5.57027 2.274588,-6.08957 0.484899,-0.90604 0.352695,-1.1201 -0.694425,-1.12437 -0.545703,-0.002 -1.170781,-0.13162 -1.389063,-0.28754 -0.311218,-0.2223 -0.254113,-0.25076 0.264584,-0.13185 0.363802,0.0834 1.106204,0.15326 1.649785,0.15524 l 0.988327,0.004 -0.553598,1.38906 c -0.30448,0.76399 -0.947642,2.48428 -1.42925,3.82287 l -0.875652,2.4338 1.234673,0.0982 1.234673,0.0982 -1.419921,0.0477 c -1.239176,0.0416 -1.402712,-0.0112 -1.284721,-0.41533 z m 7.5234,-1.19062 c -0.08201,-0.90951 -0.05863,-2.78474 0.05196,-4.16719 0.187754,-2.34706 0.200462,-2.23753 0.191834,1.65365 -0.0051,2.29195 -0.02847,4.16718 -0.05196,4.16718 -0.02349,0 -0.109824,-0.74414 -0.191834,-1.65364 z m 4.740714,1.05833 c -0.231391,-0.86343 -0.203311,-7.60676 0.03167,-7.60682 0.10914,-3e-5 0.180012,1.4612 0.15749,3.24717 -0.05576,4.42199 -0.0019,4.63729 1.193538,4.7639 l 0.964076,0.10211 -1.093621,0.0445 c -0.929407,0.0378 -1.117576,-0.0449 -1.253157,-0.55084 z m 3.403233,-0.2944 c -0.63661,-1.52364 -0.937266,-4.08891 -0.63651,-5.43095 0.51078,-2.27919 1.81518,-2.87697 2.53236,-1.16052 0.5703,1.36492 0.40513,5.77082 -0.25406,6.77686 -0.62294,0.95074 -1.19402,0.88625 -1.64179,-0.18539 z m 1.49113,-0.23476 c 0.53631,-1.27104 0.4976,-6.13019 -0.0532,-6.68101 -0.52319,-0.52319 -1.14313,-0.29809 -1.53249,0.55645 -0.764454,1.6778 0.0126,6.98445 1.0228,6.98445 0.11004,0 0.36336,-0.38695 0.56291,-0.85989 z m 2.01195,0.66145 c -0.22949,-0.25466 -0.48811,-0.8202 -0.57469,-1.25677 -0.12682,-0.63944 -0.0543,-0.57167 0.37301,0.34862 0.46047,0.9917 0.62683,1.13129 1.26129,1.05833 0.65755,-0.0756 0.73913,-0.19914 0.81335,-1.2318 0.0764,-1.06271 -0.0168,-1.25272 -1.25677,-2.56385 -1.49889,-1.58485 -1.71457,-2.53263 -0.79979,-3.51453 1.0454,-1.12211 2.51616,-0.52911 2.29741,0.9263 -0.1076,0.71591 -0.11325,0.71176 -0.15141,-0.11126 -0.0315,-0.67903 -0.17788,-0.88955 -0.71176,-1.02354 -0.45733,-0.11478 -0.83782,-0.0187 -1.19063,0.30055 -0.85374,0.77263 -0.63988,1.63543 0.79436,3.20472 1.40193,1.53393 1.85945,2.81335 1.34788,3.76923 -0.37122,0.69362 -1.61407,0.74667 -2.20225,0.094 z m -9.589354,-0.60777 c -0.09739,-0.44341 -0.09386,-1.91605 0.0078,-3.27254 0.211932,-2.82675 0.07229,-3.51512 -0.745214,-3.67366 -0.320543,-0.0622 0.191103,-0.11019 1.136988,-0.10671 0.945886,0.003 1.350629,0.053 0.89943,0.11007 l -0.820362,0.10377 -0.171262,2.99863 c -0.0942,1.64924 -0.0971,3.36943 -0.0065,3.82264 0.212892,1.06445 -0.06743,1.08104 -0.300953,0.0178 z M 132.64097,178.9914 c 0.10238,-0.3638 0.29171,-1.01864 0.42073,-1.4552 0.12902,-0.43657 0.3827,-1.29602 0.56374,-1.9099 0.18104,-0.61387 0.25191,-1.19338 0.1575,-1.28779 -0.0944,-0.0944 -0.71332,-0.23271 -1.37535,-0.30733 -1.28092,-0.14438 -1.37233,-0.23537 -0.86455,-0.86061 0.4473,-0.55078 3.80762,-3.43958 4.00099,-3.43958 0.28425,0 0.15865,0.89861 -0.35134,2.51354 -0.27702,0.87724 -0.40087,1.69274 -0.27681,1.82273 0.12524,0.13122 0.0147,0.42369 -0.25004,0.66146 -0.261,0.23442 -0.73164,1.31489 -1.04586,2.40103 -0.31422,1.08614 -0.70493,2.09817 -0.86824,2.24896 -0.21645,0.19985 -0.24647,0.0949 -0.11077,-0.38731 z m 1.97527,-6.43406 c 0.21098,-0.67939 0.311,-1.30786 0.22227,-1.3966 -0.22539,-0.22539 -2.60156,1.80172 -2.49316,2.12691 0.0935,0.28067 1.19466,0.66106 1.62968,0.563 0.14168,-0.0319 0.43022,-0.61393 0.64121,-1.29331 z m -7.1623,5.54274 c -0.68002,-0.16462 -1.31678,-0.38044 -1.41502,-0.47961 -0.20669,-0.20863 1.25684,-2.19178 2.89953,-3.92899 2.05125,-2.16928 2.54522,-3.8562 1.35714,-4.63466 -0.84054,-0.55074 -1.62949,-0.15548 -1.86934,0.93655 -0.0962,0.43777 -0.29245,0.79595 -0.43621,0.79595 -0.31024,0 -0.0625,-0.94248 0.46938,-1.78594 0.46459,-0.7367 1.68728,-0.79578 2.30659,-0.11146 0.51348,0.56739 0.56779,2.29976 0.0978,3.11895 -0.17675,0.30805 -0.99572,1.32008 -1.81995,2.24896 -2.11028,2.37822 -2.64184,3.08975 -2.40867,3.22416 0.1117,0.0644 0.76587,0.19866 1.4537,0.29836 0.68783,0.0997 1.31994,0.29348 1.40468,0.43059 0.19143,0.30974 -0.43761,0.27494 -2.03961,-0.11286 z m -63.707196,-1.07907 c -0.489451,-0.58976 -0.3765,-4.51301 0.174005,-6.04391 0.517797,-1.43995 1.965677,-3.0982 2.70515,-3.0982 0.266219,0 0.634696,0.18154 0.818841,0.40342 0.744553,0.89713 -0.402003,6.88601 -1.613062,8.42563 -0.603076,0.76668 -1.585973,0.91427 -2.084934,0.31306 z m 2.128427,-0.98367 c 0.487375,-0.91067 1.268039,-3.87466 1.442942,-5.47849 0.118467,-1.08634 0.06003,-1.62593 -0.215972,-1.99419 -0.372313,-0.49676 -0.389612,-0.49676 -1.078155,0 -1.220936,0.88088 -2.107946,3.0701 -2.236532,5.51998 -0.09329,1.77739 -0.03417,2.24128 0.332357,2.6078 0.525036,0.52504 1.273201,0.24582 1.75536,-0.6551 z m -5.711902,0.38415 c -0.826255,-0.19874 -1.175087,-0.66708 -0.418456,-0.56182 0.706563,0.0983 0.587361,0.36568 1.747423,-3.9195 0.769439,-2.84226 0.841358,-3.85143 0.258533,-3.62778 -0.218281,0.0838 -0.396875,0.0406 -0.396875,-0.0959 0,-0.27541 1.259667,-1.02021 1.429333,-0.84511 0.128985,0.13311 -0.606698,3.54101 -1.391702,6.44677 -0.583028,2.15813 -0.551834,2.38419 0.359244,2.60333 0.34352,0.0826 0.250696,0.12728 -0.264583,0.12728 -0.436563,0 -1.031875,-0.0573 -1.322917,-0.12728 z m -7.937315,-5.20271 c 0.541597,-0.39603 0.452915,-0.67407 -1.675976,-5.25463 -0.648573,-1.39548 -1.102334,-1.91424 -1.102334,-1.26025 0,0.14552 -0.102552,0.26459 -0.227893,0.26459 -0.125341,0 -0.170992,-0.29766 -0.101447,-0.66146 0.06954,-0.3638 0.229209,-0.66146 0.354807,-0.66146 0.282951,0 1.114037,1.55917 2.397525,4.49792 0.869938,1.99185 1.059807,2.24776 1.660867,2.23853 0.936591,-0.0144 0.840153,0.19438 -0.340907,0.73803 -1.205813,0.55504 -1.651002,0.60061 -0.964642,0.0987 z m 3.842571,-4.64994 -1.174841,-2.39686 -0.5523,0.69265 c -0.697575,0.87484 -1.447164,0.75672 -1.859521,-0.29302 -0.672047,-1.71083 0.586876,-3.4142 1.747242,-2.36409 0.280613,0.25395 0.510206,0.55812 0.510206,0.67594 0,0.11781 0.598073,1.43053 1.329052,2.91715 0.730978,1.48662 1.294391,2.80692 1.252027,2.93401 -0.04236,0.12709 -0.605702,-0.84751 -1.251865,-2.16578 z m -1.851832,-2.01445 c 0.369562,-0.97202 0.325211,-1.30004 -0.270956,-2.00399 -0.519119,-0.61297 -0.536399,-0.61504 -0.926041,-0.11103 -0.218379,0.28247 -0.397052,0.88374 -0.397052,1.33615 0,1.44548 1.130577,1.99789 1.594049,0.77887 z m 81.948137,1.19392 c -1.66471,-1.22899 -2.1658,-1.83816 -1.51205,-1.83816 0.15064,0 0.57108,0.19473 0.9343,0.43272 0.36323,0.23799 0.69961,0.38682 0.74751,0.33073 2.66952,-3.12571 7.30472,-9.34834 7.30472,-9.80639 0,-0.11961 -0.30758,-0.21747 -0.68351,-0.21747 -0.42882,0 -0.6427,-0.12324 -0.57401,-0.33073 0.14284,-0.43143 2.25839,-0.8909 2.58734,-0.56195 0.31446,0.31446 -2.75193,4.84694 -5.72303,8.45933 -1.22176,1.48545 -2.22137,2.81773 -2.22137,2.96062 0,0.14288 0.29765,0.45482 0.66145,0.69319 0.60834,0.3986 0.92653,1.22721 0.46302,1.20578 -0.10914,-0.005 -1.0021,-0.6025 -1.98437,-1.32767 z m -4.38438,-3.6051 c -1.19023,-0.82267 -2.16406,-1.64938 -2.16406,-1.83712 0,-0.41344 2.58752,-1.93549 6.37229,-3.74835 3.62434,-1.73602 4.7445,-2.93996 4.4831,-4.81842 -0.0938,-0.67433 -0.85098,-1.32292 -1.54433,-1.32292 -0.43205,0 -0.99961,0.36668 -1.63814,1.05834 -0.53738,0.58208 -1.05487,1.05833 -1.14998,1.05833 -0.36063,0 -0.14892,-0.643 0.4856,-1.4749 1.67396,-2.19467 4.63313,-1.42437 4.63313,1.20606 0,2.10902 -1.43055,3.41672 -5.95313,5.44188 -1.97226,0.88316 -4.62662,2.55621 -4.46652,2.81526 0.0876,0.14173 0.80779,0.67255 1.60043,1.1796 1.31961,0.84414 1.92293,1.52075 1.62325,1.82043 -0.0647,0.0647 -1.09141,-0.55551 -2.28164,-1.37819 z m -68.65263,0.90705 c -0.535635,-0.3991 -0.9255,-2.05052 -0.484082,-2.05052 0.163711,0 0.299479,0.26789 0.301708,0.59531 0.0071,1.04363 0.425582,1.37176 1.642799,1.28812 0.602828,-0.0414 1.263566,-1.35986 1.263566,-2.52132 0,-0.91413 -0.139683,-1.13302 -1.190625,-1.86578 -0.570679,-0.3979 -0.490986,-0.4633 0.943657,-0.77439 0.998511,-0.21651 1.471002,-1.23939 1.046218,-2.26491 -0.183856,-0.44387 -0.477678,-0.80703 -0.652938,-0.80703 -0.429779,0 -1.385951,1.06475 -1.544415,1.71979 -0.103325,0.42711 -0.133932,0.39847 -0.158705,-0.14855 -0.06516,-1.4387 1.986549,-2.4812 2.605833,-1.32405 0.607528,1.13517 0.04671,2.87124 -1.045086,3.23517 -0.194381,0.0648 -0.148204,0.38169 0.139721,0.95885 1.113949,2.23296 -1.093719,5.28104 -2.867651,3.95931 z m -2.832259,-0.58128 c -0.972637,-0.2703 -1.073671,-0.35032 -0.551835,-0.43704 0.566739,-0.0942 0.720678,-0.41137 1.364771,-2.81201 0.399289,-1.48822 0.808933,-3.19684 0.91032,-3.79695 0.178313,-1.05543 0.164035,-1.08466 -0.436654,-0.89401 -0.561431,0.17819 -0.585214,0.15398 -0.247954,-0.25239 0.205171,-0.24721 0.599805,-0.57084 0.876965,-0.71918 0.473234,-0.25327 0.492726,-0.19196 0.320048,1.00664 -0.101133,0.70198 -0.526466,2.60937 -0.945186,4.23866 -0.905771,3.52447 -0.905473,3.51995 -0.232142,3.51995 0.291042,0 0.529167,0.11907 0.529167,0.26459 0,0.31313 -0.04813,0.30955 -1.5875,-0.11826 z m 59.900329,-3.27636 c 0.10523,-0.17025 0.36288,-0.30955 0.57258,-0.30955 0.47446,0 0.49857,0.23883 -0.27087,-2.68301 -1.24565,-4.73019 -1.32148,-4.90885 -1.88497,-4.44119 -0.4673,0.38782 -0.46474,0.0471 0.006,-0.80307 l 0.36059,-0.65122 0.4362,1.04396 c 0.36201,0.86642 1.99888,6.75827 1.99888,7.1949 0,0.0728 0.29765,0.0577 0.66145,-0.0336 0.36381,-0.0913 0.66146,-0.0603 0.66146,0.069 0,0.12925 -0.38695,0.29998 -0.85989,0.3794 -0.47295,0.0794 -1.08779,0.2343 -1.36632,0.34417 -0.35506,0.14006 -0.44925,0.10724 -0.31512,-0.10978 z m 4.80463,-3.3958 c -0.27487,-1.14022 -0.57782,-2.16515 -0.67322,-2.27763 -0.0954,-0.11248 -0.62414,-0.0162 -1.17495,0.21393 -0.55082,0.23015 -1.06109,0.35885 -1.13393,0.286 -0.18346,-0.18346 1.29465,-4.66105 1.53867,-4.66105 0.21065,0 0.6196,1.16955 0.90204,2.57969 0.10499,0.5242 0.3316,0.85989 0.58047,0.85989 0.33122,0 0.34667,0.0742 0.0819,0.39325 -0.26067,0.31409 -0.23537,0.76456 0.12567,2.23781 0.24861,1.0145 0.40728,1.9788 0.35258,2.14289 -0.0547,0.16409 -0.32434,-0.63456 -0.59921,-1.77478 z m -0.78206,-3.47594 c -0.0732,-0.2471 -0.21108,-0.77587 -0.30627,-1.17504 -0.0952,-0.39918 -0.2683,-0.66693 -0.38467,-0.59501 -0.3138,0.19394 -1.06818,2.54042 -0.90277,2.80806 0.2581,0.41761 1.73925,-0.54709 1.59371,-1.03801 z m -54.662483,5.00776 c 0,-0.12733 0.372745,-0.30606 0.828321,-0.39717 0.766754,-0.15335 0.817139,-0.22956 0.67791,-1.02526 -0.813422,-4.6487 -1.061755,-5.90377 -1.530408,-7.7346 -0.612659,-2.39339 -0.707166,-2.56345 -1.067147,-1.92019 -0.274971,0.49134 -0.760759,0.62631 -0.760759,0.21136 0,-0.5323 1.140904,-2.15506 1.360651,-1.93531 0.416328,0.41633 1.36933,4.35101 2.246498,9.27517 l 0.485381,2.72478 0.996444,-0.16835 c 1.57883,-0.26674 1.160939,0.27484 -0.587062,0.76083 -1.756963,0.48848 -2.649829,0.55882 -2.649829,0.20874 z m -17.822201,-1.09426 c -0.954635,-0.83818 -1.434256,-2.01319 -0.999298,-2.44814 0.167334,-0.16734 0.4513,0.12151 0.80926,0.82317 0.618513,1.21239 1.215278,1.62783 2.338308,1.62783 1.889117,0 2.826145,-3.09359 1.704835,-5.6285 -0.647604,-1.46401 -1.603639,-2.13898 -3.060187,-2.16052 -1.046514,-0.0155 -1.129394,-0.0934 -1.00207,-0.94223 0.02183,-0.14552 0.212869,-0.26459 0.424535,-0.26459 0.579836,0 1.644243,-1.1819 1.979641,-2.19817 0.358767,-1.08707 0.05114,-2.08337 -0.975614,-3.15964 -0.875396,-0.91761 -1.46355,-0.92021 -2.179829,-0.01 -0.457507,0.58162 -0.552398,1.02134 -0.499596,2.3151 0.0503,1.23254 -0.02042,1.59711 -0.309834,1.59711 -0.905877,0 -0.760758,-3.29302 0.201944,-4.58246 1.028446,-1.37749 2.592414,-1.13986 3.915616,0.59495 0.956725,1.25433 1.033642,3.37803 0.166455,4.59588 -0.753718,1.0585 -0.724206,1.20301 0.35034,1.71542 2.752039,1.31236 3.109538,7.67868 0.487182,8.6757 -1.252501,0.4762 -2.395565,0.28818 -3.351688,-0.55131 z m 78.808654,-5.55339 c -0.43656,-0.11109 -1.27992,-0.21606 -1.87413,-0.23328 -0.59421,-0.0172 -1.15465,-0.10558 -1.24543,-0.19636 -0.2641,-0.2641 0.71931,-1.93592 2.31525,-3.93599 1.83206,-2.29597 2.89553,-4.39818 2.64249,-5.2235 -0.28958,-0.94447 -0.65587,-1.25879 -1.4669,-1.25879 -0.56798,0 -0.85438,0.19303 -1.15823,0.78061 -0.22202,0.42934 -0.40367,0.96512 -0.40367,1.19063 0,0.2255 -0.11906,0.41001 -0.26458,0.41001 -0.71289,0 0.11748,-2.43124 0.93789,-2.74606 1.61267,-0.61884 2.76627,0.28871 2.76627,2.17626 0,1.11841 -0.1689,1.51571 -1.32167,3.10885 -2.59867,3.59143 -3.48659,4.91171 -3.37696,5.02135 0.0612,0.0612 0.84578,0.18805 1.7435,0.28188 1.11457,0.1165 1.63222,0.28452 1.63222,0.52979 0,0.19755 -0.0298,0.34509 -0.0661,0.32788 -0.0364,-0.0172 -0.42333,-0.1222 -0.8599,-0.23328 z m -17.99166,-3.01938 c -0.70976,-0.56826 -0.79174,-0.7851 -0.77469,-2.04921 0.0237,-1.75499 0.77326,-3.28049 2.22077,-4.51951 0.5871,-0.50254 1.06746,-1.11065 1.06746,-1.35135 0,-0.28672 0.22108,-0.43764 0.64111,-0.43764 0.64239,0 1.92876,-1.08637 2.72464,-2.30104 0.22734,-0.34697 0.63194,-0.74784 0.8991,-0.89082 0.40274,-0.21554 0.45679,-0.1798 0.31635,0.20918 -0.26579,0.73612 -1.13909,1.9662 -2.16893,3.05504 -0.87466,0.92478 -0.91645,1.04185 -0.5666,1.5875 1.46757,2.28894 1.65998,3.57546 0.80032,5.35128 -0.9335,1.92836 -3.57259,2.61713 -5.15953,1.34657 z m 3.27585,-0.44889 c 1.66059,-0.57889 2.15185,-3.1064 0.9682,-4.98142 -0.3579,-0.56696 -0.75669,-1.09631 -0.88618,-1.17634 -0.45555,-0.28155 -2.37672,1.43068 -2.93291,2.61392 -1.33588,2.84197 0.0221,4.52997 2.85089,3.54384 z M 74.847644,146.3477 c 0,-0.52798 1.666589,-4.13338 1.910649,-4.13338 0.357584,0 0.23146,0.42767 -0.734317,2.48996 -0.937067,2.00098 -1.176332,2.33525 -1.176332,1.64342 z m 64.139716,-0.79998 c 0.49339,-0.40252 0.49474,-0.46719 0.0488,-2.33671 -0.64793,-2.7161 -1.18293,-4.50353 -1.48623,-4.96544 -0.23164,-0.35278 -0.28954,-0.35278 -0.52112,0 -0.22933,0.34934 -0.26102,0.34748 -0.26459,-0.0156 -0.002,-0.22685 0.15316,-0.62745 0.3453,-0.89022 0.31834,-0.43535 0.3871,-0.37524 0.77456,0.67704 0.41848,1.13654 0.84052,2.56033 1.66339,5.61157 0.38742,1.43657 0.46294,1.53483 1.06382,1.38402 0.35574,-0.0893 0.6468,-0.0566 0.6468,0.0727 0,0.12925 -0.38695,0.29998 -0.8599,0.3794 -0.47294,0.0794 -1.09802,0.22379 -1.38906,0.32081 -0.51873,0.17292 -0.51915,0.16823 -0.0217,-0.23757 z m 2.88434,-1.37278 c -0.64626,-0.64627 -0.67555,-0.78916 -0.51529,-2.51355 0.10813,-1.16344 0.073,-1.82832 -0.0965,-1.82832 -0.60546,0 -1.32477,-1.08691 -1.32477,-2.00177 0,-1.35015 0.40762,-1.96698 1.29983,-1.96698 1.13113,0 1.42719,0.5507 1.29305,2.40519 -0.10444,1.44379 -0.0593,1.63497 0.43117,1.82467 1.82903,0.70751 2.44529,2.99467 1.11516,4.1388 -0.93098,0.8008 -1.35498,0.78962 -2.20265,-0.058 z m 2.0775,-0.28184 c 0.78286,-0.70847 0.62846,-2.03924 -0.33019,-2.84589 -1.02704,-0.86419 -1.51153,-0.86585 -1.83833,-0.006 -0.83961,2.20834 0.67651,4.20244 2.16852,2.85218 z m -1.79957,-4.91993 c 0.43984,-1.64127 0.0443,-2.84427 -0.93518,-2.84427 -1.02676,0 -1.36551,2.03047 -0.48556,2.91042 0.69498,0.69498 1.22336,0.67038 1.42074,-0.0661 z m -83.040086,2.41389 c 0.106737,-0.77606 0.357724,-1.87488 0.55775,-2.44182 0.591758,-1.67722 0.479421,-2.99289 -0.299099,-3.50299 -0.875237,-0.57348 -1.549829,-0.087 -1.389947,1.00233 0.05995,0.40846 0.01056,0.74266 -0.109761,0.74266 -0.386845,0 -0.232927,-1.53554 0.197014,-1.96548 0.538982,-0.53898 0.696464,-0.52536 1.53292,0.1326 0.556,0.43735 0.69636,0.77214 0.693289,1.65364 -0.0021,0.6079 -0.167446,1.58153 -0.367396,2.16361 -0.199951,0.58208 -0.44502,1.55377 -0.5446,2.1593 l -0.181054,1.10096 1.011471,-0.23475 c 0.55631,-0.12912 1.130534,-0.23005 1.276055,-0.2243 0.388568,0.0154 -0.655852,0.40734 -1.682229,0.63135 l -0.888478,0.19392 z m 3.644336,-0.0326 c -0.853754,-0.9337 -1.397631,-2.19574 -1.537332,-3.56731 l -0.128473,-1.26133 0.391341,1.52127 c 0.612739,2.38193 1.732334,3.91769 2.432458,3.33664 1.018282,-0.8451 -0.432578,-7.37145 -1.638733,-7.37145 -0.214544,0 -0.391873,0.0298 -0.394064,0.0661 -0.0022,0.0364 -0.175559,0.5424 -0.385262,1.12448 -0.311467,0.86456 -0.383404,0.93589 -0.392891,0.3896 -0.01344,-0.77419 0.655693,-1.84481 1.153007,-1.84481 0.63278,0 1.22641,0.97198 1.751993,2.86861 1.079881,3.89687 0.384597,6.52807 -1.252044,4.73816 z m 14.805296,-0.41682 c -0.253654,-0.16105 -0.181923,-0.51623 0.306437,-1.5173 0.770144,-1.57869 0.512723,-1.99714 -0.680484,-1.10617 -1.210395,0.90379 -2.072902,1.32746 -2.072902,1.01822 0,-0.14011 0.922734,-0.87284 2.050521,-1.62829 1.841703,-1.23366 2.058765,-1.31924 2.131475,-0.84032 0.04452,0.29327 -0.27595,1.28255 -0.712166,2.1984 -0.436213,0.91584 -0.733507,1.76163 -0.660651,1.87951 0.165217,0.26732 0.06337,0.26619 -0.36223,-0.004 z m 22.423884,-1.76599 c -0.913101,-0.21177 -1.19379,-0.34855 -0.753465,-0.36718 0.675275,-0.0286 0.728335,-0.14695 1.406685,-3.13855 1.07523,-4.74186 1.04096,-4.369 0.38232,-4.15995 -0.70308,0.22315 -0.47055,-0.26307 0.33096,-0.69202 0.52964,-0.28346 0.5385,-0.24861 0.35281,1.38764 -0.10476,0.92312 -0.4658,2.74633 -0.80231,4.05159 -0.33652,1.30525 -0.55442,2.46611 -0.48422,2.57969 0.0702,0.11357 0.35872,0.20649 0.64117,0.20649 0.28245,0 0.51355,0.11906 0.51355,0.26458 0,0.14552 -0.0298,0.25123 -0.0662,0.2349 -0.0364,-0.0163 -0.72099,-0.18157 -1.52135,-0.36719 z m -29.897916,-0.52917 c 0,-0.41157 0.149931,-0.66145 0.396875,-0.66145 0.427027,0 0.490336,0.24233 0.236275,0.9044 -0.247173,0.64412 -0.63315,0.49602 -0.63315,-0.24295 z m 26.653849,-0.12154 c -1.202462,-0.23319 -1.59171,-0.53991 -0.685181,-0.53991 0.618808,0 0.697638,-0.17247 1.360548,-2.97657 0.932993,-3.94653 0.992781,-4.72576 0.319741,-4.16718 -0.224962,0.1867 -0.396875,0.21391 -0.396875,0.0628 0,-0.1466 0.315767,-0.47345 0.701702,-0.72632 l 0.701704,-0.45977 -0.167608,1.42608 c -0.09219,0.78435 -0.391242,2.31701 -0.66457,3.40591 -0.894183,3.5623 -0.894435,3.57284 -0.09248,3.8905 0.82254,0.32582 0.356212,0.36238 -1.076978,0.0844 z m 17.458687,-0.71468 c -0.37671,-1.97066 1.66648,-4.58773 3.58173,-4.58773 0.68342,0 1.78282,0.87653 1.78282,1.42141 0,0.63988 -0.34853,0.69435 -0.64449,0.10072 -0.38603,-0.7743 -1.12451,-0.89346 -2.14183,-0.3456 -1.08392,0.58373 -1.7116,1.69543 -1.7116,3.03148 0,1.251 -0.64597,1.53403 -0.86663,0.37972 z m -25.350049,-0.69354 c -0.77371,-0.59404 -1.035468,-1.46499 -1.02598,-3.41378 0.02328,-4.78319 1.953861,-8.60292 4.223909,-8.35722 0.823476,0.0891 1.614667,1.51869 1.362453,2.46175 -0.239093,0.894 -0.690785,0.69123 -0.609206,-0.27349 0.03692,-0.43656 -0.106161,-1.02954 -0.317952,-1.31774 -0.36876,-0.50179 -0.424228,-0.50533 -1.308801,-0.0835 -0.67527,0.32201 -1.102614,0.81878 -1.588815,1.84692 -0.612357,1.2949 -1.334315,4.18454 -1.045483,4.18454 0.06827,0 0.48536,-0.30396 0.92687,-0.67546 0.561306,-0.47231 1.048449,-0.65136 1.61966,-0.59531 1.13842,0.11169 1.553237,0.99483 1.342554,2.85827 -0.315055,2.78666 -2.121042,4.48457 -3.579209,3.36503 z m 1.775741,-0.57361 c 0.785291,-0.55004 1.551979,-3.13494 1.246134,-4.20136 -0.13177,-0.45946 -0.440925,-0.87416 -0.687012,-0.92155 -0.625617,-0.12048 -2.191874,1.1383 -2.57888,2.07262 -0.549884,1.32753 0.157377,3.43387 1.153014,3.43387 0.175509,0 0.565542,-0.17261 0.866744,-0.38358 z m -19.661735,-0.21173 c 0.433575,-1.78709 1.317572,-4.74525 1.798756,-6.01927 1.047385,-2.77313 1.076667,-2.68441 -0.855887,-2.59318 -1.668576,0.0788 -1.686139,0.0876 -1.601988,0.80724 0.104933,0.89741 -0.36443,0.96731 -0.58533,0.0872 -0.319786,-1.27412 -0.0141,-1.47623 2.232731,-1.47623 1.14001,0 2.132679,0.097 2.205929,0.2155 0.07325,0.11852 -0.269467,1.39844 -0.761603,2.84427 -0.492133,1.44582 -1.157695,3.55151 -1.479029,4.67929 -0.321333,1.12779 -0.699838,2.05052 -0.841126,2.05052 -0.141287,0 -0.191892,-0.26789 -0.112453,-0.59531 z m 54.633783,-2.76901 c -0.28611,-1.30222 -0.31579,-1.89597 -0.1081,-2.16264 0.22566,-0.28973 0.35211,-0.14031 0.59696,0.7054 0.44603,1.54056 0.53963,3.03454 0.19747,3.15204 -0.17168,0.059 -0.45439,-0.63915 -0.68633,-1.6948 z m -18.26999,1.32989 c -0.25456,-0.0665 -0.53536,-0.40991 -0.624,-0.76306 -0.18788,-0.7486 0.0643,-1.96501 0.40744,-1.96501 0.1301,0 0.10534,0.34764 -0.055,0.77254 -0.38166,1.01113 0.0896,1.60871 1.26859,1.60871 1.18221,0 2.50856,-1.476 2.50856,-2.79161 0,-0.7922 -0.12961,-0.98292 -0.92605,-1.36271 -0.50932,-0.24288 -0.92121,-0.50885 -0.91531,-0.59103 0.0266,-0.37032 2.30758,-3.06589 2.64957,-3.13113 0.41688,-0.0795 2.48109,1.50037 2.25531,1.72615 -0.0763,0.0763 -0.56449,-0.18605 -1.08489,-0.58298 -0.52041,-0.39694 -1.11338,-0.65754 -1.31772,-0.57913 -0.20435,0.0784 -0.68936,0.62283 -1.07781,1.20982 l -0.70627,1.06725 0.82617,0.77176 c 0.96374,0.90027 1.02503,1.51362 0.2944,2.94578 -0.74549,1.46128 -2.00002,2.05745 -3.50295,1.66465 z m 23.28315,-1.14881 c 0.57112,-0.22956 0.59531,-0.36867 0.59531,-3.42282 0,-2.8323 -0.21907,-3.84273 -0.61852,-2.85279 -0.077,0.19091 -0.14228,0.20824 -0.15434,0.041 -0.0115,-0.15935 0.21724,-0.50523 0.50828,-0.76862 0.52688,-0.47681 0.52917,-0.46212 0.52917,3.39858 v 3.87747 l -0.72761,-0.0168 c -0.69939,-0.0161 -0.70452,-0.0261 -0.13229,-0.25605 z m 2.97366,-0.85165 c -1.02337,-1.67846 -0.57851,-5.51954 0.72367,-6.24827 0.69271,-0.38766 1.40161,0.1139 1.36521,0.96591 -0.0237,0.55351 -0.0605,0.5969 -0.16077,0.18913 -0.53437,-2.17398 -2.18979,-0.644 -2.18979,2.02385 0,1.13798 0.23431,1.28717 0.7428,0.47295 0.48033,-0.76913 1.48611,-0.58887 1.56967,0.28132 0.0626,0.65182 0.0598,0.65278 -0.18991,0.0661 -0.33132,-0.77829 -0.89823,-0.75577 -1.43067,0.0568 -0.52141,0.79576 -0.54825,1.72714 -0.0687,2.38297 0.44039,0.60228 1.14657,0.3882 1.48305,-0.44957 0.17118,-0.42621 0.24634,-0.47192 0.25823,-0.15706 0.0203,0.53846 -0.67121,1.27567 -1.19664,1.27567 -0.21003,0 -0.6178,-0.38695 -0.90616,-0.85989 z m -8.5797,-2.33701 c -0.0733,-0.20623 -0.31248,-1.25515 -0.53148,-2.33093 -0.219,-1.07578 -0.4447,-2.00248 -0.50156,-2.05934 -0.0569,-0.0569 -0.52407,0.3173 -1.03825,0.83148 -1.19432,1.19432 -2.02565,1.21771 -2.97973,0.0838 -0.64404,-0.76538 -0.70103,-0.99688 -0.56647,-2.30067 0.20954,-2.03025 1.29727,-3.56513 2.60472,-3.67549 1.29424,-0.10926 1.89746,0.70778 2.45424,3.32412 0.23968,1.12632 0.63071,2.91271 0.86896,3.96975 0.32716,1.45162 0.35849,1.99658 0.12801,2.22706 -0.23048,0.23048 -0.33777,0.2134 -0.43844,-0.0698 z m -2.44269,-4.27758 c 1.16838,-1.56176 1.03784,-4.00755 -0.2309,-4.32598 -0.81283,-0.20401 -1.08136,-0.012 -1.71217,1.22454 -0.93531,1.83336 -0.4921,3.96134 0.82507,3.96134 0.26108,0 0.76418,-0.38695 1.118,-0.8599 z m -45.154567,3.32934 c -0.356081,-0.35608 -0.152826,-0.61862 0.891289,-1.15129 0.587224,-0.29958 1.02258,-0.62942 0.96746,-0.73298 -0.05512,-0.10356 -0.67159,-1.37892 -1.369928,-2.83413 -2.649654,-5.52138 -3.380338,-6.94553 -4.715021,-9.18985 -0.755782,-1.27087 -1.508093,-2.31267 -1.671804,-2.3151 -0.163711,-0.002 -0.371139,0.363 -0.460954,0.81206 -0.202724,1.01362 -0.79914,0.8981 -0.90555,-0.1754 -0.09911,-0.99983 0.550765,-2.86888 1.030274,-2.96309 0.512456,-0.10068 4.180496,6.14754 6.838326,11.64857 1.177671,2.43747 2.262486,4.43177 2.4107,4.43177 0.148215,0 0.755156,-0.24777 1.348756,-0.5506 0.777809,-0.39681 1.15969,-0.47019 1.367182,-0.2627 0.409921,0.40992 -0.08172,0.81023 -2.753866,2.24225 -2.29902,1.23206 -2.659356,1.358 -2.976864,1.04049 z m -12.54566,-0.69035 c -0.909505,-0.13078 -1.653646,-0.36982 -1.653646,-0.5312 0,-0.33968 0.92594,-1.74462 2.697144,-4.09239 1.794124,-2.37815 1.96205,-4.22506 0.428416,-4.71182 -0.660255,-0.20955 -1.53806,0.64665 -1.53806,1.50021 0,0.27492 -0.119062,0.49986 -0.264583,0.49986 -0.41183,0 -0.311985,-0.58047 0.261683,-1.52135 0.990784,-1.62501 2.913317,-0.90137 2.913317,1.09656 0,1.19433 -0.178798,1.55106 -2.135755,4.26125 -0.840616,1.16416 -1.567162,2.28659 -1.614548,2.49427 -0.06215,0.2724 0.35618,0.45742 1.501345,0.66404 2.055574,0.37089 1.565439,0.65129 -0.595313,0.34057 z m -4.431771,-0.62946 c -0.291041,-0.0615 -0.805761,-0.17125 -1.143821,-0.24378 l -0.614654,-0.13189 0.724733,-1.24688 c 0.398604,-0.68578 1.10817,-1.72312 1.576815,-2.30521 1.400357,-1.73932 1.968435,-2.85564 1.96948,-3.8702 0.0011,-1.0862 -0.489025,-1.63511 -1.346489,-1.50792 -0.57838,0.0858 -0.726427,0.26788 -1.253449,1.54167 l -0.273675,0.66145 -0.01791,-0.69192 c -0.024,-0.9274 0.921328,-2.0862 1.701884,-2.0862 0.364258,0 0.861289,0.30222 1.196614,0.7276 0.772193,0.97958 0.568988,2.42016 -0.566189,4.01388 -2.347599,3.29589 -2.961333,4.2606 -2.80805,4.41388 0.09191,0.0919 0.711507,0.22847 1.37688,0.30347 1.326636,0.14953 1.943658,0.61393 0.750214,0.56464 -0.40877,-0.0169 -0.981344,-0.081 -1.272386,-0.14259 z m 23.751746,-2.53498 c -0.442264,-0.56027 -0.667171,-3.25301 -0.735102,-8.80111 -0.05673,-4.63351 -0.130707,-5.43975 -0.594768,-6.48229 -1.02262,-2.29739 -2.936451,-3.24439 -4.334414,-2.14475 -1.074426,0.84514 -1.162937,1.71869 -0.343787,3.39297 0.483309,0.98785 0.620041,1.52827 0.433787,1.71452 -1.075602,1.07561 -2.437286,-3.33301 -1.56887,-5.07941 0.180906,-0.3638 0.775483,-0.88011 1.321284,-1.14735 2.16902,-1.06202 4.663821,0.39904 5.63196,3.29833 0.380749,1.14022 0.467106,2.20486 0.437182,5.38965 -0.03627,3.86007 0.25228,8.19991 0.566071,8.5137 0.08538,0.0854 1.229955,-0.45583 2.543508,-1.20267 2.461723,-1.39967 3.186194,-1.6251 3.186194,-0.99146 0,0.4405 -0.433612,0.73149 -3.734837,2.5064 -1.969825,1.05909 -2.603812,1.2924 -2.808208,1.03347 z m 18.449292,-0.96722 c 0,-0.12974 0.31049,-0.31383 0.68997,-0.40907 0.54219,-0.13608 0.66248,-0.29807 0.56159,-0.75629 -0.0706,-0.32071 -0.38934,-1.77374 -0.70827,-3.22895 -1.03625,-4.72807 -1.60778,-6.14068 -2.03452,-5.0286 -0.0834,0.21745 -0.25423,0.332 -0.37952,0.25457 -0.30444,-0.18816 0.57658,-2.00736 0.91717,-1.89383 0.14665,0.0489 0.41269,0.61665 0.59121,1.2617 0.7713,2.78698 1.39899,5.24245 1.68632,6.59679 0.5321,2.50803 0.49966,2.45309 1.34852,2.28332 1.30144,-0.26029 0.84681,0.24075 -0.6452,0.71107 -1.59836,0.50384 -2.02727,0.54812 -2.02727,0.20929 z m 4.82308,-1.2641 c -0.30219,-0.12159 -1.11891,-1.43117 -1.11891,-1.79415 0,-0.39732 0.44647,-0.0549 0.84759,0.64999 0.7727,1.35794 2.57529,0.81432 3.00729,-0.90693 0.19154,-0.76312 -0.29542,-2.45317 -0.90881,-3.15414 -0.77041,-0.88043 -1.29183,-1.01578 -2.16787,-0.56277 -0.44774,0.23154 -0.94786,0.37638 -1.11139,0.32187 -0.41989,-0.13996 -1.25209,-4.19389 -0.97031,-4.72673 0.23492,-0.44423 1.34512,-0.76255 2.65949,-0.76255 1.28591,0 0.84156,0.45406 -0.57781,0.59045 -0.73618,0.0707 -1.45393,0.24405 -1.59502,0.38514 -0.16565,0.16565 -0.12327,0.82778 0.11964,1.86902 0.50552,2.16697 0.54851,2.21648 1.56287,1.79974 0.51981,-0.21356 1.07283,-0.26774 1.41289,-0.13842 1.27489,0.48479 2.4235,2.95811 2.08644,4.49274 -0.33284,1.51541 -1.92793,2.4671 -3.24609,1.93674 z m -14.082956,-7.23416 c 2.64e-4,-0.21668 1.96933,-2.4036 4.375631,-4.85983 2.406305,-2.45622 4.340825,-4.49537 4.298935,-4.53144 -0.0419,-0.0361 -0.76024,-0.44852 -1.59636,-0.91656 -1.126013,-0.63032 -1.54823,-0.75884 -1.628261,-0.49564 -0.33347,1.09667 -0.431445,1.28138 -0.67968,1.28138 -0.150088,0 -0.272886,-0.12497 -0.272886,-0.27772 0,-0.50019 0.800529,-1.83894 1.099627,-1.83894 0.506764,0 3.92753,1.95043 3.92597,2.23849 -7.9e-4,0.15127 -2.14393,2.41686 -4.762495,5.03464 -2.61856,2.61777 -4.760775,4.5823 -4.760481,4.36562 z m 22.643586,-0.1668 c -0.13935,-0.36314 -0.10063,-0.37951 0.23628,-0.0999 0.45911,0.38104 0.5069,0.5342 0.16665,0.5342 -0.12995,0 -0.31127,-0.19544 -0.40293,-0.4343 z m 0.92584,0.35943 c 0.0606,-0.0412 0.34837,-0.24954 0.63941,-0.46302 0.48948,-0.35905 0.50193,-0.35343 0.16604,0.0749 -0.19972,0.25466 -0.48745,0.46302 -0.63941,0.46302 -0.15195,0 -0.22667,-0.0337 -0.16604,-0.0749 z m -3.58262,-0.7006 c -0.0837,-0.13547 -0.0128,-0.33246 0.15755,-0.43776 0.18572,-0.11478 0.23913,-0.0771 0.13337,0.094 -0.097,0.15699 0.0334,0.34017 0.28985,0.40706 0.41684,0.10873 0.41884,0.12488 0.0189,0.15232 -0.24608,0.0169 -0.51591,-0.0802 -0.59963,-0.21561 z m -23.261245,-0.9775 c -1.346028,-0.69066 -1.741416,-1.01047 -1.521354,-1.23053 0.220062,-0.22006 0.379855,-0.21482 0.614839,0.0202 0.86754,0.86754 1.044165,0.63269 4.337833,-5.76791 1.58251,-3.0753 1.745864,-3.73721 0.865494,-3.50699 -0.981868,0.25677 -0.421957,-0.51986 0.639816,-0.88745 1.057301,-0.36605 1.423532,-0.14124 0.999186,0.61336 -0.146537,0.26058 -0.79737,1.60488 -1.446295,2.98733 -0.648925,1.38244 -1.793364,3.61752 -2.543199,4.96684 l -1.363331,2.4533 0.816289,0.28456 c 0.448959,0.15651 0.81629,0.45151 0.81629,0.65555 0,0.51205 -0.147666,0.47284 -2.215568,-0.58822 z m 23.887645,-0.31932 c 0.1427,-0.26663 0.4673,-0.65358 0.72134,-0.85989 0.28582,-0.23212 0.22193,-0.0473 -0.1676,0.48478 -0.69492,0.94926 -0.95547,1.12577 -0.55374,0.37511 z m 3.23701,-1.07347 c -0.26843,-0.17009 -0.14158,-0.33551 0.50432,-0.65773 0.83321,-0.41566 0.84782,-0.41379 0.42419,0.0543 -0.24131,0.26665 -0.35912,0.56445 -0.26179,0.66178 0.25417,0.25417 -0.24204,0.21073 -0.66672,-0.0584 z m -1.89034,-0.5428 c 0,-0.13693 0.1177,-0.32171 0.26156,-0.41061 0.14998,-0.0927 0.19433,0.0135 0.10398,0.24897 -0.17589,0.45836 -0.36554,0.54223 -0.36554,0.16164 z m 1.33351,-0.94893 c -0.0207,-0.53014 0.82069,-1.44793 1.32733,-1.44793 0.28279,0 0.51416,0.10791 0.51416,0.23981 0,0.1319 -0.22838,0.18009 -0.50751,0.1071 -0.36155,-0.0945 -0.62484,0.0838 -0.91545,0.62008 -0.22437,0.41404 -0.4127,0.63046 -0.41853,0.48094 z m 1.86238,-0.27935 c 0.0127,-0.30823 0.0754,-0.37092 0.15985,-0.15986 0.0764,0.191 0.067,0.4192 -0.0209,0.50712 -0.0879,0.0879 -0.15046,-0.0683 -0.13897,-0.34726 z m -4.5188,-0.49151 c 0,-0.20969 0.10795,-0.44798 0.2399,-0.52953 0.13195,-0.0815 0.1776,0.09 0.10144,0.38126 -0.16156,0.6178 -0.34134,0.69589 -0.34134,0.14827 z m 0.86493,-1.12501 c 0.25743,-0.0671 0.61462,-0.0627 0.79375,0.01 0.17913,0.0725 -0.0315,0.12737 -0.46806,0.12197 -0.43656,-0.005 -0.58312,-0.0647 -0.32569,-0.13177 z"
         id="path1911" /></g><rect
       style="opacity:0.9;fill:#ffa34a;fill-opacity:0.542208;fill-rule:evenodd;stroke:#3d3846;stroke-width:0;stroke-miterlimit:0;stroke-opacity:0.901961"
       id="rect1977"
       width="133.20598"
       height="108.53821"
       x="54.92691"
       y="53.940197" /></g></svg>
